ISO-10303-21;
HEADER;
/* Generated by software containing ST-Developer
 * from STEP Tools, Inc. (www.steptools.com) 
 */

FILE_DESCRIPTION(
/* description */ (''),
/* implementation_level */ '2;1');

FILE_NAME(
/* name */ '',
/* time_stamp */ '2026-05-16T15:49:45+09:00',
/* author */ (''),
/* organization */ (''),
/* preprocessor_version */ 'ST-DEVELOPER v20.1',
/* originating_system */ 'Autodesk Translation Framework v15.8.0.0',
/* authorisation */ '');

FILE_SCHEMA (('AUTOMOTIVE_DESIGN { 1 0 10303 214 3 1 1 }'));
ENDSEC;

DATA;
#10=MECHANICAL_DESIGN_GEOMETRIC_PRESENTATION_REPRESENTATION('',(#13,#14,
#15,#16,#17),#1492);
#11=SHAPE_REPRESENTATION_RELATIONSHIP('SRR','None',#1498,#12);
#12=ADVANCED_BREP_SHAPE_REPRESENTATION('',(#18,#19,#20,#21,#22),#1491);
#13=STYLED_ITEM('',(#1508),#18);
#14=STYLED_ITEM('',(#1509),#19);
#15=STYLED_ITEM('',(#1509),#20);
#16=STYLED_ITEM('',(#1509),#21);
#17=STYLED_ITEM('',(#1509),#22);
#18=MANIFOLD_SOLID_BREP('\X2\30DC30C730A3\X0\1',#916);
#19=MANIFOLD_SOLID_BREP('\X2\30DC30C730A3\X0\2',#917);
#20=MANIFOLD_SOLID_BREP('\X2\30DC30C730A3\X0\3',#918);
#21=MANIFOLD_SOLID_BREP('\X2\30DC30C730A3\X0\4',#919);
#22=MANIFOLD_SOLID_BREP('\X2\30DC30C730A3\X0\5',#920);
#23=FACE_BOUND('',#138,.T.);
#24=FACE_BOUND('',#143,.T.);
#25=FACE_BOUND('',#154,.T.);
#26=FACE_BOUND('',#155,.T.);
#27=PLANE('',#935);
#28=PLANE('',#936);
#29=PLANE('',#937);
#30=PLANE('',#945);
#31=PLANE('',#946);
#32=PLANE('',#947);
#33=PLANE('',#948);
#34=PLANE('',#949);
#35=PLANE('',#950);
#36=PLANE('',#951);
#37=PLANE('',#952);
#38=PLANE('',#953);
#39=PLANE('',#954);
#40=PLANE('',#955);
#41=PLANE('',#956);
#42=PLANE('',#957);
#43=PLANE('',#958);
#44=PLANE('',#959);
#45=PLANE('',#960);
#46=PLANE('',#961);
#47=PLANE('',#962);
#48=PLANE('',#963);
#49=PLANE('',#964);
#50=PLANE('',#965);
#51=PLANE('',#966);
#52=PLANE('',#967);
#53=PLANE('',#968);
#54=PLANE('',#969);
#55=PLANE('',#970);
#56=PLANE('',#971);
#57=PLANE('',#972);
#58=PLANE('',#973);
#59=PLANE('',#974);
#60=PLANE('',#975);
#61=PLANE('',#976);
#62=PLANE('',#977);
#63=PLANE('',#978);
#64=PLANE('',#979);
#65=PLANE('',#980);
#66=PLANE('',#981);
#67=PLANE('',#982);
#68=PLANE('',#983);
#69=PLANE('',#984);
#70=PLANE('',#985);
#71=PLANE('',#986);
#72=PLANE('',#987);
#73=PLANE('',#988);
#74=FACE_OUTER_BOUND('',#125,.T.);
#75=FACE_OUTER_BOUND('',#126,.T.);
#76=FACE_OUTER_BOUND('',#127,.T.);
#77=FACE_OUTER_BOUND('',#128,.T.);
#78=FACE_OUTER_BOUND('',#129,.T.);
#79=FACE_OUTER_BOUND('',#130,.T.);
#80=FACE_OUTER_BOUND('',#131,.T.);
#81=FACE_OUTER_BOUND('',#132,.T.);
#82=FACE_OUTER_BOUND('',#133,.T.);
#83=FACE_OUTER_BOUND('',#134,.T.);
#84=FACE_OUTER_BOUND('',#135,.T.);
#85=FACE_OUTER_BOUND('',#136,.T.);
#86=FACE_OUTER_BOUND('',#137,.T.);
#87=FACE_OUTER_BOUND('',#139,.T.);
#88=FACE_OUTER_BOUND('',#140,.T.);
#89=FACE_OUTER_BOUND('',#141,.T.);
#90=FACE_OUTER_BOUND('',#142,.T.);
#91=FACE_OUTER_BOUND('',#144,.T.);
#92=FACE_OUTER_BOUND('',#145,.T.);
#93=FACE_OUTER_BOUND('',#146,.T.);
#94=FACE_OUTER_BOUND('',#147,.T.);
#95=FACE_OUTER_BOUND('',#148,.T.);
#96=FACE_OUTER_BOUND('',#149,.T.);
#97=FACE_OUTER_BOUND('',#150,.T.);
#98=FACE_OUTER_BOUND('',#151,.T.);
#99=FACE_OUTER_BOUND('',#152,.T.);
#100=FACE_OUTER_BOUND('',#153,.T.);
#101=FACE_OUTER_BOUND('',#156,.T.);
#102=FACE_OUTER_BOUND('',#157,.T.);
#103=FACE_OUTER_BOUND('',#158,.T.);
#104=FACE_OUTER_BOUND('',#159,.T.);
#105=FACE_OUTER_BOUND('',#160,.T.);
#106=FACE_OUTER_BOUND('',#161,.T.);
#107=FACE_OUTER_BOUND('',#162,.T.);
#108=FACE_OUTER_BOUND('',#163,.T.);
#109=FACE_OUTER_BOUND('',#164,.T.);
#110=FACE_OUTER_BOUND('',#165,.T.);
#111=FACE_OUTER_BOUND('',#166,.T.);
#112=FACE_OUTER_BOUND('',#167,.T.);
#113=FACE_OUTER_BOUND('',#168,.T.);
#114=FACE_OUTER_BOUND('',#169,.T.);
#115=FACE_OUTER_BOUND('',#170,.T.);
#116=FACE_OUTER_BOUND('',#171,.T.);
#117=FACE_OUTER_BOUND('',#172,.T.);
#118=FACE_OUTER_BOUND('',#173,.T.);
#119=FACE_OUTER_BOUND('',#174,.T.);
#120=FACE_OUTER_BOUND('',#175,.T.);
#121=FACE_OUTER_BOUND('',#176,.T.);
#122=FACE_OUTER_BOUND('',#177,.T.);
#123=FACE_OUTER_BOUND('',#178,.T.);
#124=FACE_OUTER_BOUND('',#179,.T.);
#125=EDGE_LOOP('',(#615,#616,#617,#618,#619,#620,#621,#622,#623,#624,#625,
#626));
#126=EDGE_LOOP('',(#627,#628,#629,#630));
#127=EDGE_LOOP('',(#631,#632,#633,#634));
#128=EDGE_LOOP('',(#635,#636,#637,#638));
#129=EDGE_LOOP('',(#639,#640,#641,#642));
#130=EDGE_LOOP('',(#643,#644,#645,#646));
#131=EDGE_LOOP('',(#647,#648,#649,#650,#651,#652,#653,#654,#655,#656,#657,
#658));
#132=EDGE_LOOP('',(#659,#660,#661));
#133=EDGE_LOOP('',(#662,#663,#664,#665));
#134=EDGE_LOOP('',(#666,#667,#668,#669));
#135=EDGE_LOOP('',(#670,#671,#672,#673));
#136=EDGE_LOOP('',(#674,#675,#676,#677));
#137=EDGE_LOOP('',(#678,#679,#680,#681));
#138=EDGE_LOOP('',(#682));
#139=EDGE_LOOP('',(#683,#684,#685,#686));
#140=EDGE_LOOP('',(#687,#688,#689));
#141=EDGE_LOOP('',(#690,#691,#692,#693));
#142=EDGE_LOOP('',(#694,#695,#696,#697));
#143=EDGE_LOOP('',(#698));
#144=EDGE_LOOP('',(#699,#700,#701,#702));
#145=EDGE_LOOP('',(#703,#704,#705,#706,#707,#708,#709,#710));
#146=EDGE_LOOP('',(#711,#712,#713,#714));
#147=EDGE_LOOP('',(#715,#716,#717,#718));
#148=EDGE_LOOP('',(#719,#720,#721,#722,#723,#724,#725,#726,#727,#728,#729,
#730));
#149=EDGE_LOOP('',(#731,#732,#733,#734,#735,#736,#737,#738));
#150=EDGE_LOOP('',(#739,#740,#741,#742));
#151=EDGE_LOOP('',(#743,#744,#745,#746,#747,#748,#749,#750,#751,#752,#753,
#754));
#152=EDGE_LOOP('',(#755,#756,#757,#758));
#153=EDGE_LOOP('',(#759,#760,#761,#762));
#154=EDGE_LOOP('',(#763));
#155=EDGE_LOOP('',(#764));
#156=EDGE_LOOP('',(#765,#766,#767,#768));
#157=EDGE_LOOP('',(#769,#770,#771,#772));
#158=EDGE_LOOP('',(#773,#774,#775,#776));
#159=EDGE_LOOP('',(#777,#778,#779,#780));
#160=EDGE_LOOP('',(#781,#782,#783,#784));
#161=EDGE_LOOP('',(#785,#786,#787,#788));
#162=EDGE_LOOP('',(#789,#790,#791,#792));
#163=EDGE_LOOP('',(#793,#794,#795,#796));
#164=EDGE_LOOP('',(#797,#798,#799,#800));
#165=EDGE_LOOP('',(#801,#802,#803,#804));
#166=EDGE_LOOP('',(#805,#806,#807,#808));
#167=EDGE_LOOP('',(#809,#810,#811,#812));
#168=EDGE_LOOP('',(#813,#814,#815,#816));
#169=EDGE_LOOP('',(#817,#818,#819,#820));
#170=EDGE_LOOP('',(#821,#822,#823,#824));
#171=EDGE_LOOP('',(#825,#826,#827,#828));
#172=EDGE_LOOP('',(#829,#830,#831,#832));
#173=EDGE_LOOP('',(#833,#834,#835,#836));
#174=EDGE_LOOP('',(#837,#838,#839,#840));
#175=EDGE_LOOP('',(#841,#842,#843,#844));
#176=EDGE_LOOP('',(#845,#846,#847,#848));
#177=EDGE_LOOP('',(#849,#850,#851,#852));
#178=EDGE_LOOP('',(#853,#854,#855,#856));
#179=EDGE_LOOP('',(#857,#858,#859,#860));
#180=CIRCLE('',#923,9.8);
#181=CIRCLE('',#924,9.8);
#182=CIRCLE('',#925,9.8);
#183=CIRCLE('',#926,9.8);
#184=CIRCLE('',#927,9.8);
#185=CIRCLE('',#928,9.8);
#186=CIRCLE('',#930,1.5);
#187=CIRCLE('',#931,1.5);
#188=CIRCLE('',#933,1.5);
#189=CIRCLE('',#934,1.5);
#190=CIRCLE('',#938,9.8);
#191=CIRCLE('',#940,9.8);
#192=CIRCLE('',#941,9.8);
#193=CIRCLE('',#942,9.8);
#194=CIRCLE('',#943,9.8);
#195=CIRCLE('',#944,9.8);
#196=LINE('',#1236,#303);
#197=LINE('',#1240,#304);
#198=LINE('',#1244,#305);
#199=LINE('',#1248,#306);
#200=LINE('',#1252,#307);
#201=LINE('',#1256,#308);
#202=LINE('',#1262,#309);
#203=LINE('',#1268,#310);
#204=LINE('',#1272,#311);
#205=LINE('',#1274,#312);
#206=LINE('',#1275,#313);
#207=LINE('',#1279,#314);
#208=LINE('',#1281,#315);
#209=LINE('',#1283,#316);
#210=LINE('',#1284,#317);
#211=LINE('',#1287,#318);
#212=LINE('',#1289,#319);
#213=LINE('',#1295,#320);
#214=LINE('',#1299,#321);
#215=LINE('',#1302,#322);
#216=LINE('',#1306,#323);
#217=LINE('',#1309,#324);
#218=LINE('',#1312,#325);
#219=LINE('',#1313,#326);
#220=LINE('',#1316,#327);
#221=LINE('',#1317,#328);
#222=LINE('',#1320,#329);
#223=LINE('',#1321,#330);
#224=LINE('',#1324,#331);
#225=LINE('',#1325,#332);
#226=LINE('',#1327,#333);
#227=LINE('',#1330,#334);
#228=LINE('',#1331,#335);
#229=LINE('',#1333,#336);
#230=LINE('',#1336,#337);
#231=LINE('',#1337,#338);
#232=LINE('',#1339,#339);
#233=LINE('',#1342,#340);
#234=LINE('',#1343,#341);
#235=LINE('',#1346,#342);
#236=LINE('',#1348,#343);
#237=LINE('',#1349,#344);
#238=LINE('',#1353,#345);
#239=LINE('',#1355,#346);
#240=LINE('',#1357,#347);
#241=LINE('',#1358,#348);
#242=LINE('',#1361,#349);
#243=LINE('',#1363,#350);
#244=LINE('',#1364,#351);
#245=LINE('',#1367,#352);
#246=LINE('',#1369,#353);
#247=LINE('',#1370,#354);
#248=LINE('',#1371,#355);
#249=LINE('',#1373,#356);
#250=LINE('',#1376,#357);
#251=LINE('',#1377,#358);
#252=LINE('',#1380,#359);
#253=LINE('',#1381,#360);
#254=LINE('',#1383,#361);
#255=LINE('',#1388,#362);
#256=LINE('',#1390,#363);
#257=LINE('',#1392,#364);
#258=LINE('',#1393,#365);
#259=LINE('',#1396,#366);
#260=LINE('',#1398,#367);
#261=LINE('',#1399,#368);
#262=LINE('',#1402,#369);
#263=LINE('',#1404,#370);
#264=LINE('',#1405,#371);
#265=LINE('',#1407,#372);
#266=LINE('',#1408,#373);
#267=LINE('',#1414,#374);
#268=LINE('',#1416,#375);
#269=LINE('',#1418,#376);
#270=LINE('',#1419,#377);
#271=LINE('',#1422,#378);
#272=LINE('',#1424,#379);
#273=LINE('',#1425,#380);
#274=LINE('',#1428,#381);
#275=LINE('',#1430,#382);
#276=LINE('',#1431,#383);
#277=LINE('',#1433,#384);
#278=LINE('',#1434,#385);
#279=LINE('',#1440,#386);
#280=LINE('',#1442,#387);
#281=LINE('',#1444,#388);
#282=LINE('',#1445,#389);
#283=LINE('',#1448,#390);
#284=LINE('',#1450,#391);
#285=LINE('',#1451,#392);
#286=LINE('',#1454,#393);
#287=LINE('',#1456,#394);
#288=LINE('',#1457,#395);
#289=LINE('',#1459,#396);
#290=LINE('',#1460,#397);
#291=LINE('',#1466,#398);
#292=LINE('',#1468,#399);
#293=LINE('',#1470,#400);
#294=LINE('',#1471,#401);
#295=LINE('',#1474,#402);
#296=LINE('',#1476,#403);
#297=LINE('',#1477,#404);
#298=LINE('',#1480,#405);
#299=LINE('',#1482,#406);
#300=LINE('',#1483,#407);
#301=LINE('',#1485,#408);
#302=LINE('',#1486,#409);
#303=VECTOR('',#993,10.);
#304=VECTOR('',#996,10.);
#305=VECTOR('',#999,10.);
#306=VECTOR('',#1002,10.);
#307=VECTOR('',#1005,10.);
#308=VECTOR('',#1008,10.);
#309=VECTOR('',#1015,1.75);
#310=VECTOR('',#1022,1.75);
#311=VECTOR('',#1027,10.);
#312=VECTOR('',#1028,10.);
#313=VECTOR('',#1029,10.);
#314=VECTOR('',#1032,10.);
#315=VECTOR('',#1033,10.);
#316=VECTOR('',#1034,10.);
#317=VECTOR('',#1035,10.);
#318=VECTOR('',#1038,10.);
#319=VECTOR('',#1039,10.);
#320=VECTOR('',#1046,10.);
#321=VECTOR('',#1049,10.);
#322=VECTOR('',#1052,10.);
#323=VECTOR('',#1055,10.);
#324=VECTOR('',#1060,10.);
#325=VECTOR('',#1063,10.);
#326=VECTOR('',#1064,10.);
#327=VECTOR('',#1067,10.);
#328=VECTOR('',#1068,10.);
#329=VECTOR('',#1071,10.);
#330=VECTOR('',#1072,10.);
#331=VECTOR('',#1075,10.);
#332=VECTOR('',#1076,10.);
#333=VECTOR('',#1079,10.);
#334=VECTOR('',#1082,10.);
#335=VECTOR('',#1083,10.);
#336=VECTOR('',#1086,10.);
#337=VECTOR('',#1089,10.);
#338=VECTOR('',#1090,10.);
#339=VECTOR('',#1093,10.);
#340=VECTOR('',#1096,10.);
#341=VECTOR('',#1097,10.);
#342=VECTOR('',#1100,10.);
#343=VECTOR('',#1101,10.);
#344=VECTOR('',#1102,10.);
#345=VECTOR('',#1105,10.);
#346=VECTOR('',#1106,10.);
#347=VECTOR('',#1107,10.);
#348=VECTOR('',#1108,10.);
#349=VECTOR('',#1111,10.);
#350=VECTOR('',#1112,10.);
#351=VECTOR('',#1113,10.);
#352=VECTOR('',#1116,10.);
#353=VECTOR('',#1117,10.);
#354=VECTOR('',#1118,10.);
#355=VECTOR('',#1119,10.);
#356=VECTOR('',#1122,10.);
#357=VECTOR('',#1125,10.);
#358=VECTOR('',#1126,10.);
#359=VECTOR('',#1129,10.);
#360=VECTOR('',#1130,10.);
#361=VECTOR('',#1133,10.);
#362=VECTOR('',#1138,10.);
#363=VECTOR('',#1139,10.);
#364=VECTOR('',#1140,10.);
#365=VECTOR('',#1141,10.);
#366=VECTOR('',#1144,10.);
#367=VECTOR('',#1145,10.);
#368=VECTOR('',#1146,10.);
#369=VECTOR('',#1149,10.);
#370=VECTOR('',#1150,10.);
#371=VECTOR('',#1151,10.);
#372=VECTOR('',#1154,10.);
#373=VECTOR('',#1155,10.);
#374=VECTOR('',#1162,10.);
#375=VECTOR('',#1163,10.);
#376=VECTOR('',#1164,10.);
#377=VECTOR('',#1165,10.);
#378=VECTOR('',#1168,10.);
#379=VECTOR('',#1169,10.);
#380=VECTOR('',#1170,10.);
#381=VECTOR('',#1173,10.);
#382=VECTOR('',#1174,10.);
#383=VECTOR('',#1175,10.);
#384=VECTOR('',#1178,10.);
#385=VECTOR('',#1179,10.);
#386=VECTOR('',#1186,10.);
#387=VECTOR('',#1187,10.);
#388=VECTOR('',#1188,10.);
#389=VECTOR('',#1189,10.);
#390=VECTOR('',#1192,10.);
#391=VECTOR('',#1193,10.);
#392=VECTOR('',#1194,10.);
#393=VECTOR('',#1197,10.);
#394=VECTOR('',#1198,10.);
#395=VECTOR('',#1199,10.);
#396=VECTOR('',#1202,10.);
#397=VECTOR('',#1203,10.);
#398=VECTOR('',#1210,10.);
#399=VECTOR('',#1211,10.);
#400=VECTOR('',#1212,10.);
#401=VECTOR('',#1213,10.);
#402=VECTOR('',#1216,10.);
#403=VECTOR('',#1217,10.);
#404=VECTOR('',#1218,10.);
#405=VECTOR('',#1221,10.);
#406=VECTOR('',#1222,10.);
#407=VECTOR('',#1223,10.);
#408=VECTOR('',#1226,10.);
#409=VECTOR('',#1227,10.);
#410=VERTEX_POINT('',#1234);
#411=VERTEX_POINT('',#1235);
#412=VERTEX_POINT('',#1237);
#413=VERTEX_POINT('',#1239);
#414=VERTEX_POINT('',#1241);
#415=VERTEX_POINT('',#1243);
#416=VERTEX_POINT('',#1245);
#417=VERTEX_POINT('',#1247);
#418=VERTEX_POINT('',#1249);
#419=VERTEX_POINT('',#1251);
#420=VERTEX_POINT('',#1253);
#421=VERTEX_POINT('',#1255);
#422=VERTEX_POINT('',#1259);
#423=VERTEX_POINT('',#1261);
#424=VERTEX_POINT('',#1265);
#425=VERTEX_POINT('',#1267);
#426=VERTEX_POINT('',#1271);
#427=VERTEX_POINT('',#1273);
#428=VERTEX_POINT('',#1277);
#429=VERTEX_POINT('',#1278);
#430=VERTEX_POINT('',#1280);
#431=VERTEX_POINT('',#1282);
#432=VERTEX_POINT('',#1286);
#433=VERTEX_POINT('',#1288);
#434=VERTEX_POINT('',#1292);
#435=VERTEX_POINT('',#1294);
#436=VERTEX_POINT('',#1296);
#437=VERTEX_POINT('',#1298);
#438=VERTEX_POINT('',#1301);
#439=VERTEX_POINT('',#1303);
#440=VERTEX_POINT('',#1305);
#441=VERTEX_POINT('',#1311);
#442=VERTEX_POINT('',#1315);
#443=VERTEX_POINT('',#1319);
#444=VERTEX_POINT('',#1323);
#445=VERTEX_POINT('',#1329);
#446=VERTEX_POINT('',#1335);
#447=VERTEX_POINT('',#1341);
#448=VERTEX_POINT('',#1345);
#449=VERTEX_POINT('',#1347);
#450=VERTEX_POINT('',#1351);
#451=VERTEX_POINT('',#1352);
#452=VERTEX_POINT('',#1354);
#453=VERTEX_POINT('',#1356);
#454=VERTEX_POINT('',#1360);
#455=VERTEX_POINT('',#1362);
#456=VERTEX_POINT('',#1366);
#457=VERTEX_POINT('',#1368);
#458=VERTEX_POINT('',#1375);
#459=VERTEX_POINT('',#1379);
#460=VERTEX_POINT('',#1386);
#461=VERTEX_POINT('',#1387);
#462=VERTEX_POINT('',#1389);
#463=VERTEX_POINT('',#1391);
#464=VERTEX_POINT('',#1395);
#465=VERTEX_POINT('',#1397);
#466=VERTEX_POINT('',#1401);
#467=VERTEX_POINT('',#1403);
#468=VERTEX_POINT('',#1412);
#469=VERTEX_POINT('',#1413);
#470=VERTEX_POINT('',#1415);
#471=VERTEX_POINT('',#1417);
#472=VERTEX_POINT('',#1421);
#473=VERTEX_POINT('',#1423);
#474=VERTEX_POINT('',#1427);
#475=VERTEX_POINT('',#1429);
#476=VERTEX_POINT('',#1438);
#477=VERTEX_POINT('',#1439);
#478=VERTEX_POINT('',#1441);
#479=VERTEX_POINT('',#1443);
#480=VERTEX_POINT('',#1447);
#481=VERTEX_POINT('',#1449);
#482=VERTEX_POINT('',#1453);
#483=VERTEX_POINT('',#1455);
#484=VERTEX_POINT('',#1464);
#485=VERTEX_POINT('',#1465);
#486=VERTEX_POINT('',#1467);
#487=VERTEX_POINT('',#1469);
#488=VERTEX_POINT('',#1473);
#489=VERTEX_POINT('',#1475);
#490=VERTEX_POINT('',#1479);
#491=VERTEX_POINT('',#1481);
#492=EDGE_CURVE('',#410,#411,#196,.T.);
#493=EDGE_CURVE('',#410,#412,#180,.T.);
#494=EDGE_CURVE('',#412,#413,#197,.F.);
#495=EDGE_CURVE('',#413,#414,#181,.F.);
#496=EDGE_CURVE('',#414,#415,#198,.T.);
#497=EDGE_CURVE('',#415,#416,#182,.T.);
#498=EDGE_CURVE('',#416,#417,#199,.T.);
#499=EDGE_CURVE('',#417,#418,#183,.T.);
#500=EDGE_CURVE('',#418,#419,#200,.T.);
#501=EDGE_CURVE('',#419,#420,#184,.T.);
#502=EDGE_CURVE('',#420,#421,#201,.F.);
#503=EDGE_CURVE('',#421,#411,#185,.T.);
#504=EDGE_CURVE('',#422,#422,#186,.T.);
#505=EDGE_CURVE('',#422,#423,#202,.T.);
#506=EDGE_CURVE('',#423,#423,#187,.F.);
#507=EDGE_CURVE('',#424,#424,#188,.T.);
#508=EDGE_CURVE('',#424,#425,#203,.T.);
#509=EDGE_CURVE('',#425,#425,#189,.F.);
#510=EDGE_CURVE('',#426,#416,#204,.T.);
#511=EDGE_CURVE('',#427,#426,#205,.F.);
#512=EDGE_CURVE('',#417,#427,#206,.T.);
#513=EDGE_CURVE('',#428,#429,#207,.T.);
#514=EDGE_CURVE('',#430,#428,#208,.T.);
#515=EDGE_CURVE('',#431,#430,#209,.F.);
#516=EDGE_CURVE('',#429,#431,#210,.T.);
#517=EDGE_CURVE('',#432,#431,#211,.F.);
#518=EDGE_CURVE('',#432,#433,#212,.T.);
#519=EDGE_CURVE('',#429,#433,#190,.T.);
#520=EDGE_CURVE('',#411,#434,#191,.T.);
#521=EDGE_CURVE('',#434,#435,#213,.F.);
#522=EDGE_CURVE('',#435,#436,#192,.T.);
#523=EDGE_CURVE('',#436,#437,#214,.T.);
#524=EDGE_CURVE('',#437,#428,#193,.T.);
#525=EDGE_CURVE('',#433,#438,#215,.T.);
#526=EDGE_CURVE('',#438,#439,#194,.F.);
#527=EDGE_CURVE('',#439,#440,#216,.F.);
#528=EDGE_CURVE('',#440,#410,#195,.T.);
#529=EDGE_CURVE('',#421,#434,#217,.T.);
#530=EDGE_CURVE('',#415,#441,#218,.T.);
#531=EDGE_CURVE('',#426,#441,#219,.F.);
#532=EDGE_CURVE('',#437,#442,#220,.T.);
#533=EDGE_CURVE('',#430,#442,#221,.F.);
#534=EDGE_CURVE('',#443,#427,#222,.F.);
#535=EDGE_CURVE('',#443,#418,#223,.T.);
#536=EDGE_CURVE('',#444,#436,#224,.T.);
#537=EDGE_CURVE('',#442,#444,#225,.F.);
#538=EDGE_CURVE('',#435,#420,#226,.F.);
#539=EDGE_CURVE('',#445,#443,#227,.F.);
#540=EDGE_CURVE('',#419,#445,#228,.T.);
#541=EDGE_CURVE('',#440,#412,#229,.T.);
#542=EDGE_CURVE('',#446,#432,#230,.F.);
#543=EDGE_CURVE('',#438,#446,#231,.T.);
#544=EDGE_CURVE('',#413,#439,#232,.T.);
#545=EDGE_CURVE('',#447,#414,#233,.T.);
#546=EDGE_CURVE('',#441,#447,#234,.F.);
#547=EDGE_CURVE('',#448,#445,#235,.T.);
#548=EDGE_CURVE('',#449,#448,#236,.T.);
#549=EDGE_CURVE('',#444,#449,#237,.T.);
#550=EDGE_CURVE('',#450,#451,#238,.T.);
#551=EDGE_CURVE('',#451,#452,#239,.F.);
#552=EDGE_CURVE('',#452,#453,#240,.F.);
#553=EDGE_CURVE('',#453,#450,#241,.F.);
#554=EDGE_CURVE('',#448,#454,#242,.F.);
#555=EDGE_CURVE('',#454,#455,#243,.F.);
#556=EDGE_CURVE('',#455,#449,#244,.F.);
#557=EDGE_CURVE('',#456,#455,#245,.F.);
#558=EDGE_CURVE('',#457,#456,#246,.T.);
#559=EDGE_CURVE('',#457,#452,#247,.T.);
#560=EDGE_CURVE('',#451,#446,#248,.F.);
#561=EDGE_CURVE('',#447,#450,#249,.F.);
#562=EDGE_CURVE('',#456,#458,#250,.T.);
#563=EDGE_CURVE('',#458,#454,#251,.T.);
#564=EDGE_CURVE('',#459,#453,#252,.F.);
#565=EDGE_CURVE('',#458,#459,#253,.T.);
#566=EDGE_CURVE('',#459,#457,#254,.T.);
#567=EDGE_CURVE('',#460,#461,#255,.F.);
#568=EDGE_CURVE('',#460,#462,#256,.T.);
#569=EDGE_CURVE('',#463,#462,#257,.F.);
#570=EDGE_CURVE('',#461,#463,#258,.F.);
#571=EDGE_CURVE('',#461,#464,#259,.F.);
#572=EDGE_CURVE('',#465,#463,#260,.F.);
#573=EDGE_CURVE('',#464,#465,#261,.T.);
#574=EDGE_CURVE('',#464,#466,#262,.F.);
#575=EDGE_CURVE('',#467,#465,#263,.F.);
#576=EDGE_CURVE('',#466,#467,#264,.F.);
#577=EDGE_CURVE('',#466,#460,#265,.T.);
#578=EDGE_CURVE('',#462,#467,#266,.T.);
#579=EDGE_CURVE('',#468,#469,#267,.T.);
#580=EDGE_CURVE('',#469,#470,#268,.T.);
#581=EDGE_CURVE('',#471,#470,#269,.F.);
#582=EDGE_CURVE('',#468,#471,#270,.F.);
#583=EDGE_CURVE('',#472,#468,#271,.T.);
#584=EDGE_CURVE('',#473,#471,#272,.F.);
#585=EDGE_CURVE('',#472,#473,#273,.T.);
#586=EDGE_CURVE('',#474,#472,#274,.T.);
#587=EDGE_CURVE('',#475,#473,#275,.F.);
#588=EDGE_CURVE('',#474,#475,#276,.F.);
#589=EDGE_CURVE('',#469,#474,#277,.T.);
#590=EDGE_CURVE('',#470,#475,#278,.T.);
#591=EDGE_CURVE('',#476,#477,#279,.F.);
#592=EDGE_CURVE('',#476,#478,#280,.T.);
#593=EDGE_CURVE('',#479,#478,#281,.F.);
#594=EDGE_CURVE('',#477,#479,#282,.F.);
#595=EDGE_CURVE('',#477,#480,#283,.T.);
#596=EDGE_CURVE('',#481,#479,#284,.T.);
#597=EDGE_CURVE('',#480,#481,#285,.T.);
#598=EDGE_CURVE('',#480,#482,#286,.F.);
#599=EDGE_CURVE('',#483,#481,#287,.F.);
#600=EDGE_CURVE('',#482,#483,#288,.F.);
#601=EDGE_CURVE('',#482,#476,#289,.F.);
#602=EDGE_CURVE('',#478,#483,#290,.F.);
#603=EDGE_CURVE('',#484,#485,#291,.T.);
#604=EDGE_CURVE('',#485,#486,#292,.T.);
#605=EDGE_CURVE('',#487,#486,#293,.F.);
#606=EDGE_CURVE('',#484,#487,#294,.F.);
#607=EDGE_CURVE('',#488,#484,#295,.T.);
#608=EDGE_CURVE('',#489,#487,#296,.F.);
#609=EDGE_CURVE('',#488,#489,#297,.T.);
#610=EDGE_CURVE('',#490,#488,#298,.T.);
#611=EDGE_CURVE('',#491,#489,#299,.F.);
#612=EDGE_CURVE('',#490,#491,#300,.F.);
#613=EDGE_CURVE('',#485,#490,#301,.T.);
#614=EDGE_CURVE('',#486,#491,#302,.T.);
#615=ORIENTED_EDGE('',*,*,#492,.F.);
#616=ORIENTED_EDGE('',*,*,#493,.T.);
#617=ORIENTED_EDGE('',*,*,#494,.T.);
#618=ORIENTED_EDGE('',*,*,#495,.T.);
#619=ORIENTED_EDGE('',*,*,#496,.T.);
#620=ORIENTED_EDGE('',*,*,#497,.T.);
#621=ORIENTED_EDGE('',*,*,#498,.T.);
#622=ORIENTED_EDGE('',*,*,#499,.T.);
#623=ORIENTED_EDGE('',*,*,#500,.T.);
#624=ORIENTED_EDGE('',*,*,#501,.T.);
#625=ORIENTED_EDGE('',*,*,#502,.T.);
#626=ORIENTED_EDGE('',*,*,#503,.T.);
#627=ORIENTED_EDGE('',*,*,#504,.F.);
#628=ORIENTED_EDGE('',*,*,#505,.T.);
#629=ORIENTED_EDGE('',*,*,#506,.F.);
#630=ORIENTED_EDGE('',*,*,#505,.F.);
#631=ORIENTED_EDGE('',*,*,#507,.F.);
#632=ORIENTED_EDGE('',*,*,#508,.T.);
#633=ORIENTED_EDGE('',*,*,#509,.F.);
#634=ORIENTED_EDGE('',*,*,#508,.F.);
#635=ORIENTED_EDGE('',*,*,#498,.F.);
#636=ORIENTED_EDGE('',*,*,#510,.F.);
#637=ORIENTED_EDGE('',*,*,#511,.F.);
#638=ORIENTED_EDGE('',*,*,#512,.F.);
#639=ORIENTED_EDGE('',*,*,#513,.F.);
#640=ORIENTED_EDGE('',*,*,#514,.F.);
#641=ORIENTED_EDGE('',*,*,#515,.F.);
#642=ORIENTED_EDGE('',*,*,#516,.F.);
#643=ORIENTED_EDGE('',*,*,#516,.T.);
#644=ORIENTED_EDGE('',*,*,#517,.F.);
#645=ORIENTED_EDGE('',*,*,#518,.T.);
#646=ORIENTED_EDGE('',*,*,#519,.F.);
#647=ORIENTED_EDGE('',*,*,#492,.T.);
#648=ORIENTED_EDGE('',*,*,#520,.T.);
#649=ORIENTED_EDGE('',*,*,#521,.T.);
#650=ORIENTED_EDGE('',*,*,#522,.T.);
#651=ORIENTED_EDGE('',*,*,#523,.T.);
#652=ORIENTED_EDGE('',*,*,#524,.T.);
#653=ORIENTED_EDGE('',*,*,#513,.T.);
#654=ORIENTED_EDGE('',*,*,#519,.T.);
#655=ORIENTED_EDGE('',*,*,#525,.T.);
#656=ORIENTED_EDGE('',*,*,#526,.T.);
#657=ORIENTED_EDGE('',*,*,#527,.T.);
#658=ORIENTED_EDGE('',*,*,#528,.T.);
#659=ORIENTED_EDGE('',*,*,#520,.F.);
#660=ORIENTED_EDGE('',*,*,#503,.F.);
#661=ORIENTED_EDGE('',*,*,#529,.T.);
#662=ORIENTED_EDGE('',*,*,#510,.T.);
#663=ORIENTED_EDGE('',*,*,#497,.F.);
#664=ORIENTED_EDGE('',*,*,#530,.T.);
#665=ORIENTED_EDGE('',*,*,#531,.F.);
#666=ORIENTED_EDGE('',*,*,#514,.T.);
#667=ORIENTED_EDGE('',*,*,#524,.F.);
#668=ORIENTED_EDGE('',*,*,#532,.T.);
#669=ORIENTED_EDGE('',*,*,#533,.F.);
#670=ORIENTED_EDGE('',*,*,#512,.T.);
#671=ORIENTED_EDGE('',*,*,#534,.F.);
#672=ORIENTED_EDGE('',*,*,#535,.T.);
#673=ORIENTED_EDGE('',*,*,#499,.F.);
#674=ORIENTED_EDGE('',*,*,#523,.F.);
#675=ORIENTED_EDGE('',*,*,#536,.F.);
#676=ORIENTED_EDGE('',*,*,#537,.F.);
#677=ORIENTED_EDGE('',*,*,#532,.F.);
#678=ORIENTED_EDGE('',*,*,#502,.F.);
#679=ORIENTED_EDGE('',*,*,#538,.F.);
#680=ORIENTED_EDGE('',*,*,#521,.F.);
#681=ORIENTED_EDGE('',*,*,#529,.F.);
#682=ORIENTED_EDGE('',*,*,#507,.T.);
#683=ORIENTED_EDGE('',*,*,#500,.F.);
#684=ORIENTED_EDGE('',*,*,#535,.F.);
#685=ORIENTED_EDGE('',*,*,#539,.F.);
#686=ORIENTED_EDGE('',*,*,#540,.F.);
#687=ORIENTED_EDGE('',*,*,#493,.F.);
#688=ORIENTED_EDGE('',*,*,#528,.F.);
#689=ORIENTED_EDGE('',*,*,#541,.T.);
#690=ORIENTED_EDGE('',*,*,#525,.F.);
#691=ORIENTED_EDGE('',*,*,#518,.F.);
#692=ORIENTED_EDGE('',*,*,#542,.F.);
#693=ORIENTED_EDGE('',*,*,#543,.F.);
#694=ORIENTED_EDGE('',*,*,#494,.F.);
#695=ORIENTED_EDGE('',*,*,#541,.F.);
#696=ORIENTED_EDGE('',*,*,#527,.F.);
#697=ORIENTED_EDGE('',*,*,#544,.F.);
#698=ORIENTED_EDGE('',*,*,#504,.T.);
#699=ORIENTED_EDGE('',*,*,#496,.F.);
#700=ORIENTED_EDGE('',*,*,#545,.F.);
#701=ORIENTED_EDGE('',*,*,#546,.F.);
#702=ORIENTED_EDGE('',*,*,#530,.F.);
#703=ORIENTED_EDGE('',*,*,#501,.F.);
#704=ORIENTED_EDGE('',*,*,#540,.T.);
#705=ORIENTED_EDGE('',*,*,#547,.F.);
#706=ORIENTED_EDGE('',*,*,#548,.F.);
#707=ORIENTED_EDGE('',*,*,#549,.F.);
#708=ORIENTED_EDGE('',*,*,#536,.T.);
#709=ORIENTED_EDGE('',*,*,#522,.F.);
#710=ORIENTED_EDGE('',*,*,#538,.T.);
#711=ORIENTED_EDGE('',*,*,#550,.T.);
#712=ORIENTED_EDGE('',*,*,#551,.T.);
#713=ORIENTED_EDGE('',*,*,#552,.T.);
#714=ORIENTED_EDGE('',*,*,#553,.T.);
#715=ORIENTED_EDGE('',*,*,#548,.T.);
#716=ORIENTED_EDGE('',*,*,#554,.T.);
#717=ORIENTED_EDGE('',*,*,#555,.T.);
#718=ORIENTED_EDGE('',*,*,#556,.T.);
#719=ORIENTED_EDGE('',*,*,#515,.T.);
#720=ORIENTED_EDGE('',*,*,#533,.T.);
#721=ORIENTED_EDGE('',*,*,#537,.T.);
#722=ORIENTED_EDGE('',*,*,#549,.T.);
#723=ORIENTED_EDGE('',*,*,#556,.F.);
#724=ORIENTED_EDGE('',*,*,#557,.F.);
#725=ORIENTED_EDGE('',*,*,#558,.F.);
#726=ORIENTED_EDGE('',*,*,#559,.T.);
#727=ORIENTED_EDGE('',*,*,#551,.F.);
#728=ORIENTED_EDGE('',*,*,#560,.T.);
#729=ORIENTED_EDGE('',*,*,#542,.T.);
#730=ORIENTED_EDGE('',*,*,#517,.T.);
#731=ORIENTED_EDGE('',*,*,#495,.F.);
#732=ORIENTED_EDGE('',*,*,#544,.T.);
#733=ORIENTED_EDGE('',*,*,#526,.F.);
#734=ORIENTED_EDGE('',*,*,#543,.T.);
#735=ORIENTED_EDGE('',*,*,#560,.F.);
#736=ORIENTED_EDGE('',*,*,#550,.F.);
#737=ORIENTED_EDGE('',*,*,#561,.F.);
#738=ORIENTED_EDGE('',*,*,#545,.T.);
#739=ORIENTED_EDGE('',*,*,#562,.F.);
#740=ORIENTED_EDGE('',*,*,#557,.T.);
#741=ORIENTED_EDGE('',*,*,#555,.F.);
#742=ORIENTED_EDGE('',*,*,#563,.F.);
#743=ORIENTED_EDGE('',*,*,#511,.T.);
#744=ORIENTED_EDGE('',*,*,#531,.T.);
#745=ORIENTED_EDGE('',*,*,#546,.T.);
#746=ORIENTED_EDGE('',*,*,#561,.T.);
#747=ORIENTED_EDGE('',*,*,#553,.F.);
#748=ORIENTED_EDGE('',*,*,#564,.F.);
#749=ORIENTED_EDGE('',*,*,#565,.F.);
#750=ORIENTED_EDGE('',*,*,#563,.T.);
#751=ORIENTED_EDGE('',*,*,#554,.F.);
#752=ORIENTED_EDGE('',*,*,#547,.T.);
#753=ORIENTED_EDGE('',*,*,#539,.T.);
#754=ORIENTED_EDGE('',*,*,#534,.T.);
#755=ORIENTED_EDGE('',*,*,#566,.F.);
#756=ORIENTED_EDGE('',*,*,#564,.T.);
#757=ORIENTED_EDGE('',*,*,#552,.F.);
#758=ORIENTED_EDGE('',*,*,#559,.F.);
#759=ORIENTED_EDGE('',*,*,#558,.T.);
#760=ORIENTED_EDGE('',*,*,#562,.T.);
#761=ORIENTED_EDGE('',*,*,#565,.T.);
#762=ORIENTED_EDGE('',*,*,#566,.T.);
#763=ORIENTED_EDGE('',*,*,#506,.T.);
#764=ORIENTED_EDGE('',*,*,#509,.T.);
#765=ORIENTED_EDGE('',*,*,#567,.F.);
#766=ORIENTED_EDGE('',*,*,#568,.T.);
#767=ORIENTED_EDGE('',*,*,#569,.F.);
#768=ORIENTED_EDGE('',*,*,#570,.F.);
#769=ORIENTED_EDGE('',*,*,#571,.F.);
#770=ORIENTED_EDGE('',*,*,#570,.T.);
#771=ORIENTED_EDGE('',*,*,#572,.F.);
#772=ORIENTED_EDGE('',*,*,#573,.F.);
#773=ORIENTED_EDGE('',*,*,#574,.F.);
#774=ORIENTED_EDGE('',*,*,#573,.T.);
#775=ORIENTED_EDGE('',*,*,#575,.F.);
#776=ORIENTED_EDGE('',*,*,#576,.F.);
#777=ORIENTED_EDGE('',*,*,#577,.F.);
#778=ORIENTED_EDGE('',*,*,#576,.T.);
#779=ORIENTED_EDGE('',*,*,#578,.F.);
#780=ORIENTED_EDGE('',*,*,#568,.F.);
#781=ORIENTED_EDGE('',*,*,#577,.T.);
#782=ORIENTED_EDGE('',*,*,#567,.T.);
#783=ORIENTED_EDGE('',*,*,#571,.T.);
#784=ORIENTED_EDGE('',*,*,#574,.T.);
#785=ORIENTED_EDGE('',*,*,#578,.T.);
#786=ORIENTED_EDGE('',*,*,#575,.T.);
#787=ORIENTED_EDGE('',*,*,#572,.T.);
#788=ORIENTED_EDGE('',*,*,#569,.T.);
#789=ORIENTED_EDGE('',*,*,#579,.T.);
#790=ORIENTED_EDGE('',*,*,#580,.T.);
#791=ORIENTED_EDGE('',*,*,#581,.F.);
#792=ORIENTED_EDGE('',*,*,#582,.F.);
#793=ORIENTED_EDGE('',*,*,#583,.T.);
#794=ORIENTED_EDGE('',*,*,#582,.T.);
#795=ORIENTED_EDGE('',*,*,#584,.F.);
#796=ORIENTED_EDGE('',*,*,#585,.F.);
#797=ORIENTED_EDGE('',*,*,#586,.T.);
#798=ORIENTED_EDGE('',*,*,#585,.T.);
#799=ORIENTED_EDGE('',*,*,#587,.F.);
#800=ORIENTED_EDGE('',*,*,#588,.F.);
#801=ORIENTED_EDGE('',*,*,#589,.T.);
#802=ORIENTED_EDGE('',*,*,#588,.T.);
#803=ORIENTED_EDGE('',*,*,#590,.F.);
#804=ORIENTED_EDGE('',*,*,#580,.F.);
#805=ORIENTED_EDGE('',*,*,#589,.F.);
#806=ORIENTED_EDGE('',*,*,#579,.F.);
#807=ORIENTED_EDGE('',*,*,#583,.F.);
#808=ORIENTED_EDGE('',*,*,#586,.F.);
#809=ORIENTED_EDGE('',*,*,#590,.T.);
#810=ORIENTED_EDGE('',*,*,#587,.T.);
#811=ORIENTED_EDGE('',*,*,#584,.T.);
#812=ORIENTED_EDGE('',*,*,#581,.T.);
#813=ORIENTED_EDGE('',*,*,#591,.F.);
#814=ORIENTED_EDGE('',*,*,#592,.T.);
#815=ORIENTED_EDGE('',*,*,#593,.F.);
#816=ORIENTED_EDGE('',*,*,#594,.F.);
#817=ORIENTED_EDGE('',*,*,#595,.F.);
#818=ORIENTED_EDGE('',*,*,#594,.T.);
#819=ORIENTED_EDGE('',*,*,#596,.F.);
#820=ORIENTED_EDGE('',*,*,#597,.F.);
#821=ORIENTED_EDGE('',*,*,#598,.F.);
#822=ORIENTED_EDGE('',*,*,#597,.T.);
#823=ORIENTED_EDGE('',*,*,#599,.F.);
#824=ORIENTED_EDGE('',*,*,#600,.F.);
#825=ORIENTED_EDGE('',*,*,#601,.F.);
#826=ORIENTED_EDGE('',*,*,#600,.T.);
#827=ORIENTED_EDGE('',*,*,#602,.F.);
#828=ORIENTED_EDGE('',*,*,#592,.F.);
#829=ORIENTED_EDGE('',*,*,#601,.T.);
#830=ORIENTED_EDGE('',*,*,#591,.T.);
#831=ORIENTED_EDGE('',*,*,#595,.T.);
#832=ORIENTED_EDGE('',*,*,#598,.T.);
#833=ORIENTED_EDGE('',*,*,#602,.T.);
#834=ORIENTED_EDGE('',*,*,#599,.T.);
#835=ORIENTED_EDGE('',*,*,#596,.T.);
#836=ORIENTED_EDGE('',*,*,#593,.T.);
#837=ORIENTED_EDGE('',*,*,#603,.T.);
#838=ORIENTED_EDGE('',*,*,#604,.T.);
#839=ORIENTED_EDGE('',*,*,#605,.F.);
#840=ORIENTED_EDGE('',*,*,#606,.F.);
#841=ORIENTED_EDGE('',*,*,#607,.T.);
#842=ORIENTED_EDGE('',*,*,#606,.T.);
#843=ORIENTED_EDGE('',*,*,#608,.F.);
#844=ORIENTED_EDGE('',*,*,#609,.F.);
#845=ORIENTED_EDGE('',*,*,#610,.T.);
#846=ORIENTED_EDGE('',*,*,#609,.T.);
#847=ORIENTED_EDGE('',*,*,#611,.F.);
#848=ORIENTED_EDGE('',*,*,#612,.F.);
#849=ORIENTED_EDGE('',*,*,#613,.T.);
#850=ORIENTED_EDGE('',*,*,#612,.T.);
#851=ORIENTED_EDGE('',*,*,#614,.F.);
#852=ORIENTED_EDGE('',*,*,#604,.F.);
#853=ORIENTED_EDGE('',*,*,#613,.F.);
#854=ORIENTED_EDGE('',*,*,#603,.F.);
#855=ORIENTED_EDGE('',*,*,#607,.F.);
#856=ORIENTED_EDGE('',*,*,#610,.F.);
#857=ORIENTED_EDGE('',*,*,#614,.T.);
#858=ORIENTED_EDGE('',*,*,#611,.T.);
#859=ORIENTED_EDGE('',*,*,#608,.T.);
#860=ORIENTED_EDGE('',*,*,#605,.T.);
#861=CYLINDRICAL_SURFACE('',#922,9.8);
#862=CYLINDRICAL_SURFACE('',#929,1.5);
#863=CYLINDRICAL_SURFACE('',#932,1.5);
#864=CYLINDRICAL_SURFACE('',#939,9.8);
#865=ADVANCED_FACE('',(#74),#861,.F.);
#866=ADVANCED_FACE('',(#75),#862,.F.);
#867=ADVANCED_FACE('',(#76),#863,.F.);
#868=ADVANCED_FACE('',(#77),#27,.F.);
#869=ADVANCED_FACE('',(#78),#28,.F.);
#870=ADVANCED_FACE('',(#79),#29,.F.);
#871=ADVANCED_FACE('',(#80),#864,.F.);
#872=ADVANCED_FACE('',(#81),#30,.F.);
#873=ADVANCED_FACE('',(#82),#31,.F.);
#874=ADVANCED_FACE('',(#83),#32,.F.);
#875=ADVANCED_FACE('',(#84),#33,.F.);
#876=ADVANCED_FACE('',(#85),#34,.F.);
#877=ADVANCED_FACE('',(#86,#23),#35,.F.);
#878=ADVANCED_FACE('',(#87),#36,.F.);
#879=ADVANCED_FACE('',(#88),#37,.F.);
#880=ADVANCED_FACE('',(#89),#38,.F.);
#881=ADVANCED_FACE('',(#90,#24),#39,.F.);
#882=ADVANCED_FACE('',(#91),#40,.F.);
#883=ADVANCED_FACE('',(#92),#41,.T.);
#884=ADVANCED_FACE('',(#93),#42,.T.);
#885=ADVANCED_FACE('',(#94),#43,.T.);
#886=ADVANCED_FACE('',(#95),#44,.T.);
#887=ADVANCED_FACE('',(#96),#45,.F.);
#888=ADVANCED_FACE('',(#97),#46,.T.);
#889=ADVANCED_FACE('',(#98),#47,.T.);
#890=ADVANCED_FACE('',(#99),#48,.T.);
#891=ADVANCED_FACE('',(#100,#25,#26),#49,.F.);
#892=ADVANCED_FACE('',(#101),#50,.T.);
#893=ADVANCED_FACE('',(#102),#51,.T.);
#894=ADVANCED_FACE('',(#103),#52,.T.);
#895=ADVANCED_FACE('',(#104),#53,.T.);
#896=ADVANCED_FACE('',(#105),#54,.T.);
#897=ADVANCED_FACE('',(#106),#55,.T.);
#898=ADVANCED_FACE('',(#107),#56,.T.);
#899=ADVANCED_FACE('',(#108),#57,.T.);
#900=ADVANCED_FACE('',(#109),#58,.T.);
#901=ADVANCED_FACE('',(#110),#59,.T.);
#902=ADVANCED_FACE('',(#111),#60,.T.);
#903=ADVANCED_FACE('',(#112),#61,.T.);
#904=ADVANCED_FACE('',(#113),#62,.T.);
#905=ADVANCED_FACE('',(#114),#63,.T.);
#906=ADVANCED_FACE('',(#115),#64,.T.);
#907=ADVANCED_FACE('',(#116),#65,.T.);
#908=ADVANCED_FACE('',(#117),#66,.T.);
#909=ADVANCED_FACE('',(#118),#67,.T.);
#910=ADVANCED_FACE('',(#119),#68,.T.);
#911=ADVANCED_FACE('',(#120),#69,.T.);
#912=ADVANCED_FACE('',(#121),#70,.T.);
#913=ADVANCED_FACE('',(#122),#71,.T.);
#914=ADVANCED_FACE('',(#123),#72,.T.);
#915=ADVANCED_FACE('',(#124),#73,.T.);
#916=CLOSED_SHELL('',(#865,#866,#867,#868,#869,#870,#871,#872,#873,#874,
#875,#876,#877,#878,#879,#880,#881,#882,#883,#884,#885,#886,#887,#888,#889,
#890,#891));
#917=CLOSED_SHELL('',(#892,#893,#894,#895,#896,#897));
#918=CLOSED_SHELL('',(#898,#899,#900,#901,#902,#903));
#919=CLOSED_SHELL('',(#904,#905,#906,#907,#908,#909));
#920=CLOSED_SHELL('',(#910,#911,#912,#913,#914,#915));
#921=AXIS2_PLACEMENT_3D('',#1232,#989,#990);
#922=AXIS2_PLACEMENT_3D('',#1233,#991,#992);
#923=AXIS2_PLACEMENT_3D('',#1238,#994,#995);
#924=AXIS2_PLACEMENT_3D('',#1242,#997,#998);
#925=AXIS2_PLACEMENT_3D('',#1246,#1000,#1001);
#926=AXIS2_PLACEMENT_3D('',#1250,#1003,#1004);
#927=AXIS2_PLACEMENT_3D('',#1254,#1006,#1007);
#928=AXIS2_PLACEMENT_3D('',#1257,#1009,#1010);
#929=AXIS2_PLACEMENT_3D('',#1258,#1011,#1012);
#930=AXIS2_PLACEMENT_3D('',#1260,#1013,#1014);
#931=AXIS2_PLACEMENT_3D('',#1263,#1016,#1017);
#932=AXIS2_PLACEMENT_3D('',#1264,#1018,#1019);
#933=AXIS2_PLACEMENT_3D('',#1266,#1020,#1021);
#934=AXIS2_PLACEMENT_3D('',#1269,#1023,#1024);
#935=AXIS2_PLACEMENT_3D('',#1270,#1025,#1026);
#936=AXIS2_PLACEMENT_3D('',#1276,#1030,#1031);
#937=AXIS2_PLACEMENT_3D('',#1285,#1036,#1037);
#938=AXIS2_PLACEMENT_3D('',#1290,#1040,#1041);
#939=AXIS2_PLACEMENT_3D('',#1291,#1042,#1043);
#940=AXIS2_PLACEMENT_3D('',#1293,#1044,#1045);
#941=AXIS2_PLACEMENT_3D('',#1297,#1047,#1048);
#942=AXIS2_PLACEMENT_3D('',#1300,#1050,#1051);
#943=AXIS2_PLACEMENT_3D('',#1304,#1053,#1054);
#944=AXIS2_PLACEMENT_3D('',#1307,#1056,#1057);
#945=AXIS2_PLACEMENT_3D('',#1308,#1058,#1059);
#946=AXIS2_PLACEMENT_3D('',#1310,#1061,#1062);
#947=AXIS2_PLACEMENT_3D('',#1314,#1065,#1066);
#948=AXIS2_PLACEMENT_3D('',#1318,#1069,#1070);
#949=AXIS2_PLACEMENT_3D('',#1322,#1073,#1074);
#950=AXIS2_PLACEMENT_3D('',#1326,#1077,#1078);
#951=AXIS2_PLACEMENT_3D('',#1328,#1080,#1081);
#952=AXIS2_PLACEMENT_3D('',#1332,#1084,#1085);
#953=AXIS2_PLACEMENT_3D('',#1334,#1087,#1088);
#954=AXIS2_PLACEMENT_3D('',#1338,#1091,#1092);
#955=AXIS2_PLACEMENT_3D('',#1340,#1094,#1095);
#956=AXIS2_PLACEMENT_3D('',#1344,#1098,#1099);
#957=AXIS2_PLACEMENT_3D('',#1350,#1103,#1104);
#958=AXIS2_PLACEMENT_3D('',#1359,#1109,#1110);
#959=AXIS2_PLACEMENT_3D('',#1365,#1114,#1115);
#960=AXIS2_PLACEMENT_3D('',#1372,#1120,#1121);
#961=AXIS2_PLACEMENT_3D('',#1374,#1123,#1124);
#962=AXIS2_PLACEMENT_3D('',#1378,#1127,#1128);
#963=AXIS2_PLACEMENT_3D('',#1382,#1131,#1132);
#964=AXIS2_PLACEMENT_3D('',#1384,#1134,#1135);
#965=AXIS2_PLACEMENT_3D('',#1385,#1136,#1137);
#966=AXIS2_PLACEMENT_3D('',#1394,#1142,#1143);
#967=AXIS2_PLACEMENT_3D('',#1400,#1147,#1148);
#968=AXIS2_PLACEMENT_3D('',#1406,#1152,#1153);
#969=AXIS2_PLACEMENT_3D('',#1409,#1156,#1157);
#970=AXIS2_PLACEMENT_3D('',#1410,#1158,#1159);
#971=AXIS2_PLACEMENT_3D('',#1411,#1160,#1161);
#972=AXIS2_PLACEMENT_3D('',#1420,#1166,#1167);
#973=AXIS2_PLACEMENT_3D('',#1426,#1171,#1172);
#974=AXIS2_PLACEMENT_3D('',#1432,#1176,#1177);
#975=AXIS2_PLACEMENT_3D('',#1435,#1180,#1181);
#976=AXIS2_PLACEMENT_3D('',#1436,#1182,#1183);
#977=AXIS2_PLACEMENT_3D('',#1437,#1184,#1185);
#978=AXIS2_PLACEMENT_3D('',#1446,#1190,#1191);
#979=AXIS2_PLACEMENT_3D('',#1452,#1195,#1196);
#980=AXIS2_PLACEMENT_3D('',#1458,#1200,#1201);
#981=AXIS2_PLACEMENT_3D('',#1461,#1204,#1205);
#982=AXIS2_PLACEMENT_3D('',#1462,#1206,#1207);
#983=AXIS2_PLACEMENT_3D('',#1463,#1208,#1209);
#984=AXIS2_PLACEMENT_3D('',#1472,#1214,#1215);
#985=AXIS2_PLACEMENT_3D('',#1478,#1219,#1220);
#986=AXIS2_PLACEMENT_3D('',#1484,#1224,#1225);
#987=AXIS2_PLACEMENT_3D('',#1487,#1228,#1229);
#988=AXIS2_PLACEMENT_3D('',#1488,#1230,#1231);
#989=DIRECTION('axis',(0.,0.,1.));
#990=DIRECTION('refdir',(1.,0.,0.));
#991=DIRECTION('center_axis',(1.,0.,0.));
#992=DIRECTION('ref_axis',(0.,0.,-1.));
#993=DIRECTION('',(-1.,0.,0.));
#994=DIRECTION('center_axis',(1.,0.,0.));
#995=DIRECTION('ref_axis',(0.,0.,-1.));
#996=DIRECTION('',(-1.,0.,0.));
#997=DIRECTION('center_axis',(-1.,0.,0.));
#998=DIRECTION('ref_axis',(0.,0.,-1.));
#999=DIRECTION('',(-1.,0.,0.));
#1000=DIRECTION('center_axis',(1.,0.,0.));
#1001=DIRECTION('ref_axis',(0.,0.,-1.));
#1002=DIRECTION('',(-1.,0.,0.));
#1003=DIRECTION('center_axis',(-1.,0.,0.));
#1004=DIRECTION('ref_axis',(0.,0.,-1.));
#1005=DIRECTION('',(-1.,0.,0.));
#1006=DIRECTION('center_axis',(-1.,0.,0.));
#1007=DIRECTION('ref_axis',(0.,0.,-1.));
#1008=DIRECTION('',(-1.,0.,0.));
#1009=DIRECTION('center_axis',(-1.,0.,0.));
#1010=DIRECTION('ref_axis',(0.,0.,-1.));
#1011=DIRECTION('center_axis',(-6.9036575738772E-61,6.31088724176809E-30,
-1.));
#1012=DIRECTION('ref_axis',(1.,-1.25493423327962E-60,-6.90365757387721E-61));
#1013=DIRECTION('center_axis',(-6.9036575738772E-61,6.31088724176809E-30,
-1.));
#1014=DIRECTION('ref_axis',(1.,-1.25493423327962E-60,-6.90365757387721E-61));
#1015=DIRECTION('',(-6.9036575738772E-61,6.31088724176809E-30,-1.));
#1016=DIRECTION('center_axis',(-6.9036575738772E-61,6.31088724176809E-30,
-1.));
#1017=DIRECTION('ref_axis',(1.,-1.25493423327962E-60,-6.90365757387721E-61));
#1018=DIRECTION('center_axis',(-6.9036575738772E-61,6.31088724176809E-30,
-1.));
#1019=DIRECTION('ref_axis',(1.,-1.25493423327962E-60,-6.90365757387721E-61));
#1020=DIRECTION('center_axis',(-6.9036575738772E-61,6.31088724176809E-30,
-1.));
#1021=DIRECTION('ref_axis',(1.,-1.25493423327962E-60,-6.90365757387721E-61));
#1022=DIRECTION('',(-6.9036575738772E-61,6.31088724176809E-30,-1.));
#1023=DIRECTION('center_axis',(-6.9036575738772E-61,6.31088724176809E-30,
-1.));
#1024=DIRECTION('ref_axis',(1.,-1.25493423327962E-60,-6.90365757387721E-61));
#1025=DIRECTION('center_axis',(0.,0.,-1.));
#1026=DIRECTION('ref_axis',(-1.,0.,0.));
#1027=DIRECTION('',(0.,-1.,0.));
#1028=DIRECTION('',(-1.,0.,0.));
#1029=DIRECTION('',(0.,1.,0.));
#1030=DIRECTION('center_axis',(0.,0.,-1.));
#1031=DIRECTION('ref_axis',(-1.,0.,0.));
#1032=DIRECTION('',(1.,0.,0.));
#1033=DIRECTION('',(0.,1.,0.));
#1034=DIRECTION('',(1.,0.,0.));
#1035=DIRECTION('',(0.,-1.,0.));
#1036=DIRECTION('center_axis',(-1.,0.,0.));
#1037=DIRECTION('ref_axis',(0.,1.,0.));
#1038=DIRECTION('',(0.,0.,-1.));
#1039=DIRECTION('',(0.,1.,0.));
#1040=DIRECTION('center_axis',(1.,0.,0.));
#1041=DIRECTION('ref_axis',(0.,0.,-1.));
#1042=DIRECTION('center_axis',(1.,0.,0.));
#1043=DIRECTION('ref_axis',(0.,0.,-1.));
#1044=DIRECTION('center_axis',(-1.,0.,0.));
#1045=DIRECTION('ref_axis',(0.,0.,-1.));
#1046=DIRECTION('',(1.,0.,0.));
#1047=DIRECTION('center_axis',(-1.,0.,0.));
#1048=DIRECTION('ref_axis',(0.,0.,-1.));
#1049=DIRECTION('',(1.,0.,0.));
#1050=DIRECTION('center_axis',(-1.,0.,0.));
#1051=DIRECTION('ref_axis',(0.,0.,-1.));
#1052=DIRECTION('',(1.,0.,0.));
#1053=DIRECTION('center_axis',(-1.,0.,0.));
#1054=DIRECTION('ref_axis',(0.,0.,-1.));
#1055=DIRECTION('',(1.,0.,0.));
#1056=DIRECTION('center_axis',(1.,0.,0.));
#1057=DIRECTION('ref_axis',(0.,0.,-1.));
#1058=DIRECTION('center_axis',(1.,0.,0.));
#1059=DIRECTION('ref_axis',(0.,-1.,0.));
#1060=DIRECTION('',(0.,-1.,0.));
#1061=DIRECTION('center_axis',(-1.,0.,0.));
#1062=DIRECTION('ref_axis',(0.,1.,0.));
#1063=DIRECTION('',(0.,1.,0.));
#1064=DIRECTION('',(0.,0.,1.));
#1065=DIRECTION('center_axis',(1.,0.,0.));
#1066=DIRECTION('ref_axis',(0.,-1.,0.));
#1067=DIRECTION('',(0.,-1.,0.));
#1068=DIRECTION('',(0.,0.,1.));
#1069=DIRECTION('center_axis',(1.,0.,0.));
#1070=DIRECTION('ref_axis',(0.,-1.,0.));
#1071=DIRECTION('',(0.,0.,-1.));
#1072=DIRECTION('',(0.,-1.,0.));
#1073=DIRECTION('center_axis',(0.,0.,-1.));
#1074=DIRECTION('ref_axis',(-1.,0.,0.));
#1075=DIRECTION('',(0.,1.,0.));
#1076=DIRECTION('',(1.,0.,0.));
#1077=DIRECTION('center_axis',(0.,0.,-1.));
#1078=DIRECTION('ref_axis',(-1.,0.,0.));
#1079=DIRECTION('',(0.,-1.,0.));
#1080=DIRECTION('center_axis',(0.,0.,-1.));
#1081=DIRECTION('ref_axis',(-1.,0.,0.));
#1082=DIRECTION('',(-1.,0.,0.));
#1083=DIRECTION('',(0.,1.,0.));
#1084=DIRECTION('center_axis',(-1.,0.,0.));
#1085=DIRECTION('ref_axis',(0.,1.,0.));
#1086=DIRECTION('',(0.,1.,0.));
#1087=DIRECTION('center_axis',(0.,0.,-1.));
#1088=DIRECTION('ref_axis',(-1.,0.,0.));
#1089=DIRECTION('',(1.,0.,0.));
#1090=DIRECTION('',(0.,-1.,0.));
#1091=DIRECTION('center_axis',(0.,0.,-1.));
#1092=DIRECTION('ref_axis',(-1.,0.,0.));
#1093=DIRECTION('',(0.,-1.,0.));
#1094=DIRECTION('center_axis',(0.,0.,-1.));
#1095=DIRECTION('ref_axis',(-1.,0.,0.));
#1096=DIRECTION('',(0.,-1.,0.));
#1097=DIRECTION('',(-1.,0.,0.));
#1098=DIRECTION('center_axis',(1.,0.,0.));
#1099=DIRECTION('ref_axis',(0.,0.,-1.));
#1100=DIRECTION('',(0.,0.,-1.));
#1101=DIRECTION('',(0.,1.,0.));
#1102=DIRECTION('',(0.,0.,1.));
#1103=DIRECTION('center_axis',(0.,0.,1.));
#1104=DIRECTION('ref_axis',(1.,0.,0.));
#1105=DIRECTION('',(0.,-1.,0.));
#1106=DIRECTION('',(-1.,0.,0.));
#1107=DIRECTION('',(0.,-1.,0.));
#1108=DIRECTION('',(1.,0.,0.));
#1109=DIRECTION('center_axis',(0.,0.,1.));
#1110=DIRECTION('ref_axis',(1.,0.,0.));
#1111=DIRECTION('',(1.,0.,0.));
#1112=DIRECTION('',(0.,1.,0.));
#1113=DIRECTION('',(-1.,0.,0.));
#1114=DIRECTION('center_axis',(0.,-1.,0.));
#1115=DIRECTION('ref_axis',(1.,0.,0.));
#1116=DIRECTION('',(0.,0.,-1.));
#1117=DIRECTION('',(-1.,0.,0.));
#1118=DIRECTION('',(0.,0.,1.));
#1119=DIRECTION('',(0.,0.,1.));
#1120=DIRECTION('center_axis',(1.,0.,0.));
#1121=DIRECTION('ref_axis',(0.,0.,-1.));
#1122=DIRECTION('',(0.,0.,-1.));
#1123=DIRECTION('center_axis',(-1.,0.,0.));
#1124=DIRECTION('ref_axis',(0.,-1.,0.));
#1125=DIRECTION('',(0.,1.,0.));
#1126=DIRECTION('',(0.,0.,1.));
#1127=DIRECTION('center_axis',(0.,1.,0.));
#1128=DIRECTION('ref_axis',(-1.,0.,0.));
#1129=DIRECTION('',(0.,0.,-1.));
#1130=DIRECTION('',(1.,0.,0.));
#1131=DIRECTION('center_axis',(1.,0.,0.));
#1132=DIRECTION('ref_axis',(0.,1.,0.));
#1133=DIRECTION('',(0.,-1.,0.));
#1134=DIRECTION('center_axis',(0.,0.,1.));
#1135=DIRECTION('ref_axis',(1.,0.,0.));
#1136=DIRECTION('center_axis',(9.8607613152627E-32,-1.,-9.25185853854623E-17));
#1137=DIRECTION('ref_axis',(1.,9.8607613152627E-32,3.73670467449741E-44));
#1138=DIRECTION('',(1.,9.8607613152627E-32,5.8378312976657E-45));
#1139=DIRECTION('',(-1.52902098060443E-45,-9.25185853854623E-17,1.));
#1140=DIRECTION('',(-1.,-9.8607613152627E-32,-1.53814401748154E-45));
#1141=DIRECTION('',(1.52902098060443E-45,9.25185853854623E-17,-1.));
#1142=DIRECTION('center_axis',(-1.,-9.8607613152627E-32,-1.53814401748155E-45));
#1143=DIRECTION('ref_axis',(9.8607613152627E-32,-1.,-1.26217744835362E-29));
#1144=DIRECTION('',(9.8607613152627E-32,-1.,-1.26217744835362E-29));
#1145=DIRECTION('',(-9.8607613152627E-32,1.,9.25185853854623E-17));
#1146=DIRECTION('',(-1.52902098060443E-45,-9.25185853854623E-17,1.));
#1147=DIRECTION('center_axis',(-9.8607613152627E-32,1.,9.25185853854623E-17));
#1148=DIRECTION('ref_axis',(-1.,-9.8607613152627E-32,-5.8378312976657E-45));
#1149=DIRECTION('',(-1.,-9.8607613152627E-32,-5.8378312976657E-45));
#1150=DIRECTION('',(1.,9.8607613152627E-32,1.53814401748154E-45));
#1151=DIRECTION('',(1.52902098060443E-45,9.25185853854623E-17,-1.));
#1152=DIRECTION('center_axis',(1.,9.8607613152627E-32,1.53814401748155E-45));
#1153=DIRECTION('ref_axis',(-9.8607613152627E-32,1.,1.26217744835362E-29));
#1154=DIRECTION('',(9.8607613152627E-32,-1.,-1.26217744835362E-29));
#1155=DIRECTION('',(-9.8607613152627E-32,1.,1.26217744835362E-29));
#1156=DIRECTION('center_axis',(5.8378312976657E-45,1.26217744835362E-29,
-1.));
#1157=DIRECTION('ref_axis',(-1.,-9.8607613152627E-32,-5.8378312976657E-45));
#1158=DIRECTION('center_axis',(-1.52902098060443E-45,-9.25185853854623E-17,
1.));
#1159=DIRECTION('ref_axis',(-1.,-9.8607613152627E-32,-1.53814401748155E-45));
#1160=DIRECTION('center_axis',(-9.8607613152627E-32,1.,9.25185853854623E-17));
#1161=DIRECTION('ref_axis',(-1.,-9.8607613152627E-32,-5.8378312976657E-45));
#1162=DIRECTION('',(-1.,-9.8607613152627E-32,-5.8378312976657E-45));
#1163=DIRECTION('',(-1.52902098060443E-45,-9.25185853854623E-17,1.));
#1164=DIRECTION('',(1.,9.8607613152627E-32,1.53814401748154E-45));
#1165=DIRECTION('',(1.52902098060443E-45,9.25185853854623E-17,-1.));
#1166=DIRECTION('center_axis',(1.,9.8607613152627E-32,1.53814401748155E-45));
#1167=DIRECTION('ref_axis',(-9.8607613152627E-32,1.,1.26217744835362E-29));
#1168=DIRECTION('',(-9.8607613152627E-32,1.,1.26217744835362E-29));
#1169=DIRECTION('',(9.8607613152627E-32,-1.,-9.25185853854623E-17));
#1170=DIRECTION('',(-1.52902098060443E-45,-9.25185853854623E-17,1.));
#1171=DIRECTION('center_axis',(9.8607613152627E-32,-1.,-9.25185853854623E-17));
#1172=DIRECTION('ref_axis',(1.,9.8607613152627E-32,3.73670467449741E-44));
#1173=DIRECTION('',(1.,9.8607613152627E-32,5.8378312976657E-45));
#1174=DIRECTION('',(-1.,-9.8607613152627E-32,-1.53814401748154E-45));
#1175=DIRECTION('',(1.52902098060443E-45,9.25185853854623E-17,-1.));
#1176=DIRECTION('center_axis',(-1.,-9.8607613152627E-32,-1.53814401748155E-45));
#1177=DIRECTION('ref_axis',(9.8607613152627E-32,-1.,-1.26217744835362E-29));
#1178=DIRECTION('',(9.8607613152627E-32,-1.,-1.26217744835362E-29));
#1179=DIRECTION('',(9.8607613152627E-32,-1.,-1.26217744835362E-29));
#1180=DIRECTION('center_axis',(5.8378312976657E-45,1.26217744835362E-29,
-1.));
#1181=DIRECTION('ref_axis',(-1.,-9.8607613152627E-32,-5.8378312976657E-45));
#1182=DIRECTION('center_axis',(-1.52902098060443E-45,-9.25185853854623E-17,
1.));
#1183=DIRECTION('ref_axis',(-1.,-9.8607613152627E-32,-1.53814401748155E-45));
#1184=DIRECTION('center_axis',(-2.77555756156289E-16,1.,9.25185853854623E-17));
#1185=DIRECTION('ref_axis',(-1.,-2.77555756156289E-16,-9.10844001811131E-45));
#1186=DIRECTION('',(-1.,-2.77555756156289E-16,-9.34107745847774E-45));
#1187=DIRECTION('',(-1.52902098060443E-45,-9.25185853854623E-17,1.));
#1188=DIRECTION('',(1.,2.77555756156289E-16,2.56790659251737E-32));
#1189=DIRECTION('',(1.52902098060443E-45,9.25185853854623E-17,-1.));
#1190=DIRECTION('center_axis',(1.,9.8607613152627E-32,1.53814401748155E-45));
#1191=DIRECTION('ref_axis',(-9.8607613152627E-32,1.,1.26217744835362E-29));
#1192=DIRECTION('',(9.8607613152627E-32,-1.,-1.26217744835362E-29));
#1193=DIRECTION('',(-9.8607613152627E-32,1.,1.26217744835362E-29));
#1194=DIRECTION('',(-1.52902098060443E-45,-9.25185853854623E-17,1.));
#1195=DIRECTION('center_axis',(1.11022302462516E-15,-1.,-9.25185853854623E-17));
#1196=DIRECTION('ref_axis',(1.,1.11022302462516E-15,5.3249341644343E-44));
#1197=DIRECTION('',(1.,1.11022302462516E-15,1.98508159409139E-44));
#1198=DIRECTION('',(-1.,-1.11022302462516E-15,-1.0271626370069E-31));
#1199=DIRECTION('',(1.52902098060443E-45,9.25185853854623E-17,-1.));
#1200=DIRECTION('center_axis',(-1.,-9.8607613152627E-32,-1.53814401748155E-45));
#1201=DIRECTION('ref_axis',(9.8607613152627E-32,-1.,-1.26217744835362E-29));
#1202=DIRECTION('',(9.8607613152627E-32,-1.,-1.26217744835362E-29));
#1203=DIRECTION('',(-9.8607613152627E-32,1.,9.25185853854623E-17));
#1204=DIRECTION('center_axis',(5.8378312976657E-45,1.26217744835362E-29,
-1.));
#1205=DIRECTION('ref_axis',(-1.,-9.8607613152627E-32,-5.8378312976657E-45));
#1206=DIRECTION('center_axis',(-1.52902098060443E-45,-9.25185853854623E-17,
1.));
#1207=DIRECTION('ref_axis',(-1.,-9.8607613152627E-32,-1.53814401748155E-45));
#1208=DIRECTION('center_axis',(2.77555756156289E-16,1.,9.25185853854623E-17));
#1209=DIRECTION('ref_axis',(-1.,2.77555756156289E-16,-2.10194769648723E-45));
#1210=DIRECTION('',(-1.,2.77555756156289E-16,-2.33458513685365E-45));
#1211=DIRECTION('',(-1.52902098060443E-45,-9.25185853854623E-17,1.));
#1212=DIRECTION('',(1.,-2.77555756156289E-16,-2.56790659251707E-32));
#1213=DIRECTION('',(1.52902098060443E-45,9.25185853854623E-17,-1.));
#1214=DIRECTION('center_axis',(1.,9.8607613152627E-32,1.53814401748155E-45));
#1215=DIRECTION('ref_axis',(-9.8607613152627E-32,1.,1.26217744835362E-29));
#1216=DIRECTION('',(-9.8607613152627E-32,1.,1.26217744835362E-29));
#1217=DIRECTION('',(9.8607613152627E-32,-1.,-9.25185853854623E-17));
#1218=DIRECTION('',(-1.52902098060443E-45,-9.25185853854623E-17,1.));
#1219=DIRECTION('center_axis',(9.8607613152627E-32,-1.,-9.25185853854623E-17));
#1220=DIRECTION('ref_axis',(1.,9.8607613152627E-32,4.08702929057861E-44));
#1221=DIRECTION('',(1.,9.8607613152627E-32,5.8378312976657E-45));
#1222=DIRECTION('',(-1.,-9.8607613152627E-32,-1.53814401748154E-45));
#1223=DIRECTION('',(1.52902098060443E-45,9.25185853854623E-17,-1.));
#1224=DIRECTION('center_axis',(-1.,-9.8607613152627E-32,-1.53814401748155E-45));
#1225=DIRECTION('ref_axis',(9.8607613152627E-32,-1.,-1.26217744835362E-29));
#1226=DIRECTION('',(9.8607613152627E-32,-1.,-1.26217744835362E-29));
#1227=DIRECTION('',(9.8607613152627E-32,-1.,-1.26217744835362E-29));
#1228=DIRECTION('center_axis',(5.8378312976657E-45,1.26217744835362E-29,
-1.));
#1229=DIRECTION('ref_axis',(-1.,-9.8607613152627E-32,-5.8378312976657E-45));
#1230=DIRECTION('center_axis',(-1.52902098060443E-45,-9.25185853854623E-17,
1.));
#1231=DIRECTION('ref_axis',(-1.,-9.8607613152627E-32,-1.53814401748155E-45));
#1232=CARTESIAN_POINT('',(0.,0.,0.));
#1233=CARTESIAN_POINT('Origin',(0.,9.49010872624236,11.3));
#1234=CARTESIAN_POINT('',(7.5,-0.00989127375746746,8.89375811689611));
#1235=CARTESIAN_POINT('',(-7.5,-0.00989127375746746,8.89375811689611));
#1236=CARTESIAN_POINT('',(0.,-0.00989127375746746,8.89375811689611));
#1237=CARTESIAN_POINT('',(7.5,6.71882743391396,1.90000000003081));
#1238=CARTESIAN_POINT('Origin',(7.5,9.49010872624236,11.3));
#1239=CARTESIAN_POINT('',(19.,6.71882743391396,1.90000000003081));
#1240=CARTESIAN_POINT('',(0.,6.71882743413207,1.9));
#1241=CARTESIAN_POINT('',(19.,16.9967724325785,5.00000000000055));
#1242=CARTESIAN_POINT('Origin',(19.,9.49010872624236,11.3));
#1243=CARTESIAN_POINT('',(7.5,16.9967724325785,5.00000000000055));
#1244=CARTESIAN_POINT('',(0.,16.9967724325769,5.));
#1245=CARTESIAN_POINT('',(7.5,19.2035015423985,10.0000000000063));
#1246=CARTESIAN_POINT('Origin',(7.5,9.49010872624236,11.3));
#1247=CARTESIAN_POINT('',(-7.5,19.2035015423985,10.0000000000063));
#1248=CARTESIAN_POINT('',(0.,19.2035015423494,10.));
#1249=CARTESIAN_POINT('',(-7.5,16.9967724325785,5.00000000000055));
#1250=CARTESIAN_POINT('Origin',(-7.5,9.49010872624236,11.3));
#1251=CARTESIAN_POINT('',(-19.,16.9967724325785,5.00000000000055));
#1252=CARTESIAN_POINT('',(0.,16.9967724325769,5.));
#1253=CARTESIAN_POINT('',(-19.,6.71882743391396,1.90000000003081));
#1254=CARTESIAN_POINT('Origin',(-19.,9.49010872624236,11.3));
#1255=CARTESIAN_POINT('',(-7.5,6.71882743391396,1.90000000003081));
#1256=CARTESIAN_POINT('',(0.,6.71882743413207,1.9));
#1257=CARTESIAN_POINT('Origin',(-7.5,9.49010872624236,11.3));
#1258=CARTESIAN_POINT('Origin',(12.5,-0.00989127375746746,0.500000000000003));
#1259=CARTESIAN_POINT('',(11.,-0.00989127375746727,1.9));
#1260=CARTESIAN_POINT('Origin',(12.5,-0.00989127375746746,1.9));
#1261=CARTESIAN_POINT('',(11.,-0.00989127375746727,-4.44089209850063E-15));
#1262=CARTESIAN_POINT('',(11.,-0.00989127375746727,0.500000000000003));
#1263=CARTESIAN_POINT('Origin',(12.5,-0.00989127375746746,-4.44089209850063E-15));
#1264=CARTESIAN_POINT('Origin',(-12.5,-0.00989127375746746,0.500000000000003));
#1265=CARTESIAN_POINT('',(-14.,-0.00989127375746727,1.9));
#1266=CARTESIAN_POINT('Origin',(-12.5,-0.00989127375746746,1.9));
#1267=CARTESIAN_POINT('',(-14.,-0.00989127375746727,-4.44089209850063E-15));
#1268=CARTESIAN_POINT('',(-14.,-0.00989127375746727,0.500000000000003));
#1269=CARTESIAN_POINT('Origin',(-12.5,-0.00989127375746746,-4.44089209850063E-15));
#1270=CARTESIAN_POINT('Origin',(0.,0.,10.));
#1271=CARTESIAN_POINT('',(7.5,19.6,10.));
#1272=CARTESIAN_POINT('',(7.5,-10.,10.));
#1273=CARTESIAN_POINT('',(-7.5,19.6,10.));
#1274=CARTESIAN_POINT('',(11.,19.6,10.));
#1275=CARTESIAN_POINT('',(-7.5,10.,10.));
#1276=CARTESIAN_POINT('Origin',(0.,0.,10.));
#1277=CARTESIAN_POINT('',(-7.5,-19.2232840899134,10.0000000000063));
#1278=CARTESIAN_POINT('',(7.5,-19.2232840899134,10.0000000000063));
#1279=CARTESIAN_POINT('',(0.,-19.2232840898644,10.));
#1280=CARTESIAN_POINT('',(-7.5,-19.6,10.));
#1281=CARTESIAN_POINT('',(-7.5,10.,10.));
#1282=CARTESIAN_POINT('',(7.5,-19.6,10.));
#1283=CARTESIAN_POINT('',(-11.,-19.6,10.));
#1284=CARTESIAN_POINT('',(7.5,-10.,10.));
#1285=CARTESIAN_POINT('Origin',(7.5,-20.,15.));
#1286=CARTESIAN_POINT('',(7.5,-19.6,5.));
#1287=CARTESIAN_POINT('',(7.5,-19.6,7.5));
#1288=CARTESIAN_POINT('',(7.5,-17.0165549800934,5.00000000000055));
#1289=CARTESIAN_POINT('',(7.5,-17.9876563094256,5.));
#1290=CARTESIAN_POINT('Origin',(7.5,-9.5098912737573,11.3));
#1291=CARTESIAN_POINT('Origin',(0.,-9.5098912737573,11.3));
#1292=CARTESIAN_POINT('',(-7.5,-6.73860998142889,1.90000000003081));
#1293=CARTESIAN_POINT('Origin',(-7.5,-9.5098912737573,11.3));
#1294=CARTESIAN_POINT('',(-19.,-6.73860998142889,1.90000000003081));
#1295=CARTESIAN_POINT('',(0.,-6.738609981647,1.9));
#1296=CARTESIAN_POINT('',(-19.,-17.0165549800934,5.00000000000055));
#1297=CARTESIAN_POINT('Origin',(-19.,-9.5098912737573,11.3));
#1298=CARTESIAN_POINT('',(-7.5,-17.0165549800934,5.00000000000055));
#1299=CARTESIAN_POINT('',(0.,-17.0165549800918,5.));
#1300=CARTESIAN_POINT('Origin',(-7.5,-9.5098912737573,11.3));
#1301=CARTESIAN_POINT('',(19.,-17.0165549800934,5.00000000000055));
#1302=CARTESIAN_POINT('',(0.,-17.0165549800918,5.));
#1303=CARTESIAN_POINT('',(19.,-6.73860998142889,1.90000000003081));
#1304=CARTESIAN_POINT('Origin',(19.,-9.5098912737573,11.3));
#1305=CARTESIAN_POINT('',(7.5,-6.73860998142889,1.90000000003081));
#1306=CARTESIAN_POINT('',(0.,-6.738609981647,1.9));
#1307=CARTESIAN_POINT('Origin',(7.5,-9.5098912737573,11.3));
#1308=CARTESIAN_POINT('Origin',(-7.5,20.,15.));
#1309=CARTESIAN_POINT('',(-7.5,10.,1.9));
#1310=CARTESIAN_POINT('Origin',(7.5,-20.,15.));
#1311=CARTESIAN_POINT('',(7.5,19.6,5.));
#1312=CARTESIAN_POINT('',(7.5,-17.9876563094256,5.));
#1313=CARTESIAN_POINT('',(7.5,19.6,7.5));
#1314=CARTESIAN_POINT('Origin',(-7.5,20.,15.));
#1315=CARTESIAN_POINT('',(-7.5,-19.6,5.));
#1316=CARTESIAN_POINT('',(-7.5,17.9678737619107,5.));
#1317=CARTESIAN_POINT('',(-7.5,-19.6,7.5));
#1318=CARTESIAN_POINT('Origin',(-7.5,20.,15.));
#1319=CARTESIAN_POINT('',(-7.5,19.6,5.));
#1320=CARTESIAN_POINT('',(-7.5,19.6,7.5));
#1321=CARTESIAN_POINT('',(-7.5,17.9678737619107,5.));
#1322=CARTESIAN_POINT('Origin',(0.,0.,5.));
#1323=CARTESIAN_POINT('',(-19.,-19.6,5.));
#1324=CARTESIAN_POINT('',(-19.,17.9678737619107,5.));
#1325=CARTESIAN_POINT('',(-11.,-19.6,5.));
#1326=CARTESIAN_POINT('Origin',(0.,0.,1.9));
#1327=CARTESIAN_POINT('',(-19.,-0.00494563687873373,1.9));
#1328=CARTESIAN_POINT('Origin',(0.,0.,5.));
#1329=CARTESIAN_POINT('',(-19.,19.6,5.));
#1330=CARTESIAN_POINT('',(11.,19.6,5.));
#1331=CARTESIAN_POINT('',(-19.,17.9678737619107,5.));
#1332=CARTESIAN_POINT('Origin',(7.5,-20.,15.));
#1333=CARTESIAN_POINT('',(7.5,-10.,1.9));
#1334=CARTESIAN_POINT('Origin',(0.,0.,5.));
#1335=CARTESIAN_POINT('',(19.,-19.6,5.));
#1336=CARTESIAN_POINT('',(-11.,-19.6,5.));
#1337=CARTESIAN_POINT('',(19.,20.,5.));
#1338=CARTESIAN_POINT('Origin',(0.,0.,1.9));
#1339=CARTESIAN_POINT('',(19.,-0.00494563687873373,1.9));
#1340=CARTESIAN_POINT('Origin',(0.,0.,5.));
#1341=CARTESIAN_POINT('',(19.,19.6,5.));
#1342=CARTESIAN_POINT('',(19.,20.,5.));
#1343=CARTESIAN_POINT('',(11.,19.6,5.));
#1344=CARTESIAN_POINT('Origin',(-19.,-0.00989127375746746,11.3));
#1345=CARTESIAN_POINT('',(-19.,19.6,15.));
#1346=CARTESIAN_POINT('',(-19.,19.6,5.64999999999999));
#1347=CARTESIAN_POINT('',(-19.,-19.6,15.));
#1348=CARTESIAN_POINT('',(-19.,-0.00494563687873373,15.));
#1349=CARTESIAN_POINT('',(-19.,-19.6,5.64999999999999));
#1350=CARTESIAN_POINT('Origin',(0.,0.,15.));
#1351=CARTESIAN_POINT('',(19.,19.6,15.));
#1352=CARTESIAN_POINT('',(19.,-19.6,15.));
#1353=CARTESIAN_POINT('',(19.,10.,15.));
#1354=CARTESIAN_POINT('',(22.2,-19.6,15.));
#1355=CARTESIAN_POINT('',(-11.,-19.6,15.));
#1356=CARTESIAN_POINT('',(22.2,19.6,15.));
#1357=CARTESIAN_POINT('',(22.2,-10.,15.));
#1358=CARTESIAN_POINT('',(11.,19.6,15.));
#1359=CARTESIAN_POINT('Origin',(0.,0.,15.));
#1360=CARTESIAN_POINT('',(-22.2,19.6,15.));
#1361=CARTESIAN_POINT('',(11.,19.6,15.));
#1362=CARTESIAN_POINT('',(-22.2,-19.6,15.));
#1363=CARTESIAN_POINT('',(-22.2,10.,15.));
#1364=CARTESIAN_POINT('',(-11.,-19.6,15.));
#1365=CARTESIAN_POINT('Origin',(-22.,-19.6,0.));
#1366=CARTESIAN_POINT('',(-22.2,-19.6,0.));
#1367=CARTESIAN_POINT('',(-22.2,-19.6,0.));
#1368=CARTESIAN_POINT('',(22.2,-19.6,0.));
#1369=CARTESIAN_POINT('',(-11.,-19.6,0.));
#1370=CARTESIAN_POINT('',(22.2,-19.6,0.));
#1371=CARTESIAN_POINT('',(19.,-19.6,5.64999999999999));
#1372=CARTESIAN_POINT('Origin',(19.,-0.00989127375746746,11.3));
#1373=CARTESIAN_POINT('',(19.,19.6,5.64999999999999));
#1374=CARTESIAN_POINT('Origin',(-22.2,20.,0.));
#1375=CARTESIAN_POINT('',(-22.2,19.6,0.));
#1376=CARTESIAN_POINT('',(-22.2,10.,0.));
#1377=CARTESIAN_POINT('',(-22.2,19.6,0.));
#1378=CARTESIAN_POINT('Origin',(22.,19.6,0.));
#1379=CARTESIAN_POINT('',(22.2,19.6,0.));
#1380=CARTESIAN_POINT('',(22.2,19.6,0.));
#1381=CARTESIAN_POINT('',(11.,19.6,0.));
#1382=CARTESIAN_POINT('Origin',(22.2,-20.,0.));
#1383=CARTESIAN_POINT('',(22.2,-10.,0.));
#1384=CARTESIAN_POINT('Origin',(0.,0.,0.));
#1385=CARTESIAN_POINT('Origin',(-26.,6.8,3.55086330709279E-14));
#1386=CARTESIAN_POINT('',(-22.,6.8,3.55271367880049E-14));
#1387=CARTESIAN_POINT('',(-26.45,6.8,3.55271367880051E-14));
#1388=CARTESIAN_POINT('',(-13.,6.8,3.55271367880051E-14));
#1389=CARTESIAN_POINT('',(-22.,6.8,1.50000000000004));
#1390=CARTESIAN_POINT('',(-22.,6.8,3.55086330709279E-14));
#1391=CARTESIAN_POINT('',(-26.45,6.8,1.50000000000004));
#1392=CARTESIAN_POINT('',(-13.,6.8,1.50000000000004));
#1393=CARTESIAN_POINT('',(-26.45,6.8,3.52310773147715E-14));
#1394=CARTESIAN_POINT('Origin',(-26.45,13.,3.5527136788005E-14));
#1395=CARTESIAN_POINT('',(-26.45,13.2,3.55271367880052E-14));
#1396=CARTESIAN_POINT('',(-26.45,6.5,3.55271367880051E-14));
#1397=CARTESIAN_POINT('',(-26.45,13.2,1.50000000000004));
#1398=CARTESIAN_POINT('',(-26.45,6.5,1.50000000000004));
#1399=CARTESIAN_POINT('',(-26.45,13.2,3.55456405050821E-14));
#1400=CARTESIAN_POINT('Origin',(-22.,13.2,3.55456405050821E-14));
#1401=CARTESIAN_POINT('',(-22.,13.2,3.5527136788005E-14));
#1402=CARTESIAN_POINT('',(-11.,13.2,3.55271367880052E-14));
#1403=CARTESIAN_POINT('',(-22.,13.2,1.50000000000004));
#1404=CARTESIAN_POINT('',(-11.,13.2,1.50000000000004));
#1405=CARTESIAN_POINT('',(-22.,13.2,3.58231962612385E-14));
#1406=CARTESIAN_POINT('Origin',(-22.,7.,3.5527136788005E-14));
#1407=CARTESIAN_POINT('',(-22.,13.,3.5527136788005E-14));
#1408=CARTESIAN_POINT('',(-22.,13.,1.50000000000004));
#1409=CARTESIAN_POINT('Origin',(-4.89993475124895E-35,2.71050543121376E-19,
3.5527136788005E-14));
#1410=CARTESIAN_POINT('Origin',(-4.89993474043433E-35,1.39252216528607E-16,
1.50000000000004));
#1411=CARTESIAN_POINT('Origin',(26.,13.2,3.55456405050821E-14));
#1412=CARTESIAN_POINT('',(26.45,13.2,3.55271367880052E-14));
#1413=CARTESIAN_POINT('',(22.,13.2,3.5527136788005E-14));
#1414=CARTESIAN_POINT('',(13.,13.2,3.55271367880052E-14));
#1415=CARTESIAN_POINT('',(22.,13.2,1.50000000000004));
#1416=CARTESIAN_POINT('',(22.,13.2,3.55456405050821E-14));
#1417=CARTESIAN_POINT('',(26.45,13.2,1.50000000000004));
#1418=CARTESIAN_POINT('',(13.,13.2,1.50000000000004));
#1419=CARTESIAN_POINT('',(26.45,13.2,3.58231962612385E-14));
#1420=CARTESIAN_POINT('Origin',(26.45,7.,3.5527136788005E-14));
#1421=CARTESIAN_POINT('',(26.45,6.8,3.55271367880051E-14));
#1422=CARTESIAN_POINT('',(26.45,3.5,3.55271367880051E-14));
#1423=CARTESIAN_POINT('',(26.45,6.8,1.50000000000004));
#1424=CARTESIAN_POINT('',(26.45,3.5,1.50000000000004));
#1425=CARTESIAN_POINT('',(26.45,6.8,3.55086330709279E-14));
#1426=CARTESIAN_POINT('Origin',(22.,6.8,3.55086330709279E-14));
#1427=CARTESIAN_POINT('',(22.,6.8,3.55271367880049E-14));
#1428=CARTESIAN_POINT('',(11.,6.8,3.55271367880051E-14));
#1429=CARTESIAN_POINT('',(22.,6.8,1.50000000000004));
#1430=CARTESIAN_POINT('',(11.,6.8,1.50000000000004));
#1431=CARTESIAN_POINT('',(22.,6.8,3.52310773147715E-14));
#1432=CARTESIAN_POINT('Origin',(22.,13.,3.5527136788005E-14));
#1433=CARTESIAN_POINT('',(22.,13.,3.5527136788005E-14));
#1434=CARTESIAN_POINT('',(22.,13.,1.50000000000004));
#1435=CARTESIAN_POINT('Origin',(-4.89993475124895E-35,2.71050543121376E-19,
3.5527136788005E-14));
#1436=CARTESIAN_POINT('Origin',(-4.89993474043433E-35,1.39252216528607E-16,
1.50000000000004));
#1437=CARTESIAN_POINT('Origin',(-22.,-6.8,3.55456405050821E-14));
#1438=CARTESIAN_POINT('',(-26.45,-6.8,3.55271367880049E-14));
#1439=CARTESIAN_POINT('',(-22.,-6.8,3.5527136788005E-14));
#1440=CARTESIAN_POINT('',(-11.,-6.79999999999999,3.55271367880049E-14));
#1441=CARTESIAN_POINT('',(-26.45,-6.8,1.50000000000004));
#1442=CARTESIAN_POINT('',(-26.45,-6.8,3.55456405050821E-14));
#1443=CARTESIAN_POINT('',(-22.,-6.8,1.50000000000004));
#1444=CARTESIAN_POINT('',(-11.,-6.79999999999999,1.50000000000004));
#1445=CARTESIAN_POINT('',(-22.,-6.8,3.58231962612385E-14));
#1446=CARTESIAN_POINT('Origin',(-22.,-13.,3.5527136788005E-14));
#1447=CARTESIAN_POINT('',(-22.,-13.2,3.55271367880049E-14));
#1448=CARTESIAN_POINT('',(-22.,-7.,3.5527136788005E-14));
#1449=CARTESIAN_POINT('',(-22.,-13.2,1.50000000000004));
#1450=CARTESIAN_POINT('',(-22.,-7.,1.50000000000004));
#1451=CARTESIAN_POINT('',(-22.,-13.2,3.55086330709279E-14));
#1452=CARTESIAN_POINT('Origin',(-26.,-13.2,3.55086330709279E-14));
#1453=CARTESIAN_POINT('',(-26.45,-13.2,3.55271367880048E-14));
#1454=CARTESIAN_POINT('',(-13.,-13.2,3.55271367880048E-14));
#1455=CARTESIAN_POINT('',(-26.45,-13.2,1.50000000000004));
#1456=CARTESIAN_POINT('',(-13.,-13.2,1.50000000000004));
#1457=CARTESIAN_POINT('',(-26.45,-13.2,3.52310773147715E-14));
#1458=CARTESIAN_POINT('Origin',(-26.45,-7.,3.5527136788005E-14));
#1459=CARTESIAN_POINT('',(-26.45,-3.5,3.5527136788005E-14));
#1460=CARTESIAN_POINT('',(-26.45,-3.5,1.50000000000004));
#1461=CARTESIAN_POINT('Origin',(-4.89993475124895E-35,2.71050543121376E-19,
3.5527136788005E-14));
#1462=CARTESIAN_POINT('Origin',(-4.89993474043433E-35,1.39252216528607E-16,
1.50000000000004));
#1463=CARTESIAN_POINT('Origin',(26.,-6.80000000000001,3.55456405050821E-14));
#1464=CARTESIAN_POINT('',(26.45,-6.80000000000001,3.55271367880049E-14));
#1465=CARTESIAN_POINT('',(22.,-6.80000000000001,3.5527136788005E-14));
#1466=CARTESIAN_POINT('',(13.,-6.80000000000001,3.55271367880049E-14));
#1467=CARTESIAN_POINT('',(22.,-6.80000000000001,1.50000000000004));
#1468=CARTESIAN_POINT('',(22.,-6.80000000000001,3.55456405050821E-14));
#1469=CARTESIAN_POINT('',(26.45,-6.80000000000001,1.50000000000004));
#1470=CARTESIAN_POINT('',(13.,-6.80000000000001,1.50000000000004));
#1471=CARTESIAN_POINT('',(26.45,-6.80000000000001,3.58231962612385E-14));
#1472=CARTESIAN_POINT('Origin',(26.45,-13.,3.5527136788005E-14));
#1473=CARTESIAN_POINT('',(26.45,-13.2,3.55271367880048E-14));
#1474=CARTESIAN_POINT('',(26.45,-6.50000000000001,3.55271367880049E-14));
#1475=CARTESIAN_POINT('',(26.45,-13.2,1.50000000000004));
#1476=CARTESIAN_POINT('',(26.45,-6.50000000000001,1.50000000000004));
#1477=CARTESIAN_POINT('',(26.45,-13.2,3.55086330709279E-14));
#1478=CARTESIAN_POINT('Origin',(22.,-13.2,3.55086330709279E-14));
#1479=CARTESIAN_POINT('',(22.,-13.2,3.55271367880049E-14));
#1480=CARTESIAN_POINT('',(11.,-13.2,3.55271367880048E-14));
#1481=CARTESIAN_POINT('',(22.,-13.2,1.50000000000004));
#1482=CARTESIAN_POINT('',(11.,-13.2,1.50000000000004));
#1483=CARTESIAN_POINT('',(22.,-13.2,3.52310773147715E-14));
#1484=CARTESIAN_POINT('Origin',(22.,-7.00000000000001,3.5527136788005E-14));
#1485=CARTESIAN_POINT('',(22.,-7.00000000000001,3.5527136788005E-14));
#1486=CARTESIAN_POINT('',(22.,-7.00000000000001,1.50000000000004));
#1487=CARTESIAN_POINT('Origin',(-4.89993475124895E-35,2.71050543121376E-19,
3.5527136788005E-14));
#1488=CARTESIAN_POINT('Origin',(-4.89993474043433E-35,1.39252216528607E-16,
1.50000000000004));
#1489=UNCERTAINTY_MEASURE_WITH_UNIT(LENGTH_MEASURE(0.01),#1493,
'DISTANCE_ACCURACY_VALUE',
'Maximum model space distance between geometric entities at asserted c
onnectivities');
#1490=UNCERTAINTY_MEASURE_WITH_UNIT(LENGTH_MEASURE(0.01),#1493,
'DISTANCE_ACCURACY_VALUE',
'Maximum model space distance between geometric entities at asserted c
onnectivities');
#1491=(
GEOMETRIC_REPRESENTATION_CONTEXT(3)
GLOBAL_UNCERTAINTY_ASSIGNED_CONTEXT((#1489))
GLOBAL_UNIT_ASSIGNED_CONTEXT((#1493,#1494,#1495))
REPRESENTATION_CONTEXT('','3D')
);
#1492=(
GEOMETRIC_REPRESENTATION_CONTEXT(3)
GLOBAL_UNCERTAINTY_ASSIGNED_CONTEXT((#1490))
GLOBAL_UNIT_ASSIGNED_CONTEXT((#1493,#1494,#1495))
REPRESENTATION_CONTEXT('','3D')
);
#1493=(
LENGTH_UNIT()
NAMED_UNIT(*)
SI_UNIT(.MILLI.,.METRE.)
);
#1494=(
NAMED_UNIT(*)
PLANE_ANGLE_UNIT()
SI_UNIT($,.RADIAN.)
);
#1495=(
NAMED_UNIT(*)
SI_UNIT($,.STERADIAN.)
SOLID_ANGLE_UNIT()
);
#1496=SHAPE_DEFINITION_REPRESENTATION(#1497,#1498);
#1497=PRODUCT_DEFINITION_SHAPE('',$,#1500);
#1498=SHAPE_REPRESENTATION('',(#921),#1491);
#1499=PRODUCT_DEFINITION_CONTEXT('part definition',#1504,'design');
#1500=PRODUCT_DEFINITION('18350\X2\30D030C330C630EA30DB30EB30C0\X0\',
'18350\X2\30D030C330C630EA30DB30EB30C0\X0\ v1',#1501,#1499);
#1501=PRODUCT_DEFINITION_FORMATION('',$,#1506);
#1502=PRODUCT_RELATED_PRODUCT_CATEGORY('18350\X2\30D030C330C630EA30DB30EB30C0\X0\ 
v1','18350\X2\30D030C330C630EA30DB30EB30C0\X0\ v1',(#1506));
#1503=APPLICATION_PROTOCOL_DEFINITION('international standard',
'automotive_design',2009,#1504);
#1504=APPLICATION_CONTEXT(
'Core Data for Automotive Mechanical Design Process');
#1505=PRODUCT_CONTEXT('part definition',#1504,'mechanical');
#1506=PRODUCT('18350\X2\30D030C330C630EA30DB30EB30C0\X0\',
'18350\X2\30D030C330C630EA30DB30EB30C0\X0\ v1',$,(#1505));
#1507=PRESENTATION_STYLE_ASSIGNMENT((#1510));
#1508=PRESENTATION_STYLE_ASSIGNMENT((#1511));
#1509=PRESENTATION_STYLE_ASSIGNMENT((#1512));
#1510=SURFACE_STYLE_USAGE(.BOTH.,#1513);
#1511=SURFACE_STYLE_USAGE(.BOTH.,#1514);
#1512=SURFACE_STYLE_USAGE(.BOTH.,#1515);
#1513=SURFACE_SIDE_STYLE('',(#1516));
#1514=SURFACE_SIDE_STYLE('',(#1517));
#1515=SURFACE_SIDE_STYLE('',(#1518));
#1516=SURFACE_STYLE_FILL_AREA(#1519);
#1517=SURFACE_STYLE_FILL_AREA(#1520);
#1518=SURFACE_STYLE_FILL_AREA(#1521);
#1519=FILL_AREA_STYLE('Opaque(166,158,150)',(#1522));
#1520=FILL_AREA_STYLE(
'\X2\30CA30A430ED30F3\X0\ 12 (Formlabs Fuse 1 3D \X2\30D730EA30F330BF4F7F7528\X0\)',
(#1523));
#1521=FILL_AREA_STYLE('\X2\771F936E\X0\ - \X2\3064308451FA3057\X0\',(#1524));
#1522=FILL_AREA_STYLE_COLOUR('Opaque(166,158,150)',#1525);
#1523=FILL_AREA_STYLE_COLOUR(
'\X2\30CA30A430ED30F3\X0\ 12 (Formlabs Fuse 1 3D \X2\30D730EA30F330BF4F7F7528\X0\)',
#1526);
#1524=FILL_AREA_STYLE_COLOUR('\X2\771F936E\X0\ - \X2\3064308451FA3057\X0\',
#1527);
#1525=COLOUR_RGB('Opaque(166,158,150)',0.650980392156863,0.619607843137255,
0.588235294117647);
#1526=COLOUR_RGB(
'\X2\30CA30A430ED30F3\X0\ 12 (Formlabs Fuse 1 3D \X2\30D730EA30F330BF4F7F7528\X0\)',
0.247058823529412,0.247058823529412,0.247058823529412);
#1527=COLOUR_RGB('\X2\771F936E\X0\ - \X2\3064308451FA3057\X0\',0.952941176470588,
0.796078431372549,0.486274509803922);
ENDSEC;
END-ISO-10303-21;
