ISO-10303-21;
HEADER;
/* Generated by software containing ST-Developer
 * from STEP Tools, Inc. (www.steptools.com) 
 */

FILE_DESCRIPTION(
/* description */ (''),
/* implementation_level */ '2;1');

FILE_NAME(
/* name */ 'Pogopin_1x4_2.54mm_male.step',
/* time_stamp */ '2026-06-02T21:44:14+09:00',
/* author */ (''),
/* organization */ (''),
/* preprocessor_version */ 'ST-DEVELOPER v20.1',
/* originating_system */ 'Autodesk Translation Framework v15.8.0.0',
/* authorisation */ '');

FILE_SCHEMA (('AUTOMOTIVE_DESIGN { 1 0 10303 214 3 1 1 }'));
ENDSEC;

DATA;
#10=MECHANICAL_DESIGN_GEOMETRIC_PRESENTATION_REPRESENTATION('',(#17,#18,
#19,#20,#21,#22,#23,#24,#25,#26,#27),#1963);
#11=SHAPE_REPRESENTATION_RELATIONSHIP('SRR','None',#1970,#12);
#12=ADVANCED_BREP_SHAPE_REPRESENTATION('',(#28,#29,#30,#31,#32,#33,#34,
#35,#36,#37,#38),#1962);
#13=(
BOUNDED_SURFACE()
B_SPLINE_SURFACE(2,2,((#1776,#1777,#1778,#1779,#1780,#1781,#1782,#1783,
#1784),(#1785,#1786,#1787,#1788,#1789,#1790,#1791,#1792,#1793),(#1794,#1795,
#1796,#1797,#1798,#1799,#1800,#1801,#1802)),.UNSPECIFIED.,.F.,.T.,.F.)
B_SPLINE_SURFACE_WITH_KNOTS((3,3),(3,2,2,2,3),(0.,1.5707963267949),(-3.14159265358979,
-1.5707963267949,0.,1.5707963267949,3.14159265358979),.UNSPECIFIED.)
GEOMETRIC_REPRESENTATION_ITEM()
RATIONAL_B_SPLINE_SURFACE(((1.,0.707106781186548,1.,0.707106781186548,1.,
0.707106781186548,1.,0.707106781186548,1.),(0.707106781186547,0.5,0.707106781186547,
0.5,0.707106781186547,0.5,0.707106781186547,0.5,0.707106781186547),(1.,
0.707106781186548,1.,0.707106781186548,1.,0.707106781186548,1.,0.707106781186548,
1.)))
REPRESENTATION_ITEM('')
SURFACE()
);
#14=(
BOUNDED_SURFACE()
B_SPLINE_SURFACE(2,2,((#1814,#1815,#1816,#1817,#1818,#1819,#1820,#1821,
#1822),(#1823,#1824,#1825,#1826,#1827,#1828,#1829,#1830,#1831),(#1832,#1833,
#1834,#1835,#1836,#1837,#1838,#1839,#1840)),.UNSPECIFIED.,.F.,.T.,.F.)
B_SPLINE_SURFACE_WITH_KNOTS((3,3),(3,2,2,2,3),(0.,1.5707963267949),(-3.14159265358979,
-1.5707963267949,0.,1.5707963267949,3.14159265358979),.UNSPECIFIED.)
GEOMETRIC_REPRESENTATION_ITEM()
RATIONAL_B_SPLINE_SURFACE(((1.,0.707106781186548,1.,0.707106781186548,1.,
0.707106781186548,1.,0.707106781186548,1.),(0.707106781186546,0.499999999999999,
0.707106781186546,0.499999999999999,0.707106781186546,0.499999999999999,
0.707106781186546,0.499999999999999,0.707106781186546),(1.,0.707106781186548,
1.,0.707106781186548,1.,0.707106781186548,1.,0.707106781186548,1.)))
REPRESENTATION_ITEM('')
SURFACE()
);
#15=(
BOUNDED_SURFACE()
B_SPLINE_SURFACE(2,2,((#1852,#1853,#1854,#1855,#1856,#1857,#1858,#1859,
#1860),(#1861,#1862,#1863,#1864,#1865,#1866,#1867,#1868,#1869),(#1870,#1871,
#1872,#1873,#1874,#1875,#1876,#1877,#1878)),.UNSPECIFIED.,.F.,.T.,.F.)
B_SPLINE_SURFACE_WITH_KNOTS((3,3),(3,2,2,2,3),(0.,1.5707963267949),(-3.14159265358979,
-1.5707963267949,0.,1.5707963267949,3.14159265358979),.UNSPECIFIED.)
GEOMETRIC_REPRESENTATION_ITEM()
RATIONAL_B_SPLINE_SURFACE(((1.,0.707106781186548,1.,0.707106781186548,1.,
0.707106781186548,1.,0.707106781186548,1.),(0.707106781186546,0.499999999999999,
0.707106781186546,0.499999999999999,0.707106781186546,0.499999999999999,
0.707106781186546,0.499999999999999,0.707106781186546),(1.,0.707106781186548,
1.,0.707106781186548,1.,0.707106781186548,1.,0.707106781186548,1.)))
REPRESENTATION_ITEM('')
SURFACE()
);
#16=(
BOUNDED_SURFACE()
B_SPLINE_SURFACE(2,2,((#1890,#1891,#1892,#1893,#1894,#1895,#1896,#1897,
#1898),(#1899,#1900,#1901,#1902,#1903,#1904,#1905,#1906,#1907),(#1908,#1909,
#1910,#1911,#1912,#1913,#1914,#1915,#1916)),.UNSPECIFIED.,.F.,.T.,.F.)
B_SPLINE_SURFACE_WITH_KNOTS((3,3),(3,2,2,2,3),(0.,1.5707963267949),(-3.14159265358979,
-1.5707963267949,0.,1.5707963267949,3.14159265358979),.UNSPECIFIED.)
GEOMETRIC_REPRESENTATION_ITEM()
RATIONAL_B_SPLINE_SURFACE(((1.,0.707106781186548,1.,0.707106781186548,1.,
0.707106781186548,1.,0.707106781186548,1.),(0.707106781186546,0.499999999999999,
0.707106781186546,0.499999999999999,0.707106781186546,0.499999999999999,
0.707106781186546,0.499999999999999,0.707106781186546),(1.,0.707106781186548,
1.,0.707106781186548,1.,0.707106781186548,1.,0.707106781186548,1.)))
REPRESENTATION_ITEM('')
SURFACE()
);
#17=STYLED_ITEM('',(#1980),#28);
#18=STYLED_ITEM('',(#1981),#29);
#19=STYLED_ITEM('',(#1981),#30);
#20=STYLED_ITEM('',(#1982),#31);
#21=STYLED_ITEM('',(#1982),#32);
#22=STYLED_ITEM('',(#1982),#33);
#23=STYLED_ITEM('',(#1982),#34);
#24=STYLED_ITEM('',(#1982),#35);
#25=STYLED_ITEM('',(#1982),#36);
#26=STYLED_ITEM('',(#1982),#37);
#27=STYLED_ITEM('',(#1982),#38);
#28=MANIFOLD_SOLID_BREP('\X2\30DC30C730A3\X0\1',#1061);
#29=MANIFOLD_SOLID_BREP('\X2\30DC30C730A3\X0\2',#1062);
#30=MANIFOLD_SOLID_BREP('\X2\30DC30C730A3\X0\3',#1063);
#31=MANIFOLD_SOLID_BREP('\X2\30DC30C730A3\X0\4',#1064);
#32=MANIFOLD_SOLID_BREP('\X2\30DC30C730A3\X0\5',#1065);
#33=MANIFOLD_SOLID_BREP('\X2\30DC30C730A3\X0\6',#1066);
#34=MANIFOLD_SOLID_BREP('\X2\30DC30C730A3\X0\7',#1067);
#35=MANIFOLD_SOLID_BREP('\X2\30DC30C730A3\X0\8',#1068);
#36=MANIFOLD_SOLID_BREP('\X2\30DC30C730A3\X0\9',#1069);
#37=MANIFOLD_SOLID_BREP('\X2\30DC30C730A3\X0\10',#1070);
#38=MANIFOLD_SOLID_BREP('\X2\30DC30C730A3\X0\11',#1071);
#39=FACE_BOUND('',#232,.T.);
#40=FACE_BOUND('',#233,.T.);
#41=FACE_BOUND('',#234,.T.);
#42=FACE_BOUND('',#235,.T.);
#43=FACE_BOUND('',#243,.T.);
#44=FACE_BOUND('',#245,.T.);
#45=FACE_BOUND('',#261,.T.);
#46=FACE_BOUND('',#262,.T.);
#47=FACE_BOUND('',#263,.T.);
#48=FACE_BOUND('',#264,.T.);
#49=FACE_BOUND('',#265,.T.);
#50=FACE_BOUND('',#266,.T.);
#51=CIRCLE('',#1094,1.5);
#52=CIRCLE('',#1095,1.5);
#53=CIRCLE('',#1098,2.);
#54=CIRCLE('',#1099,2.);
#55=CIRCLE('',#1103,2.00000000000061);
#56=CIRCLE('',#1104,2.00000000000061);
#57=CIRCLE('',#1107,1.5);
#58=CIRCLE('',#1108,1.5);
#59=CIRCLE('',#1112,2.);
#60=CIRCLE('',#1113,2.);
#61=CIRCLE('',#1114,0.75);
#62=CIRCLE('',#1115,0.75);
#63=CIRCLE('',#1117,1.5);
#64=CIRCLE('',#1119,1.5);
#65=CIRCLE('',#1121,0.755);
#66=CIRCLE('',#1123,0.755);
#67=CIRCLE('',#1125,0.755);
#68=CIRCLE('',#1127,0.755);
#69=CIRCLE('',#1129,2.);
#70=CIRCLE('',#1130,2.);
#71=CIRCLE('',#1131,0.75);
#72=CIRCLE('',#1133,2.00000000000061);
#73=CIRCLE('',#1134,2.);
#74=CIRCLE('',#1135,0.75);
#75=CIRCLE('',#1141,0.755);
#76=CIRCLE('',#1143,0.755);
#77=CIRCLE('',#1145,0.755);
#78=CIRCLE('',#1147,0.755);
#79=CIRCLE('',#1149,1.5);
#80=CIRCLE('',#1151,1.5);
#81=CIRCLE('',#1153,2.00000000000061);
#82=CIRCLE('',#1156,2.);
#83=CIRCLE('',#1160,1.5);
#84=CIRCLE('',#1161,1.5);
#85=CIRCLE('',#1165,1.5);
#86=CIRCLE('',#1166,1.5);
#87=CIRCLE('',#1169,0.0550000000000002);
#88=CIRCLE('',#1170,0.7);
#89=CIRCLE('',#1171,0.755);
#90=CIRCLE('',#1173,0.755);
#91=CIRCLE('',#1176,0.0550000000000002);
#92=CIRCLE('',#1177,0.7);
#93=CIRCLE('',#1178,0.755);
#94=CIRCLE('',#1180,0.755);
#95=CIRCLE('',#1183,0.0550000000000002);
#96=CIRCLE('',#1184,0.7);
#97=CIRCLE('',#1185,0.755);
#98=CIRCLE('',#1187,0.755);
#99=CIRCLE('',#1190,0.0550000000000002);
#100=CIRCLE('',#1191,0.7);
#101=CIRCLE('',#1192,0.755);
#102=CIRCLE('',#1194,0.755);
#103=CIRCLE('',#1198,0.35);
#104=CIRCLE('',#1199,0.35);
#105=CIRCLE('',#1203,0.35);
#106=CIRCLE('',#1204,0.35);
#107=CIRCLE('',#1208,0.35);
#108=CIRCLE('',#1209,0.35);
#109=CIRCLE('',#1213,0.35);
#110=CIRCLE('',#1214,0.35);
#111=CYLINDRICAL_SURFACE('',#1093,1.5);
#112=CYLINDRICAL_SURFACE('',#1097,2.);
#113=CYLINDRICAL_SURFACE('',#1102,2.00000000000061);
#114=CYLINDRICAL_SURFACE('',#1106,1.5);
#115=CYLINDRICAL_SURFACE('',#1136,0.75);
#116=CYLINDRICAL_SURFACE('',#1137,0.75);
#117=CYLINDRICAL_SURFACE('',#1138,2.);
#118=CYLINDRICAL_SURFACE('',#1139,2.);
#119=CYLINDRICAL_SURFACE('',#1140,0.755);
#120=CYLINDRICAL_SURFACE('',#1142,0.755);
#121=CYLINDRICAL_SURFACE('',#1144,0.755);
#122=CYLINDRICAL_SURFACE('',#1146,0.755);
#123=CYLINDRICAL_SURFACE('',#1148,1.5);
#124=CYLINDRICAL_SURFACE('',#1150,1.5);
#125=CYLINDRICAL_SURFACE('',#1152,2.00000000000061);
#126=CYLINDRICAL_SURFACE('',#1155,2.);
#127=CYLINDRICAL_SURFACE('',#1159,1.5);
#128=CYLINDRICAL_SURFACE('',#1164,1.5);
#129=CYLINDRICAL_SURFACE('',#1172,0.755);
#130=CYLINDRICAL_SURFACE('',#1179,0.755);
#131=CYLINDRICAL_SURFACE('',#1186,0.755);
#132=CYLINDRICAL_SURFACE('',#1193,0.755);
#133=CYLINDRICAL_SURFACE('',#1197,0.35);
#134=CYLINDRICAL_SURFACE('',#1202,0.35);
#135=CYLINDRICAL_SURFACE('',#1207,0.35);
#136=CYLINDRICAL_SURFACE('',#1212,0.35);
#137=FACE_OUTER_BOUND('',#213,.T.);
#138=FACE_OUTER_BOUND('',#214,.T.);
#139=FACE_OUTER_BOUND('',#215,.T.);
#140=FACE_OUTER_BOUND('',#216,.T.);
#141=FACE_OUTER_BOUND('',#217,.T.);
#142=FACE_OUTER_BOUND('',#218,.T.);
#143=FACE_OUTER_BOUND('',#219,.T.);
#144=FACE_OUTER_BOUND('',#220,.T.);
#145=FACE_OUTER_BOUND('',#221,.T.);
#146=FACE_OUTER_BOUND('',#222,.T.);
#147=FACE_OUTER_BOUND('',#223,.T.);
#148=FACE_OUTER_BOUND('',#224,.T.);
#149=FACE_OUTER_BOUND('',#225,.T.);
#150=FACE_OUTER_BOUND('',#226,.T.);
#151=FACE_OUTER_BOUND('',#227,.T.);
#152=FACE_OUTER_BOUND('',#228,.T.);
#153=FACE_OUTER_BOUND('',#229,.T.);
#154=FACE_OUTER_BOUND('',#230,.T.);
#155=FACE_OUTER_BOUND('',#231,.T.);
#156=FACE_OUTER_BOUND('',#236,.T.);
#157=FACE_OUTER_BOUND('',#237,.T.);
#158=FACE_OUTER_BOUND('',#238,.T.);
#159=FACE_OUTER_BOUND('',#239,.T.);
#160=FACE_OUTER_BOUND('',#240,.T.);
#161=FACE_OUTER_BOUND('',#241,.T.);
#162=FACE_OUTER_BOUND('',#242,.T.);
#163=FACE_OUTER_BOUND('',#244,.T.);
#164=FACE_OUTER_BOUND('',#246,.T.);
#165=FACE_OUTER_BOUND('',#247,.T.);
#166=FACE_OUTER_BOUND('',#248,.T.);
#167=FACE_OUTER_BOUND('',#249,.T.);
#168=FACE_OUTER_BOUND('',#250,.T.);
#169=FACE_OUTER_BOUND('',#251,.T.);
#170=FACE_OUTER_BOUND('',#252,.T.);
#171=FACE_OUTER_BOUND('',#253,.T.);
#172=FACE_OUTER_BOUND('',#254,.T.);
#173=FACE_OUTER_BOUND('',#255,.T.);
#174=FACE_OUTER_BOUND('',#256,.T.);
#175=FACE_OUTER_BOUND('',#257,.T.);
#176=FACE_OUTER_BOUND('',#258,.T.);
#177=FACE_OUTER_BOUND('',#259,.T.);
#178=FACE_OUTER_BOUND('',#260,.T.);
#179=FACE_OUTER_BOUND('',#267,.T.);
#180=FACE_OUTER_BOUND('',#268,.T.);
#181=FACE_OUTER_BOUND('',#269,.T.);
#182=FACE_OUTER_BOUND('',#270,.T.);
#183=FACE_OUTER_BOUND('',#271,.T.);
#184=FACE_OUTER_BOUND('',#272,.T.);
#185=FACE_OUTER_BOUND('',#273,.T.);
#186=FACE_OUTER_BOUND('',#274,.T.);
#187=FACE_OUTER_BOUND('',#275,.T.);
#188=FACE_OUTER_BOUND('',#276,.T.);
#189=FACE_OUTER_BOUND('',#277,.T.);
#190=FACE_OUTER_BOUND('',#278,.T.);
#191=FACE_OUTER_BOUND('',#279,.T.);
#192=FACE_OUTER_BOUND('',#280,.T.);
#193=FACE_OUTER_BOUND('',#281,.T.);
#194=FACE_OUTER_BOUND('',#282,.T.);
#195=FACE_OUTER_BOUND('',#283,.T.);
#196=FACE_OUTER_BOUND('',#284,.T.);
#197=FACE_OUTER_BOUND('',#285,.T.);
#198=FACE_OUTER_BOUND('',#286,.T.);
#199=FACE_OUTER_BOUND('',#287,.T.);
#200=FACE_OUTER_BOUND('',#288,.T.);
#201=FACE_OUTER_BOUND('',#289,.T.);
#202=FACE_OUTER_BOUND('',#290,.T.);
#203=FACE_OUTER_BOUND('',#291,.T.);
#204=FACE_OUTER_BOUND('',#292,.T.);
#205=FACE_OUTER_BOUND('',#293,.T.);
#206=FACE_OUTER_BOUND('',#294,.T.);
#207=FACE_OUTER_BOUND('',#295,.T.);
#208=FACE_OUTER_BOUND('',#296,.T.);
#209=FACE_OUTER_BOUND('',#297,.T.);
#210=FACE_OUTER_BOUND('',#298,.T.);
#211=FACE_OUTER_BOUND('',#299,.T.);
#212=FACE_OUTER_BOUND('',#300,.T.);
#213=EDGE_LOOP('',(#671,#672,#673,#674));
#214=EDGE_LOOP('',(#675,#676,#677,#678));
#215=EDGE_LOOP('',(#679,#680,#681,#682));
#216=EDGE_LOOP('',(#683,#684,#685,#686));
#217=EDGE_LOOP('',(#687,#688,#689,#690));
#218=EDGE_LOOP('',(#691,#692,#693,#694));
#219=EDGE_LOOP('',(#695,#696,#697,#698));
#220=EDGE_LOOP('',(#699,#700,#701,#702));
#221=EDGE_LOOP('',(#703,#704,#705,#706));
#222=EDGE_LOOP('',(#707,#708,#709,#710));
#223=EDGE_LOOP('',(#711,#712,#713,#714));
#224=EDGE_LOOP('',(#715,#716,#717,#718));
#225=EDGE_LOOP('',(#719,#720,#721,#722));
#226=EDGE_LOOP('',(#723,#724,#725,#726));
#227=EDGE_LOOP('',(#727,#728,#729,#730));
#228=EDGE_LOOP('',(#731,#732,#733,#734));
#229=EDGE_LOOP('',(#735,#736,#737,#738));
#230=EDGE_LOOP('',(#739,#740,#741,#742));
#231=EDGE_LOOP('',(#743,#744,#745,#746,#747,#748,#749,#750,#751,#752,#753,
#754));
#232=EDGE_LOOP('',(#755));
#233=EDGE_LOOP('',(#756));
#234=EDGE_LOOP('',(#757,#758,#759,#760));
#235=EDGE_LOOP('',(#761,#762,#763,#764));
#236=EDGE_LOOP('',(#765));
#237=EDGE_LOOP('',(#766));
#238=EDGE_LOOP('',(#767));
#239=EDGE_LOOP('',(#768));
#240=EDGE_LOOP('',(#769));
#241=EDGE_LOOP('',(#770));
#242=EDGE_LOOP('',(#771,#772,#773,#774));
#243=EDGE_LOOP('',(#775));
#244=EDGE_LOOP('',(#776,#777,#778,#779));
#245=EDGE_LOOP('',(#780));
#246=EDGE_LOOP('',(#781,#782,#783,#784));
#247=EDGE_LOOP('',(#785,#786,#787,#788));
#248=EDGE_LOOP('',(#789,#790,#791,#792));
#249=EDGE_LOOP('',(#793,#794,#795,#796));
#250=EDGE_LOOP('',(#797,#798,#799,#800));
#251=EDGE_LOOP('',(#801,#802,#803,#804));
#252=EDGE_LOOP('',(#805,#806,#807,#808));
#253=EDGE_LOOP('',(#809,#810,#811,#812));
#254=EDGE_LOOP('',(#813,#814,#815,#816));
#255=EDGE_LOOP('',(#817,#818,#819,#820));
#256=EDGE_LOOP('',(#821,#822,#823,#824));
#257=EDGE_LOOP('',(#825,#826,#827,#828,#829,#830,#831,#832,#833,#834,#835,
#836));
#258=EDGE_LOOP('',(#837,#838,#839,#840));
#259=EDGE_LOOP('',(#841,#842,#843,#844,#845,#846,#847,#848,#849,#850,#851,
#852));
#260=EDGE_LOOP('',(#853,#854,#855,#856));
#261=EDGE_LOOP('',(#857));
#262=EDGE_LOOP('',(#858));
#263=EDGE_LOOP('',(#859));
#264=EDGE_LOOP('',(#860));
#265=EDGE_LOOP('',(#861));
#266=EDGE_LOOP('',(#862));
#267=EDGE_LOOP('',(#863,#864,#865,#866));
#268=EDGE_LOOP('',(#867));
#269=EDGE_LOOP('',(#868));
#270=EDGE_LOOP('',(#869,#870,#871,#872));
#271=EDGE_LOOP('',(#873));
#272=EDGE_LOOP('',(#874));
#273=EDGE_LOOP('',(#875,#876,#877,#878));
#274=EDGE_LOOP('',(#879,#880,#881,#882));
#275=EDGE_LOOP('',(#883));
#276=EDGE_LOOP('',(#884));
#277=EDGE_LOOP('',(#885,#886,#887,#888));
#278=EDGE_LOOP('',(#889,#890,#891,#892));
#279=EDGE_LOOP('',(#893));
#280=EDGE_LOOP('',(#894));
#281=EDGE_LOOP('',(#895,#896,#897,#898));
#282=EDGE_LOOP('',(#899,#900,#901,#902));
#283=EDGE_LOOP('',(#903));
#284=EDGE_LOOP('',(#904));
#285=EDGE_LOOP('',(#905,#906,#907,#908));
#286=EDGE_LOOP('',(#909,#910,#911,#912));
#287=EDGE_LOOP('',(#913));
#288=EDGE_LOOP('',(#914));
#289=EDGE_LOOP('',(#915,#916,#917,#918));
#290=EDGE_LOOP('',(#919));
#291=EDGE_LOOP('',(#920));
#292=EDGE_LOOP('',(#921,#922,#923,#924));
#293=EDGE_LOOP('',(#925));
#294=EDGE_LOOP('',(#926));
#295=EDGE_LOOP('',(#927,#928,#929,#930));
#296=EDGE_LOOP('',(#931));
#297=EDGE_LOOP('',(#932));
#298=EDGE_LOOP('',(#933,#934,#935,#936));
#299=EDGE_LOOP('',(#937));
#300=EDGE_LOOP('',(#938));
#301=LINE('',#1561,#375);
#302=LINE('',#1563,#376);
#303=LINE('',#1565,#377);
#304=LINE('',#1566,#378);
#305=LINE('',#1570,#379);
#306=LINE('',#1572,#380);
#307=LINE('',#1574,#381);
#308=LINE('',#1575,#382);
#309=LINE('',#1577,#383);
#310=LINE('',#1578,#384);
#311=LINE('',#1580,#385);
#312=LINE('',#1584,#386);
#313=LINE('',#1586,#387);
#314=LINE('',#1588,#388);
#315=LINE('',#1589,#389);
#316=LINE('',#1592,#390);
#317=LINE('',#1594,#391);
#318=LINE('',#1595,#392);
#319=LINE('',#1598,#393);
#320=LINE('',#1600,#394);
#321=LINE('',#1601,#395);
#322=LINE('',#1603,#396);
#323=LINE('',#1609,#397);
#324=LINE('',#1612,#398);
#325=LINE('',#1615,#399);
#326=LINE('',#1617,#400);
#327=LINE('',#1618,#401);
#328=LINE('',#1624,#402);
#329=LINE('',#1626,#403);
#330=LINE('',#1627,#404);
#331=LINE('',#1634,#405);
#332=LINE('',#1637,#406);
#333=LINE('',#1640,#407);
#334=LINE('',#1642,#408);
#335=LINE('',#1643,#409);
#336=LINE('',#1649,#410);
#337=LINE('',#1651,#411);
#338=LINE('',#1652,#412);
#339=LINE('',#1656,#413);
#340=LINE('',#1659,#414);
#341=LINE('',#1661,#415);
#342=LINE('',#1664,#416);
#343=LINE('',#1692,#417);
#344=LINE('',#1695,#418);
#345=LINE('',#1703,#419);
#346=LINE('',#1706,#420);
#347=LINE('',#1710,#421);
#348=LINE('',#1712,#422);
#349=LINE('',#1714,#423);
#350=LINE('',#1715,#424);
#351=LINE('',#1717,#425);
#352=LINE('',#1718,#426);
#353=LINE('',#1722,#427);
#354=LINE('',#1726,#428);
#355=LINE('',#1730,#429);
#356=LINE('',#1734,#430);
#357=LINE('',#1738,#431);
#358=LINE('',#1742,#432);
#359=LINE('',#1745,#433);
#360=LINE('',#1748,#434);
#361=LINE('',#1751,#435);
#362=LINE('',#1752,#436);
#363=LINE('',#1756,#437);
#364=LINE('',#1758,#438);
#365=LINE('',#1764,#439);
#366=LINE('',#1772,#440);
#367=LINE('',#1810,#441);
#368=LINE('',#1848,#442);
#369=LINE('',#1886,#443);
#370=LINE('',#1924,#444);
#371=LINE('',#1932,#445);
#372=LINE('',#1940,#446);
#373=LINE('',#1948,#447);
#374=LINE('',#1956,#448);
#375=VECTOR('',#1221,10.);
#376=VECTOR('',#1222,10.);
#377=VECTOR('',#1223,10.);
#378=VECTOR('',#1224,10.);
#379=VECTOR('',#1227,10.);
#380=VECTOR('',#1228,10.);
#381=VECTOR('',#1229,10.);
#382=VECTOR('',#1230,10.);
#383=VECTOR('',#1233,10.);
#384=VECTOR('',#1234,10.);
#385=VECTOR('',#1237,10.);
#386=VECTOR('',#1240,10.);
#387=VECTOR('',#1241,10.);
#388=VECTOR('',#1242,10.);
#389=VECTOR('',#1243,10.);
#390=VECTOR('',#1246,10.);
#391=VECTOR('',#1247,10.);
#392=VECTOR('',#1248,10.);
#393=VECTOR('',#1251,10.);
#394=VECTOR('',#1252,10.);
#395=VECTOR('',#1253,10.);
#396=VECTOR('',#1256,10.);
#397=VECTOR('',#1261,10.);
#398=VECTOR('',#1264,10.);
#399=VECTOR('',#1267,10.);
#400=VECTOR('',#1268,10.);
#401=VECTOR('',#1269,10.);
#402=VECTOR('',#1276,10.);
#403=VECTOR('',#1279,10.);
#404=VECTOR('',#1280,10.);
#405=VECTOR('',#1287,10.);
#406=VECTOR('',#1290,10.);
#407=VECTOR('',#1293,10.);
#408=VECTOR('',#1294,10.);
#409=VECTOR('',#1295,10.);
#410=VECTOR('',#1302,10.);
#411=VECTOR('',#1305,10.);
#412=VECTOR('',#1306,10.);
#413=VECTOR('',#1311,10.);
#414=VECTOR('',#1314,10.);
#415=VECTOR('',#1315,10.);
#416=VECTOR('',#1318,10.);
#417=VECTOR('',#1351,10.);
#418=VECTOR('',#1354,10.);
#419=VECTOR('',#1361,10.);
#420=VECTOR('',#1364,10.);
#421=VECTOR('',#1369,0.75);
#422=VECTOR('',#1372,0.75);
#423=VECTOR('',#1375,10.);
#424=VECTOR('',#1376,10.);
#425=VECTOR('',#1379,10.);
#426=VECTOR('',#1380,10.);
#427=VECTOR('',#1385,0.755);
#428=VECTOR('',#1390,0.755);
#429=VECTOR('',#1395,0.755);
#430=VECTOR('',#1400,0.755);
#431=VECTOR('',#1405,1.5);
#432=VECTOR('',#1410,1.5);
#433=VECTOR('',#1413,10.);
#434=VECTOR('',#1416,10.);
#435=VECTOR('',#1419,10.);
#436=VECTOR('',#1420,10.);
#437=VECTOR('',#1425,10.);
#438=VECTOR('',#1428,10.);
#439=VECTOR('',#1435,1.5);
#440=VECTOR('',#1446,1.5);
#441=VECTOR('',#1461,0.755);
#442=VECTOR('',#1476,0.755);
#443=VECTOR('',#1491,0.755);
#444=VECTOR('',#1506,0.755);
#445=VECTOR('',#1517,0.35);
#446=VECTOR('',#1528,0.35);
#447=VECTOR('',#1539,0.35);
#448=VECTOR('',#1550,0.35);
#449=VERTEX_POINT('',#1559);
#450=VERTEX_POINT('',#1560);
#451=VERTEX_POINT('',#1562);
#452=VERTEX_POINT('',#1564);
#453=VERTEX_POINT('',#1568);
#454=VERTEX_POINT('',#1569);
#455=VERTEX_POINT('',#1571);
#456=VERTEX_POINT('',#1573);
#457=VERTEX_POINT('',#1582);
#458=VERTEX_POINT('',#1583);
#459=VERTEX_POINT('',#1585);
#460=VERTEX_POINT('',#1587);
#461=VERTEX_POINT('',#1591);
#462=VERTEX_POINT('',#1593);
#463=VERTEX_POINT('',#1597);
#464=VERTEX_POINT('',#1599);
#465=VERTEX_POINT('',#1605);
#466=VERTEX_POINT('',#1606);
#467=VERTEX_POINT('',#1608);
#468=VERTEX_POINT('',#1610);
#469=VERTEX_POINT('',#1614);
#470=VERTEX_POINT('',#1616);
#471=VERTEX_POINT('',#1620);
#472=VERTEX_POINT('',#1622);
#473=VERTEX_POINT('',#1630);
#474=VERTEX_POINT('',#1631);
#475=VERTEX_POINT('',#1633);
#476=VERTEX_POINT('',#1635);
#477=VERTEX_POINT('',#1639);
#478=VERTEX_POINT('',#1641);
#479=VERTEX_POINT('',#1645);
#480=VERTEX_POINT('',#1647);
#481=VERTEX_POINT('',#1655);
#482=VERTEX_POINT('',#1657);
#483=VERTEX_POINT('',#1660);
#484=VERTEX_POINT('',#1662);
#485=VERTEX_POINT('',#1665);
#486=VERTEX_POINT('',#1667);
#487=VERTEX_POINT('',#1670);
#488=VERTEX_POINT('',#1673);
#489=VERTEX_POINT('',#1676);
#490=VERTEX_POINT('',#1679);
#491=VERTEX_POINT('',#1682);
#492=VERTEX_POINT('',#1685);
#493=VERTEX_POINT('',#1688);
#494=VERTEX_POINT('',#1689);
#495=VERTEX_POINT('',#1691);
#496=VERTEX_POINT('',#1693);
#497=VERTEX_POINT('',#1696);
#498=VERTEX_POINT('',#1699);
#499=VERTEX_POINT('',#1700);
#500=VERTEX_POINT('',#1702);
#501=VERTEX_POINT('',#1704);
#502=VERTEX_POINT('',#1707);
#503=VERTEX_POINT('',#1720);
#504=VERTEX_POINT('',#1724);
#505=VERTEX_POINT('',#1728);
#506=VERTEX_POINT('',#1732);
#507=VERTEX_POINT('',#1736);
#508=VERTEX_POINT('',#1740);
#509=VERTEX_POINT('',#1744);
#510=VERTEX_POINT('',#1746);
#511=VERTEX_POINT('',#1750);
#512=VERTEX_POINT('',#1754);
#513=VERTEX_POINT('',#1761);
#514=VERTEX_POINT('',#1763);
#515=VERTEX_POINT('',#1769);
#516=VERTEX_POINT('',#1771);
#517=VERTEX_POINT('',#1803);
#518=VERTEX_POINT('',#1805);
#519=VERTEX_POINT('',#1809);
#520=VERTEX_POINT('',#1841);
#521=VERTEX_POINT('',#1843);
#522=VERTEX_POINT('',#1847);
#523=VERTEX_POINT('',#1879);
#524=VERTEX_POINT('',#1881);
#525=VERTEX_POINT('',#1885);
#526=VERTEX_POINT('',#1917);
#527=VERTEX_POINT('',#1919);
#528=VERTEX_POINT('',#1923);
#529=VERTEX_POINT('',#1929);
#530=VERTEX_POINT('',#1931);
#531=VERTEX_POINT('',#1937);
#532=VERTEX_POINT('',#1939);
#533=VERTEX_POINT('',#1945);
#534=VERTEX_POINT('',#1947);
#535=VERTEX_POINT('',#1953);
#536=VERTEX_POINT('',#1955);
#537=EDGE_CURVE('',#449,#450,#301,.T.);
#538=EDGE_CURVE('',#449,#451,#302,.T.);
#539=EDGE_CURVE('',#452,#451,#303,.T.);
#540=EDGE_CURVE('',#450,#452,#304,.T.);
#541=EDGE_CURVE('',#453,#454,#305,.T.);
#542=EDGE_CURVE('',#453,#455,#306,.T.);
#543=EDGE_CURVE('',#456,#455,#307,.T.);
#544=EDGE_CURVE('',#454,#456,#308,.T.);
#545=EDGE_CURVE('',#454,#449,#309,.T.);
#546=EDGE_CURVE('',#451,#456,#310,.T.);
#547=EDGE_CURVE('',#455,#452,#311,.T.);
#548=EDGE_CURVE('',#457,#458,#312,.T.);
#549=EDGE_CURVE('',#457,#459,#313,.T.);
#550=EDGE_CURVE('',#460,#459,#314,.T.);
#551=EDGE_CURVE('',#458,#460,#315,.T.);
#552=EDGE_CURVE('',#458,#461,#316,.T.);
#553=EDGE_CURVE('',#462,#460,#317,.T.);
#554=EDGE_CURVE('',#461,#462,#318,.T.);
#555=EDGE_CURVE('',#463,#457,#319,.T.);
#556=EDGE_CURVE('',#463,#464,#320,.T.);
#557=EDGE_CURVE('',#459,#464,#321,.T.);
#558=EDGE_CURVE('',#464,#462,#322,.T.);
#559=EDGE_CURVE('',#465,#466,#51,.T.);
#560=EDGE_CURVE('',#465,#467,#323,.T.);
#561=EDGE_CURVE('',#468,#467,#52,.T.);
#562=EDGE_CURVE('',#466,#468,#324,.T.);
#563=EDGE_CURVE('',#466,#469,#325,.T.);
#564=EDGE_CURVE('',#470,#468,#326,.T.);
#565=EDGE_CURVE('',#469,#470,#327,.T.);
#566=EDGE_CURVE('',#469,#471,#53,.T.);
#567=EDGE_CURVE('',#472,#470,#54,.T.);
#568=EDGE_CURVE('',#471,#472,#328,.T.);
#569=EDGE_CURVE('',#471,#465,#329,.T.);
#570=EDGE_CURVE('',#467,#472,#330,.T.);
#571=EDGE_CURVE('',#473,#474,#55,.T.);
#572=EDGE_CURVE('',#473,#475,#331,.T.);
#573=EDGE_CURVE('',#476,#475,#56,.T.);
#574=EDGE_CURVE('',#474,#476,#332,.T.);
#575=EDGE_CURVE('',#474,#477,#333,.T.);
#576=EDGE_CURVE('',#478,#476,#334,.T.);
#577=EDGE_CURVE('',#477,#478,#335,.T.);
#578=EDGE_CURVE('',#477,#479,#57,.T.);
#579=EDGE_CURVE('',#480,#478,#58,.T.);
#580=EDGE_CURVE('',#479,#480,#336,.T.);
#581=EDGE_CURVE('',#479,#473,#337,.T.);
#582=EDGE_CURVE('',#475,#480,#338,.T.);
#583=EDGE_CURVE('',#450,#481,#339,.T.);
#584=EDGE_CURVE('',#481,#482,#59,.T.);
#585=EDGE_CURVE('',#482,#463,#340,.T.);
#586=EDGE_CURVE('',#461,#483,#341,.T.);
#587=EDGE_CURVE('',#483,#484,#60,.T.);
#588=EDGE_CURVE('',#484,#453,#342,.T.);
#589=EDGE_CURVE('',#485,#485,#61,.T.);
#590=EDGE_CURVE('',#486,#486,#62,.T.);
#591=EDGE_CURVE('',#487,#487,#63,.T.);
#592=EDGE_CURVE('',#488,#488,#64,.T.);
#593=EDGE_CURVE('',#489,#489,#65,.T.);
#594=EDGE_CURVE('',#490,#490,#66,.T.);
#595=EDGE_CURVE('',#491,#491,#67,.T.);
#596=EDGE_CURVE('',#492,#492,#68,.T.);
#597=EDGE_CURVE('',#493,#494,#69,.T.);
#598=EDGE_CURVE('',#493,#495,#343,.T.);
#599=EDGE_CURVE('',#495,#496,#70,.T.);
#600=EDGE_CURVE('',#494,#496,#344,.T.);
#601=EDGE_CURVE('',#497,#497,#71,.T.);
#602=EDGE_CURVE('',#498,#499,#72,.T.);
#603=EDGE_CURVE('',#500,#498,#345,.T.);
#604=EDGE_CURVE('',#500,#501,#73,.T.);
#605=EDGE_CURVE('',#501,#499,#346,.T.);
#606=EDGE_CURVE('',#502,#502,#74,.T.);
#607=EDGE_CURVE('',#485,#502,#347,.T.);
#608=EDGE_CURVE('',#486,#497,#348,.T.);
#609=EDGE_CURVE('',#495,#482,#349,.T.);
#610=EDGE_CURVE('',#496,#481,#350,.T.);
#611=EDGE_CURVE('',#500,#484,#351,.T.);
#612=EDGE_CURVE('',#501,#483,#352,.T.);
#613=EDGE_CURVE('',#503,#503,#75,.T.);
#614=EDGE_CURVE('',#503,#492,#353,.T.);
#615=EDGE_CURVE('',#504,#504,#76,.T.);
#616=EDGE_CURVE('',#504,#491,#354,.T.);
#617=EDGE_CURVE('',#505,#505,#77,.T.);
#618=EDGE_CURVE('',#505,#490,#355,.T.);
#619=EDGE_CURVE('',#506,#506,#78,.T.);
#620=EDGE_CURVE('',#506,#489,#356,.T.);
#621=EDGE_CURVE('',#507,#507,#79,.T.);
#622=EDGE_CURVE('',#507,#488,#357,.T.);
#623=EDGE_CURVE('',#508,#508,#80,.T.);
#624=EDGE_CURVE('',#508,#487,#358,.T.);
#625=EDGE_CURVE('',#499,#509,#359,.T.);
#626=EDGE_CURVE('',#510,#509,#81,.T.);
#627=EDGE_CURVE('',#498,#510,#360,.T.);
#628=EDGE_CURVE('',#511,#510,#361,.T.);
#629=EDGE_CURVE('',#494,#511,#362,.T.);
#630=EDGE_CURVE('',#512,#511,#82,.T.);
#631=EDGE_CURVE('',#493,#512,#363,.T.);
#632=EDGE_CURVE('',#509,#512,#364,.T.);
#633=EDGE_CURVE('',#513,#513,#83,.T.);
#634=EDGE_CURVE('',#513,#514,#365,.T.);
#635=EDGE_CURVE('',#514,#514,#84,.T.);
#636=EDGE_CURVE('',#515,#515,#85,.T.);
#637=EDGE_CURVE('',#515,#516,#366,.T.);
#638=EDGE_CURVE('',#516,#516,#86,.T.);
#639=EDGE_CURVE('',#517,#517,#87,.T.);
#640=EDGE_CURVE('',#517,#518,#88,.T.);
#641=EDGE_CURVE('',#518,#518,#89,.T.);
#642=EDGE_CURVE('',#518,#519,#367,.T.);
#643=EDGE_CURVE('',#519,#519,#90,.T.);
#644=EDGE_CURVE('',#520,#520,#91,.T.);
#645=EDGE_CURVE('',#520,#521,#92,.T.);
#646=EDGE_CURVE('',#521,#521,#93,.T.);
#647=EDGE_CURVE('',#521,#522,#368,.T.);
#648=EDGE_CURVE('',#522,#522,#94,.T.);
#649=EDGE_CURVE('',#523,#523,#95,.T.);
#650=EDGE_CURVE('',#523,#524,#96,.T.);
#651=EDGE_CURVE('',#524,#524,#97,.T.);
#652=EDGE_CURVE('',#524,#525,#369,.T.);
#653=EDGE_CURVE('',#525,#525,#98,.T.);
#654=EDGE_CURVE('',#526,#526,#99,.T.);
#655=EDGE_CURVE('',#526,#527,#100,.T.);
#656=EDGE_CURVE('',#527,#527,#101,.T.);
#657=EDGE_CURVE('',#527,#528,#370,.T.);
#658=EDGE_CURVE('',#528,#528,#102,.T.);
#659=EDGE_CURVE('',#529,#529,#103,.T.);
#660=EDGE_CURVE('',#529,#530,#371,.T.);
#661=EDGE_CURVE('',#530,#530,#104,.T.);
#662=EDGE_CURVE('',#531,#531,#105,.T.);
#663=EDGE_CURVE('',#531,#532,#372,.T.);
#664=EDGE_CURVE('',#532,#532,#106,.T.);
#665=EDGE_CURVE('',#533,#533,#107,.T.);
#666=EDGE_CURVE('',#533,#534,#373,.T.);
#667=EDGE_CURVE('',#534,#534,#108,.T.);
#668=EDGE_CURVE('',#535,#535,#109,.T.);
#669=EDGE_CURVE('',#535,#536,#374,.T.);
#670=EDGE_CURVE('',#536,#536,#110,.T.);
#671=ORIENTED_EDGE('',*,*,#537,.F.);
#672=ORIENTED_EDGE('',*,*,#538,.T.);
#673=ORIENTED_EDGE('',*,*,#539,.F.);
#674=ORIENTED_EDGE('',*,*,#540,.F.);
#675=ORIENTED_EDGE('',*,*,#541,.F.);
#676=ORIENTED_EDGE('',*,*,#542,.T.);
#677=ORIENTED_EDGE('',*,*,#543,.F.);
#678=ORIENTED_EDGE('',*,*,#544,.F.);
#679=ORIENTED_EDGE('',*,*,#545,.F.);
#680=ORIENTED_EDGE('',*,*,#544,.T.);
#681=ORIENTED_EDGE('',*,*,#546,.F.);
#682=ORIENTED_EDGE('',*,*,#538,.F.);
#683=ORIENTED_EDGE('',*,*,#546,.T.);
#684=ORIENTED_EDGE('',*,*,#543,.T.);
#685=ORIENTED_EDGE('',*,*,#547,.T.);
#686=ORIENTED_EDGE('',*,*,#539,.T.);
#687=ORIENTED_EDGE('',*,*,#548,.F.);
#688=ORIENTED_EDGE('',*,*,#549,.T.);
#689=ORIENTED_EDGE('',*,*,#550,.F.);
#690=ORIENTED_EDGE('',*,*,#551,.F.);
#691=ORIENTED_EDGE('',*,*,#552,.F.);
#692=ORIENTED_EDGE('',*,*,#551,.T.);
#693=ORIENTED_EDGE('',*,*,#553,.F.);
#694=ORIENTED_EDGE('',*,*,#554,.F.);
#695=ORIENTED_EDGE('',*,*,#555,.F.);
#696=ORIENTED_EDGE('',*,*,#556,.T.);
#697=ORIENTED_EDGE('',*,*,#557,.F.);
#698=ORIENTED_EDGE('',*,*,#549,.F.);
#699=ORIENTED_EDGE('',*,*,#557,.T.);
#700=ORIENTED_EDGE('',*,*,#558,.T.);
#701=ORIENTED_EDGE('',*,*,#553,.T.);
#702=ORIENTED_EDGE('',*,*,#550,.T.);
#703=ORIENTED_EDGE('',*,*,#559,.F.);
#704=ORIENTED_EDGE('',*,*,#560,.T.);
#705=ORIENTED_EDGE('',*,*,#561,.F.);
#706=ORIENTED_EDGE('',*,*,#562,.F.);
#707=ORIENTED_EDGE('',*,*,#563,.F.);
#708=ORIENTED_EDGE('',*,*,#562,.T.);
#709=ORIENTED_EDGE('',*,*,#564,.F.);
#710=ORIENTED_EDGE('',*,*,#565,.F.);
#711=ORIENTED_EDGE('',*,*,#566,.F.);
#712=ORIENTED_EDGE('',*,*,#565,.T.);
#713=ORIENTED_EDGE('',*,*,#567,.F.);
#714=ORIENTED_EDGE('',*,*,#568,.F.);
#715=ORIENTED_EDGE('',*,*,#569,.F.);
#716=ORIENTED_EDGE('',*,*,#568,.T.);
#717=ORIENTED_EDGE('',*,*,#570,.F.);
#718=ORIENTED_EDGE('',*,*,#560,.F.);
#719=ORIENTED_EDGE('',*,*,#570,.T.);
#720=ORIENTED_EDGE('',*,*,#567,.T.);
#721=ORIENTED_EDGE('',*,*,#564,.T.);
#722=ORIENTED_EDGE('',*,*,#561,.T.);
#723=ORIENTED_EDGE('',*,*,#571,.F.);
#724=ORIENTED_EDGE('',*,*,#572,.T.);
#725=ORIENTED_EDGE('',*,*,#573,.F.);
#726=ORIENTED_EDGE('',*,*,#574,.F.);
#727=ORIENTED_EDGE('',*,*,#575,.F.);
#728=ORIENTED_EDGE('',*,*,#574,.T.);
#729=ORIENTED_EDGE('',*,*,#576,.F.);
#730=ORIENTED_EDGE('',*,*,#577,.F.);
#731=ORIENTED_EDGE('',*,*,#578,.F.);
#732=ORIENTED_EDGE('',*,*,#577,.T.);
#733=ORIENTED_EDGE('',*,*,#579,.F.);
#734=ORIENTED_EDGE('',*,*,#580,.F.);
#735=ORIENTED_EDGE('',*,*,#581,.F.);
#736=ORIENTED_EDGE('',*,*,#580,.T.);
#737=ORIENTED_EDGE('',*,*,#582,.F.);
#738=ORIENTED_EDGE('',*,*,#572,.F.);
#739=ORIENTED_EDGE('',*,*,#582,.T.);
#740=ORIENTED_EDGE('',*,*,#579,.T.);
#741=ORIENTED_EDGE('',*,*,#576,.T.);
#742=ORIENTED_EDGE('',*,*,#573,.T.);
#743=ORIENTED_EDGE('',*,*,#541,.T.);
#744=ORIENTED_EDGE('',*,*,#545,.T.);
#745=ORIENTED_EDGE('',*,*,#537,.T.);
#746=ORIENTED_EDGE('',*,*,#583,.T.);
#747=ORIENTED_EDGE('',*,*,#584,.T.);
#748=ORIENTED_EDGE('',*,*,#585,.T.);
#749=ORIENTED_EDGE('',*,*,#555,.T.);
#750=ORIENTED_EDGE('',*,*,#548,.T.);
#751=ORIENTED_EDGE('',*,*,#552,.T.);
#752=ORIENTED_EDGE('',*,*,#586,.T.);
#753=ORIENTED_EDGE('',*,*,#587,.T.);
#754=ORIENTED_EDGE('',*,*,#588,.T.);
#755=ORIENTED_EDGE('',*,*,#589,.T.);
#756=ORIENTED_EDGE('',*,*,#590,.T.);
#757=ORIENTED_EDGE('',*,*,#571,.T.);
#758=ORIENTED_EDGE('',*,*,#575,.T.);
#759=ORIENTED_EDGE('',*,*,#578,.T.);
#760=ORIENTED_EDGE('',*,*,#581,.T.);
#761=ORIENTED_EDGE('',*,*,#559,.T.);
#762=ORIENTED_EDGE('',*,*,#563,.T.);
#763=ORIENTED_EDGE('',*,*,#566,.T.);
#764=ORIENTED_EDGE('',*,*,#569,.T.);
#765=ORIENTED_EDGE('',*,*,#591,.T.);
#766=ORIENTED_EDGE('',*,*,#592,.T.);
#767=ORIENTED_EDGE('',*,*,#593,.T.);
#768=ORIENTED_EDGE('',*,*,#594,.T.);
#769=ORIENTED_EDGE('',*,*,#595,.T.);
#770=ORIENTED_EDGE('',*,*,#596,.T.);
#771=ORIENTED_EDGE('',*,*,#597,.F.);
#772=ORIENTED_EDGE('',*,*,#598,.T.);
#773=ORIENTED_EDGE('',*,*,#599,.T.);
#774=ORIENTED_EDGE('',*,*,#600,.F.);
#775=ORIENTED_EDGE('',*,*,#601,.F.);
#776=ORIENTED_EDGE('',*,*,#602,.F.);
#777=ORIENTED_EDGE('',*,*,#603,.F.);
#778=ORIENTED_EDGE('',*,*,#604,.T.);
#779=ORIENTED_EDGE('',*,*,#605,.T.);
#780=ORIENTED_EDGE('',*,*,#606,.F.);
#781=ORIENTED_EDGE('',*,*,#589,.F.);
#782=ORIENTED_EDGE('',*,*,#607,.T.);
#783=ORIENTED_EDGE('',*,*,#606,.T.);
#784=ORIENTED_EDGE('',*,*,#607,.F.);
#785=ORIENTED_EDGE('',*,*,#590,.F.);
#786=ORIENTED_EDGE('',*,*,#608,.T.);
#787=ORIENTED_EDGE('',*,*,#601,.T.);
#788=ORIENTED_EDGE('',*,*,#608,.F.);
#789=ORIENTED_EDGE('',*,*,#599,.F.);
#790=ORIENTED_EDGE('',*,*,#609,.T.);
#791=ORIENTED_EDGE('',*,*,#584,.F.);
#792=ORIENTED_EDGE('',*,*,#610,.F.);
#793=ORIENTED_EDGE('',*,*,#604,.F.);
#794=ORIENTED_EDGE('',*,*,#611,.T.);
#795=ORIENTED_EDGE('',*,*,#587,.F.);
#796=ORIENTED_EDGE('',*,*,#612,.F.);
#797=ORIENTED_EDGE('',*,*,#613,.F.);
#798=ORIENTED_EDGE('',*,*,#614,.T.);
#799=ORIENTED_EDGE('',*,*,#596,.F.);
#800=ORIENTED_EDGE('',*,*,#614,.F.);
#801=ORIENTED_EDGE('',*,*,#615,.F.);
#802=ORIENTED_EDGE('',*,*,#616,.T.);
#803=ORIENTED_EDGE('',*,*,#595,.F.);
#804=ORIENTED_EDGE('',*,*,#616,.F.);
#805=ORIENTED_EDGE('',*,*,#617,.F.);
#806=ORIENTED_EDGE('',*,*,#618,.T.);
#807=ORIENTED_EDGE('',*,*,#594,.F.);
#808=ORIENTED_EDGE('',*,*,#618,.F.);
#809=ORIENTED_EDGE('',*,*,#619,.F.);
#810=ORIENTED_EDGE('',*,*,#620,.T.);
#811=ORIENTED_EDGE('',*,*,#593,.F.);
#812=ORIENTED_EDGE('',*,*,#620,.F.);
#813=ORIENTED_EDGE('',*,*,#621,.F.);
#814=ORIENTED_EDGE('',*,*,#622,.T.);
#815=ORIENTED_EDGE('',*,*,#592,.F.);
#816=ORIENTED_EDGE('',*,*,#622,.F.);
#817=ORIENTED_EDGE('',*,*,#623,.F.);
#818=ORIENTED_EDGE('',*,*,#624,.T.);
#819=ORIENTED_EDGE('',*,*,#591,.F.);
#820=ORIENTED_EDGE('',*,*,#624,.F.);
#821=ORIENTED_EDGE('',*,*,#602,.T.);
#822=ORIENTED_EDGE('',*,*,#625,.T.);
#823=ORIENTED_EDGE('',*,*,#626,.F.);
#824=ORIENTED_EDGE('',*,*,#627,.F.);
#825=ORIENTED_EDGE('',*,*,#627,.T.);
#826=ORIENTED_EDGE('',*,*,#628,.F.);
#827=ORIENTED_EDGE('',*,*,#629,.F.);
#828=ORIENTED_EDGE('',*,*,#600,.T.);
#829=ORIENTED_EDGE('',*,*,#610,.T.);
#830=ORIENTED_EDGE('',*,*,#583,.F.);
#831=ORIENTED_EDGE('',*,*,#540,.T.);
#832=ORIENTED_EDGE('',*,*,#547,.F.);
#833=ORIENTED_EDGE('',*,*,#542,.F.);
#834=ORIENTED_EDGE('',*,*,#588,.F.);
#835=ORIENTED_EDGE('',*,*,#611,.F.);
#836=ORIENTED_EDGE('',*,*,#603,.T.);
#837=ORIENTED_EDGE('',*,*,#597,.T.);
#838=ORIENTED_EDGE('',*,*,#629,.T.);
#839=ORIENTED_EDGE('',*,*,#630,.F.);
#840=ORIENTED_EDGE('',*,*,#631,.F.);
#841=ORIENTED_EDGE('',*,*,#631,.T.);
#842=ORIENTED_EDGE('',*,*,#632,.F.);
#843=ORIENTED_EDGE('',*,*,#625,.F.);
#844=ORIENTED_EDGE('',*,*,#605,.F.);
#845=ORIENTED_EDGE('',*,*,#612,.T.);
#846=ORIENTED_EDGE('',*,*,#586,.F.);
#847=ORIENTED_EDGE('',*,*,#554,.T.);
#848=ORIENTED_EDGE('',*,*,#558,.F.);
#849=ORIENTED_EDGE('',*,*,#556,.F.);
#850=ORIENTED_EDGE('',*,*,#585,.F.);
#851=ORIENTED_EDGE('',*,*,#609,.F.);
#852=ORIENTED_EDGE('',*,*,#598,.F.);
#853=ORIENTED_EDGE('',*,*,#632,.T.);
#854=ORIENTED_EDGE('',*,*,#630,.T.);
#855=ORIENTED_EDGE('',*,*,#628,.T.);
#856=ORIENTED_EDGE('',*,*,#626,.T.);
#857=ORIENTED_EDGE('',*,*,#623,.T.);
#858=ORIENTED_EDGE('',*,*,#621,.T.);
#859=ORIENTED_EDGE('',*,*,#619,.T.);
#860=ORIENTED_EDGE('',*,*,#617,.T.);
#861=ORIENTED_EDGE('',*,*,#615,.T.);
#862=ORIENTED_EDGE('',*,*,#613,.T.);
#863=ORIENTED_EDGE('',*,*,#633,.T.);
#864=ORIENTED_EDGE('',*,*,#634,.T.);
#865=ORIENTED_EDGE('',*,*,#635,.T.);
#866=ORIENTED_EDGE('',*,*,#634,.F.);
#867=ORIENTED_EDGE('',*,*,#635,.F.);
#868=ORIENTED_EDGE('',*,*,#633,.F.);
#869=ORIENTED_EDGE('',*,*,#636,.T.);
#870=ORIENTED_EDGE('',*,*,#637,.T.);
#871=ORIENTED_EDGE('',*,*,#638,.T.);
#872=ORIENTED_EDGE('',*,*,#637,.F.);
#873=ORIENTED_EDGE('',*,*,#638,.F.);
#874=ORIENTED_EDGE('',*,*,#636,.F.);
#875=ORIENTED_EDGE('',*,*,#639,.T.);
#876=ORIENTED_EDGE('',*,*,#640,.T.);
#877=ORIENTED_EDGE('',*,*,#641,.T.);
#878=ORIENTED_EDGE('',*,*,#640,.F.);
#879=ORIENTED_EDGE('',*,*,#641,.F.);
#880=ORIENTED_EDGE('',*,*,#642,.T.);
#881=ORIENTED_EDGE('',*,*,#643,.T.);
#882=ORIENTED_EDGE('',*,*,#642,.F.);
#883=ORIENTED_EDGE('',*,*,#639,.F.);
#884=ORIENTED_EDGE('',*,*,#643,.F.);
#885=ORIENTED_EDGE('',*,*,#644,.T.);
#886=ORIENTED_EDGE('',*,*,#645,.T.);
#887=ORIENTED_EDGE('',*,*,#646,.T.);
#888=ORIENTED_EDGE('',*,*,#645,.F.);
#889=ORIENTED_EDGE('',*,*,#646,.F.);
#890=ORIENTED_EDGE('',*,*,#647,.T.);
#891=ORIENTED_EDGE('',*,*,#648,.T.);
#892=ORIENTED_EDGE('',*,*,#647,.F.);
#893=ORIENTED_EDGE('',*,*,#644,.F.);
#894=ORIENTED_EDGE('',*,*,#648,.F.);
#895=ORIENTED_EDGE('',*,*,#649,.T.);
#896=ORIENTED_EDGE('',*,*,#650,.T.);
#897=ORIENTED_EDGE('',*,*,#651,.T.);
#898=ORIENTED_EDGE('',*,*,#650,.F.);
#899=ORIENTED_EDGE('',*,*,#651,.F.);
#900=ORIENTED_EDGE('',*,*,#652,.T.);
#901=ORIENTED_EDGE('',*,*,#653,.T.);
#902=ORIENTED_EDGE('',*,*,#652,.F.);
#903=ORIENTED_EDGE('',*,*,#649,.F.);
#904=ORIENTED_EDGE('',*,*,#653,.F.);
#905=ORIENTED_EDGE('',*,*,#654,.T.);
#906=ORIENTED_EDGE('',*,*,#655,.T.);
#907=ORIENTED_EDGE('',*,*,#656,.T.);
#908=ORIENTED_EDGE('',*,*,#655,.F.);
#909=ORIENTED_EDGE('',*,*,#656,.F.);
#910=ORIENTED_EDGE('',*,*,#657,.T.);
#911=ORIENTED_EDGE('',*,*,#658,.T.);
#912=ORIENTED_EDGE('',*,*,#657,.F.);
#913=ORIENTED_EDGE('',*,*,#654,.F.);
#914=ORIENTED_EDGE('',*,*,#658,.F.);
#915=ORIENTED_EDGE('',*,*,#659,.F.);
#916=ORIENTED_EDGE('',*,*,#660,.T.);
#917=ORIENTED_EDGE('',*,*,#661,.F.);
#918=ORIENTED_EDGE('',*,*,#660,.F.);
#919=ORIENTED_EDGE('',*,*,#661,.T.);
#920=ORIENTED_EDGE('',*,*,#659,.T.);
#921=ORIENTED_EDGE('',*,*,#662,.F.);
#922=ORIENTED_EDGE('',*,*,#663,.T.);
#923=ORIENTED_EDGE('',*,*,#664,.F.);
#924=ORIENTED_EDGE('',*,*,#663,.F.);
#925=ORIENTED_EDGE('',*,*,#664,.T.);
#926=ORIENTED_EDGE('',*,*,#662,.T.);
#927=ORIENTED_EDGE('',*,*,#665,.F.);
#928=ORIENTED_EDGE('',*,*,#666,.T.);
#929=ORIENTED_EDGE('',*,*,#667,.F.);
#930=ORIENTED_EDGE('',*,*,#666,.F.);
#931=ORIENTED_EDGE('',*,*,#667,.T.);
#932=ORIENTED_EDGE('',*,*,#665,.T.);
#933=ORIENTED_EDGE('',*,*,#668,.F.);
#934=ORIENTED_EDGE('',*,*,#669,.T.);
#935=ORIENTED_EDGE('',*,*,#670,.F.);
#936=ORIENTED_EDGE('',*,*,#669,.F.);
#937=ORIENTED_EDGE('',*,*,#670,.T.);
#938=ORIENTED_EDGE('',*,*,#668,.T.);
#939=PLANE('',#1085);
#940=PLANE('',#1086);
#941=PLANE('',#1087);
#942=PLANE('',#1088);
#943=PLANE('',#1089);
#944=PLANE('',#1090);
#945=PLANE('',#1091);
#946=PLANE('',#1092);
#947=PLANE('',#1096);
#948=PLANE('',#1100);
#949=PLANE('',#1101);
#950=PLANE('',#1105);
#951=PLANE('',#1109);
#952=PLANE('',#1110);
#953=PLANE('',#1111);
#954=PLANE('',#1116);
#955=PLANE('',#1118);
#956=PLANE('',#1120);
#957=PLANE('',#1122);
#958=PLANE('',#1124);
#959=PLANE('',#1126);
#960=PLANE('',#1128);
#961=PLANE('',#1132);
#962=PLANE('',#1154);
#963=PLANE('',#1157);
#964=PLANE('',#1158);
#965=PLANE('',#1162);
#966=PLANE('',#1163);
#967=PLANE('',#1167);
#968=PLANE('',#1168);
#969=PLANE('',#1174);
#970=PLANE('',#1175);
#971=PLANE('',#1181);
#972=PLANE('',#1182);
#973=PLANE('',#1188);
#974=PLANE('',#1189);
#975=PLANE('',#1195);
#976=PLANE('',#1196);
#977=PLANE('',#1200);
#978=PLANE('',#1201);
#979=PLANE('',#1205);
#980=PLANE('',#1206);
#981=PLANE('',#1210);
#982=PLANE('',#1211);
#983=PLANE('',#1215);
#984=PLANE('',#1216);
#985=ADVANCED_FACE('',(#137),#939,.T.);
#986=ADVANCED_FACE('',(#138),#940,.T.);
#987=ADVANCED_FACE('',(#139),#941,.T.);
#988=ADVANCED_FACE('',(#140),#942,.T.);
#989=ADVANCED_FACE('',(#141),#943,.T.);
#990=ADVANCED_FACE('',(#142),#944,.T.);
#991=ADVANCED_FACE('',(#143),#945,.T.);
#992=ADVANCED_FACE('',(#144),#946,.T.);
#993=ADVANCED_FACE('',(#145),#111,.F.);
#994=ADVANCED_FACE('',(#146),#947,.T.);
#995=ADVANCED_FACE('',(#147),#112,.T.);
#996=ADVANCED_FACE('',(#148),#948,.T.);
#997=ADVANCED_FACE('',(#149),#949,.T.);
#998=ADVANCED_FACE('',(#150),#113,.T.);
#999=ADVANCED_FACE('',(#151),#950,.T.);
#1000=ADVANCED_FACE('',(#152),#114,.F.);
#1001=ADVANCED_FACE('',(#153),#951,.T.);
#1002=ADVANCED_FACE('',(#154),#952,.T.);
#1003=ADVANCED_FACE('',(#155,#39,#40,#41,#42),#953,.F.);
#1004=ADVANCED_FACE('',(#156),#954,.T.);
#1005=ADVANCED_FACE('',(#157),#955,.T.);
#1006=ADVANCED_FACE('',(#158),#956,.T.);
#1007=ADVANCED_FACE('',(#159),#957,.T.);
#1008=ADVANCED_FACE('',(#160),#958,.T.);
#1009=ADVANCED_FACE('',(#161),#959,.T.);
#1010=ADVANCED_FACE('',(#162,#43),#960,.T.);
#1011=ADVANCED_FACE('',(#163,#44),#961,.T.);
#1012=ADVANCED_FACE('',(#164),#115,.F.);
#1013=ADVANCED_FACE('',(#165),#116,.F.);
#1014=ADVANCED_FACE('',(#166),#117,.T.);
#1015=ADVANCED_FACE('',(#167),#118,.T.);
#1016=ADVANCED_FACE('',(#168),#119,.F.);
#1017=ADVANCED_FACE('',(#169),#120,.F.);
#1018=ADVANCED_FACE('',(#170),#121,.F.);
#1019=ADVANCED_FACE('',(#171),#122,.F.);
#1020=ADVANCED_FACE('',(#172),#123,.F.);
#1021=ADVANCED_FACE('',(#173),#124,.F.);
#1022=ADVANCED_FACE('',(#174),#125,.T.);
#1023=ADVANCED_FACE('',(#175),#962,.T.);
#1024=ADVANCED_FACE('',(#176),#126,.T.);
#1025=ADVANCED_FACE('',(#177),#963,.T.);
#1026=ADVANCED_FACE('',(#178,#45,#46,#47,#48,#49,#50),#964,.T.);
#1027=ADVANCED_FACE('',(#179),#127,.T.);
#1028=ADVANCED_FACE('',(#180),#965,.F.);
#1029=ADVANCED_FACE('',(#181),#966,.T.);
#1030=ADVANCED_FACE('',(#182),#128,.T.);
#1031=ADVANCED_FACE('',(#183),#967,.F.);
#1032=ADVANCED_FACE('',(#184),#968,.T.);
#1033=ADVANCED_FACE('',(#185),#13,.F.);
#1034=ADVANCED_FACE('',(#186),#129,.T.);
#1035=ADVANCED_FACE('',(#187),#969,.T.);
#1036=ADVANCED_FACE('',(#188),#970,.F.);
#1037=ADVANCED_FACE('',(#189),#14,.F.);
#1038=ADVANCED_FACE('',(#190),#130,.T.);
#1039=ADVANCED_FACE('',(#191),#971,.T.);
#1040=ADVANCED_FACE('',(#192),#972,.F.);
#1041=ADVANCED_FACE('',(#193),#15,.F.);
#1042=ADVANCED_FACE('',(#194),#131,.T.);
#1043=ADVANCED_FACE('',(#195),#973,.T.);
#1044=ADVANCED_FACE('',(#196),#974,.F.);
#1045=ADVANCED_FACE('',(#197),#16,.F.);
#1046=ADVANCED_FACE('',(#198),#132,.T.);
#1047=ADVANCED_FACE('',(#199),#975,.T.);
#1048=ADVANCED_FACE('',(#200),#976,.F.);
#1049=ADVANCED_FACE('',(#201),#133,.T.);
#1050=ADVANCED_FACE('',(#202),#977,.F.);
#1051=ADVANCED_FACE('',(#203),#978,.T.);
#1052=ADVANCED_FACE('',(#204),#134,.T.);
#1053=ADVANCED_FACE('',(#205),#979,.F.);
#1054=ADVANCED_FACE('',(#206),#980,.T.);
#1055=ADVANCED_FACE('',(#207),#135,.T.);
#1056=ADVANCED_FACE('',(#208),#981,.F.);
#1057=ADVANCED_FACE('',(#209),#982,.T.);
#1058=ADVANCED_FACE('',(#210),#136,.T.);
#1059=ADVANCED_FACE('',(#211),#983,.F.);
#1060=ADVANCED_FACE('',(#212),#984,.T.);
#1061=CLOSED_SHELL('',(#985,#986,#987,#988,#989,#990,#991,#992,#993,#994,
#995,#996,#997,#998,#999,#1000,#1001,#1002,#1003,#1004,#1005,#1006,#1007,
#1008,#1009,#1010,#1011,#1012,#1013,#1014,#1015,#1016,#1017,#1018,#1019,
#1020,#1021,#1022,#1023,#1024,#1025,#1026));
#1062=CLOSED_SHELL('',(#1027,#1028,#1029));
#1063=CLOSED_SHELL('',(#1030,#1031,#1032));
#1064=CLOSED_SHELL('',(#1033,#1034,#1035,#1036));
#1065=CLOSED_SHELL('',(#1037,#1038,#1039,#1040));
#1066=CLOSED_SHELL('',(#1041,#1042,#1043,#1044));
#1067=CLOSED_SHELL('',(#1045,#1046,#1047,#1048));
#1068=CLOSED_SHELL('',(#1049,#1050,#1051));
#1069=CLOSED_SHELL('',(#1052,#1053,#1054));
#1070=CLOSED_SHELL('',(#1055,#1056,#1057));
#1071=CLOSED_SHELL('',(#1058,#1059,#1060));
#1072=DERIVED_UNIT_ELEMENT(#1074,1.);
#1073=DERIVED_UNIT_ELEMENT(#1965,-3.);
#1074=(
MASS_UNIT()
NAMED_UNIT(*)
SI_UNIT(.KILO.,.GRAM.)
);
#1075=DERIVED_UNIT((#1072,#1073));
#1076=MEASURE_REPRESENTATION_ITEM('density measure',
POSITIVE_RATIO_MEASURE(7850.),#1075);
#1077=PROPERTY_DEFINITION_REPRESENTATION(#1082,#1079);
#1078=PROPERTY_DEFINITION_REPRESENTATION(#1083,#1080);
#1079=REPRESENTATION('material name',(#1081),#1962);
#1080=REPRESENTATION('density',(#1076),#1962);
#1081=DESCRIPTIVE_REPRESENTATION_ITEM('\X2\92FC\X0\','\X2\92FC\X0\');
#1082=PROPERTY_DEFINITION('material property','material name',#1972);
#1083=PROPERTY_DEFINITION('material property','density of part',#1972);
#1084=AXIS2_PLACEMENT_3D('',#1557,#1217,#1218);
#1085=AXIS2_PLACEMENT_3D('',#1558,#1219,#1220);
#1086=AXIS2_PLACEMENT_3D('',#1567,#1225,#1226);
#1087=AXIS2_PLACEMENT_3D('',#1576,#1231,#1232);
#1088=AXIS2_PLACEMENT_3D('',#1579,#1235,#1236);
#1089=AXIS2_PLACEMENT_3D('',#1581,#1238,#1239);
#1090=AXIS2_PLACEMENT_3D('',#1590,#1244,#1245);
#1091=AXIS2_PLACEMENT_3D('',#1596,#1249,#1250);
#1092=AXIS2_PLACEMENT_3D('',#1602,#1254,#1255);
#1093=AXIS2_PLACEMENT_3D('',#1604,#1257,#1258);
#1094=AXIS2_PLACEMENT_3D('',#1607,#1259,#1260);
#1095=AXIS2_PLACEMENT_3D('',#1611,#1262,#1263);
#1096=AXIS2_PLACEMENT_3D('',#1613,#1265,#1266);
#1097=AXIS2_PLACEMENT_3D('',#1619,#1270,#1271);
#1098=AXIS2_PLACEMENT_3D('',#1621,#1272,#1273);
#1099=AXIS2_PLACEMENT_3D('',#1623,#1274,#1275);
#1100=AXIS2_PLACEMENT_3D('',#1625,#1277,#1278);
#1101=AXIS2_PLACEMENT_3D('',#1628,#1281,#1282);
#1102=AXIS2_PLACEMENT_3D('',#1629,#1283,#1284);
#1103=AXIS2_PLACEMENT_3D('',#1632,#1285,#1286);
#1104=AXIS2_PLACEMENT_3D('',#1636,#1288,#1289);
#1105=AXIS2_PLACEMENT_3D('',#1638,#1291,#1292);
#1106=AXIS2_PLACEMENT_3D('',#1644,#1296,#1297);
#1107=AXIS2_PLACEMENT_3D('',#1646,#1298,#1299);
#1108=AXIS2_PLACEMENT_3D('',#1648,#1300,#1301);
#1109=AXIS2_PLACEMENT_3D('',#1650,#1303,#1304);
#1110=AXIS2_PLACEMENT_3D('',#1653,#1307,#1308);
#1111=AXIS2_PLACEMENT_3D('',#1654,#1309,#1310);
#1112=AXIS2_PLACEMENT_3D('',#1658,#1312,#1313);
#1113=AXIS2_PLACEMENT_3D('',#1663,#1316,#1317);
#1114=AXIS2_PLACEMENT_3D('',#1666,#1319,#1320);
#1115=AXIS2_PLACEMENT_3D('',#1668,#1321,#1322);
#1116=AXIS2_PLACEMENT_3D('',#1669,#1323,#1324);
#1117=AXIS2_PLACEMENT_3D('',#1671,#1325,#1326);
#1118=AXIS2_PLACEMENT_3D('',#1672,#1327,#1328);
#1119=AXIS2_PLACEMENT_3D('',#1674,#1329,#1330);
#1120=AXIS2_PLACEMENT_3D('',#1675,#1331,#1332);
#1121=AXIS2_PLACEMENT_3D('',#1677,#1333,#1334);
#1122=AXIS2_PLACEMENT_3D('',#1678,#1335,#1336);
#1123=AXIS2_PLACEMENT_3D('',#1680,#1337,#1338);
#1124=AXIS2_PLACEMENT_3D('',#1681,#1339,#1340);
#1125=AXIS2_PLACEMENT_3D('',#1683,#1341,#1342);
#1126=AXIS2_PLACEMENT_3D('',#1684,#1343,#1344);
#1127=AXIS2_PLACEMENT_3D('',#1686,#1345,#1346);
#1128=AXIS2_PLACEMENT_3D('',#1687,#1347,#1348);
#1129=AXIS2_PLACEMENT_3D('',#1690,#1349,#1350);
#1130=AXIS2_PLACEMENT_3D('',#1694,#1352,#1353);
#1131=AXIS2_PLACEMENT_3D('',#1697,#1355,#1356);
#1132=AXIS2_PLACEMENT_3D('',#1698,#1357,#1358);
#1133=AXIS2_PLACEMENT_3D('',#1701,#1359,#1360);
#1134=AXIS2_PLACEMENT_3D('',#1705,#1362,#1363);
#1135=AXIS2_PLACEMENT_3D('',#1708,#1365,#1366);
#1136=AXIS2_PLACEMENT_3D('',#1709,#1367,#1368);
#1137=AXIS2_PLACEMENT_3D('',#1711,#1370,#1371);
#1138=AXIS2_PLACEMENT_3D('',#1713,#1373,#1374);
#1139=AXIS2_PLACEMENT_3D('',#1716,#1377,#1378);
#1140=AXIS2_PLACEMENT_3D('',#1719,#1381,#1382);
#1141=AXIS2_PLACEMENT_3D('',#1721,#1383,#1384);
#1142=AXIS2_PLACEMENT_3D('',#1723,#1386,#1387);
#1143=AXIS2_PLACEMENT_3D('',#1725,#1388,#1389);
#1144=AXIS2_PLACEMENT_3D('',#1727,#1391,#1392);
#1145=AXIS2_PLACEMENT_3D('',#1729,#1393,#1394);
#1146=AXIS2_PLACEMENT_3D('',#1731,#1396,#1397);
#1147=AXIS2_PLACEMENT_3D('',#1733,#1398,#1399);
#1148=AXIS2_PLACEMENT_3D('',#1735,#1401,#1402);
#1149=AXIS2_PLACEMENT_3D('',#1737,#1403,#1404);
#1150=AXIS2_PLACEMENT_3D('',#1739,#1406,#1407);
#1151=AXIS2_PLACEMENT_3D('',#1741,#1408,#1409);
#1152=AXIS2_PLACEMENT_3D('',#1743,#1411,#1412);
#1153=AXIS2_PLACEMENT_3D('',#1747,#1414,#1415);
#1154=AXIS2_PLACEMENT_3D('',#1749,#1417,#1418);
#1155=AXIS2_PLACEMENT_3D('',#1753,#1421,#1422);
#1156=AXIS2_PLACEMENT_3D('',#1755,#1423,#1424);
#1157=AXIS2_PLACEMENT_3D('',#1757,#1426,#1427);
#1158=AXIS2_PLACEMENT_3D('',#1759,#1429,#1430);
#1159=AXIS2_PLACEMENT_3D('',#1760,#1431,#1432);
#1160=AXIS2_PLACEMENT_3D('',#1762,#1433,#1434);
#1161=AXIS2_PLACEMENT_3D('',#1765,#1436,#1437);
#1162=AXIS2_PLACEMENT_3D('',#1766,#1438,#1439);
#1163=AXIS2_PLACEMENT_3D('',#1767,#1440,#1441);
#1164=AXIS2_PLACEMENT_3D('',#1768,#1442,#1443);
#1165=AXIS2_PLACEMENT_3D('',#1770,#1444,#1445);
#1166=AXIS2_PLACEMENT_3D('',#1773,#1447,#1448);
#1167=AXIS2_PLACEMENT_3D('',#1774,#1449,#1450);
#1168=AXIS2_PLACEMENT_3D('',#1775,#1451,#1452);
#1169=AXIS2_PLACEMENT_3D('',#1804,#1453,#1454);
#1170=AXIS2_PLACEMENT_3D('',#1806,#1455,#1456);
#1171=AXIS2_PLACEMENT_3D('',#1807,#1457,#1458);
#1172=AXIS2_PLACEMENT_3D('',#1808,#1459,#1460);
#1173=AXIS2_PLACEMENT_3D('',#1811,#1462,#1463);
#1174=AXIS2_PLACEMENT_3D('',#1812,#1464,#1465);
#1175=AXIS2_PLACEMENT_3D('',#1813,#1466,#1467);
#1176=AXIS2_PLACEMENT_3D('',#1842,#1468,#1469);
#1177=AXIS2_PLACEMENT_3D('',#1844,#1470,#1471);
#1178=AXIS2_PLACEMENT_3D('',#1845,#1472,#1473);
#1179=AXIS2_PLACEMENT_3D('',#1846,#1474,#1475);
#1180=AXIS2_PLACEMENT_3D('',#1849,#1477,#1478);
#1181=AXIS2_PLACEMENT_3D('',#1850,#1479,#1480);
#1182=AXIS2_PLACEMENT_3D('',#1851,#1481,#1482);
#1183=AXIS2_PLACEMENT_3D('',#1880,#1483,#1484);
#1184=AXIS2_PLACEMENT_3D('',#1882,#1485,#1486);
#1185=AXIS2_PLACEMENT_3D('',#1883,#1487,#1488);
#1186=AXIS2_PLACEMENT_3D('',#1884,#1489,#1490);
#1187=AXIS2_PLACEMENT_3D('',#1887,#1492,#1493);
#1188=AXIS2_PLACEMENT_3D('',#1888,#1494,#1495);
#1189=AXIS2_PLACEMENT_3D('',#1889,#1496,#1497);
#1190=AXIS2_PLACEMENT_3D('',#1918,#1498,#1499);
#1191=AXIS2_PLACEMENT_3D('',#1920,#1500,#1501);
#1192=AXIS2_PLACEMENT_3D('',#1921,#1502,#1503);
#1193=AXIS2_PLACEMENT_3D('',#1922,#1504,#1505);
#1194=AXIS2_PLACEMENT_3D('',#1925,#1507,#1508);
#1195=AXIS2_PLACEMENT_3D('',#1926,#1509,#1510);
#1196=AXIS2_PLACEMENT_3D('',#1927,#1511,#1512);
#1197=AXIS2_PLACEMENT_3D('',#1928,#1513,#1514);
#1198=AXIS2_PLACEMENT_3D('',#1930,#1515,#1516);
#1199=AXIS2_PLACEMENT_3D('',#1933,#1518,#1519);
#1200=AXIS2_PLACEMENT_3D('',#1934,#1520,#1521);
#1201=AXIS2_PLACEMENT_3D('',#1935,#1522,#1523);
#1202=AXIS2_PLACEMENT_3D('',#1936,#1524,#1525);
#1203=AXIS2_PLACEMENT_3D('',#1938,#1526,#1527);
#1204=AXIS2_PLACEMENT_3D('',#1941,#1529,#1530);
#1205=AXIS2_PLACEMENT_3D('',#1942,#1531,#1532);
#1206=AXIS2_PLACEMENT_3D('',#1943,#1533,#1534);
#1207=AXIS2_PLACEMENT_3D('',#1944,#1535,#1536);
#1208=AXIS2_PLACEMENT_3D('',#1946,#1537,#1538);
#1209=AXIS2_PLACEMENT_3D('',#1949,#1540,#1541);
#1210=AXIS2_PLACEMENT_3D('',#1950,#1542,#1543);
#1211=AXIS2_PLACEMENT_3D('',#1951,#1544,#1545);
#1212=AXIS2_PLACEMENT_3D('',#1952,#1546,#1547);
#1213=AXIS2_PLACEMENT_3D('',#1954,#1548,#1549);
#1214=AXIS2_PLACEMENT_3D('',#1957,#1551,#1552);
#1215=AXIS2_PLACEMENT_3D('',#1958,#1553,#1554);
#1216=AXIS2_PLACEMENT_3D('',#1959,#1555,#1556);
#1217=DIRECTION('axis',(0.,0.,1.));
#1218=DIRECTION('refdir',(1.,0.,0.));
#1219=DIRECTION('center_axis',(1.,0.,0.));
#1220=DIRECTION('ref_axis',(0.,-1.,0.));
#1221=DIRECTION('',(0.,1.,0.));
#1222=DIRECTION('',(0.,0.,-1.));
#1223=DIRECTION('',(0.,-1.,0.));
#1224=DIRECTION('',(0.,0.,-1.));
#1225=DIRECTION('center_axis',(-1.,-1.89526740409578E-15,0.));
#1226=DIRECTION('ref_axis',(-1.89526740409578E-15,1.,0.));
#1227=DIRECTION('',(1.89526740409578E-15,-1.,0.));
#1228=DIRECTION('',(0.,0.,-1.));
#1229=DIRECTION('',(-1.89526740409578E-15,1.,0.));
#1230=DIRECTION('',(0.,0.,-1.));
#1231=DIRECTION('center_axis',(4.55945407615264E-8,-0.999999999999999,0.));
#1232=DIRECTION('ref_axis',(-0.999999999999999,-4.55945407615264E-8,0.));
#1233=DIRECTION('',(0.999999999999999,4.55945407615264E-8,0.));
#1234=DIRECTION('',(-0.999999999999999,-4.55945407615264E-8,0.));
#1235=DIRECTION('center_axis',(0.,0.,-1.));
#1236=DIRECTION('ref_axis',(-1.,0.,0.));
#1237=DIRECTION('',(1.,0.,0.));
#1238=DIRECTION('center_axis',(4.55945408943283E-8,0.999999999999999,0.));
#1239=DIRECTION('ref_axis',(0.999999999999999,-4.55945408943283E-8,0.));
#1240=DIRECTION('',(-0.999999999999999,4.55945408943283E-8,0.));
#1241=DIRECTION('',(0.,0.,-1.));
#1242=DIRECTION('',(0.999999999999999,-4.55945408943283E-8,0.));
#1243=DIRECTION('',(0.,0.,-1.));
#1244=DIRECTION('center_axis',(-1.,-1.89526740409577E-15,0.));
#1245=DIRECTION('ref_axis',(-1.89526740409577E-15,1.,0.));
#1246=DIRECTION('',(1.89526740409577E-15,-1.,0.));
#1247=DIRECTION('',(-1.89526740409577E-15,1.,0.));
#1248=DIRECTION('',(0.,0.,-1.));
#1249=DIRECTION('center_axis',(1.,0.,0.));
#1250=DIRECTION('ref_axis',(0.,-1.,0.));
#1251=DIRECTION('',(0.,1.,0.));
#1252=DIRECTION('',(0.,0.,-1.));
#1253=DIRECTION('',(0.,-1.,0.));
#1254=DIRECTION('center_axis',(0.,0.,-1.));
#1255=DIRECTION('ref_axis',(-1.,0.,0.));
#1256=DIRECTION('',(-1.,0.,0.));
#1257=DIRECTION('center_axis',(0.,0.,-1.));
#1258=DIRECTION('ref_axis',(1.,0.,0.));
#1259=DIRECTION('center_axis',(0.,0.,-1.));
#1260=DIRECTION('ref_axis',(1.,0.,0.));
#1261=DIRECTION('',(0.,0.,-1.));
#1262=DIRECTION('center_axis',(0.,0.,1.));
#1263=DIRECTION('ref_axis',(1.,0.,0.));
#1264=DIRECTION('',(0.,0.,-1.));
#1265=DIRECTION('center_axis',(-1.,0.,0.));
#1266=DIRECTION('ref_axis',(0.,1.,0.));
#1267=DIRECTION('',(0.,-1.,0.));
#1268=DIRECTION('',(0.,1.,0.));
#1269=DIRECTION('',(0.,0.,-1.));
#1270=DIRECTION('center_axis',(0.,0.,-1.));
#1271=DIRECTION('ref_axis',(0.,-1.,0.));
#1272=DIRECTION('center_axis',(0.,0.,1.));
#1273=DIRECTION('ref_axis',(0.,-1.,0.));
#1274=DIRECTION('center_axis',(0.,0.,-1.));
#1275=DIRECTION('ref_axis',(0.,-1.,0.));
#1276=DIRECTION('',(0.,0.,-1.));
#1277=DIRECTION('center_axis',(-1.,0.,0.));
#1278=DIRECTION('ref_axis',(0.,1.,0.));
#1279=DIRECTION('',(0.,-1.,0.));
#1280=DIRECTION('',(0.,1.,0.));
#1281=DIRECTION('center_axis',(0.,0.,-1.));
#1282=DIRECTION('ref_axis',(-1.,0.,0.));
#1283=DIRECTION('center_axis',(0.,0.,-1.));
#1284=DIRECTION('ref_axis',(7.83395396885859E-7,0.999999999999693,0.));
#1285=DIRECTION('center_axis',(0.,0.,1.));
#1286=DIRECTION('ref_axis',(7.83395396885859E-7,0.999999999999693,0.));
#1287=DIRECTION('',(0.,0.,-1.));
#1288=DIRECTION('center_axis',(0.,0.,-1.));
#1289=DIRECTION('ref_axis',(7.83395396885859E-7,0.999999999999693,0.));
#1290=DIRECTION('',(0.,0.,-1.));
#1291=DIRECTION('center_axis',(1.,0.,0.));
#1292=DIRECTION('ref_axis',(0.,-1.,0.));
#1293=DIRECTION('',(0.,1.,0.));
#1294=DIRECTION('',(0.,-1.,0.));
#1295=DIRECTION('',(0.,0.,-1.));
#1296=DIRECTION('center_axis',(0.,0.,-1.));
#1297=DIRECTION('ref_axis',(-1.,7.6571373978539E-16,0.));
#1298=DIRECTION('center_axis',(0.,0.,-1.));
#1299=DIRECTION('ref_axis',(1.,0.,0.));
#1300=DIRECTION('center_axis',(0.,0.,1.));
#1301=DIRECTION('ref_axis',(1.,0.,0.));
#1302=DIRECTION('',(0.,0.,-1.));
#1303=DIRECTION('center_axis',(1.,0.,0.));
#1304=DIRECTION('ref_axis',(0.,-1.,0.));
#1305=DIRECTION('',(0.,1.,0.));
#1306=DIRECTION('',(0.,-1.,0.));
#1307=DIRECTION('center_axis',(0.,0.,-1.));
#1308=DIRECTION('ref_axis',(-1.,0.,0.));
#1309=DIRECTION('center_axis',(0.,0.,1.));
#1310=DIRECTION('ref_axis',(1.,0.,0.));
#1311=DIRECTION('',(1.,0.,0.));
#1312=DIRECTION('center_axis',(0.,0.,-1.));
#1313=DIRECTION('ref_axis',(0.,-1.,0.));
#1314=DIRECTION('',(-1.,0.,0.));
#1315=DIRECTION('',(-1.,0.,0.));
#1316=DIRECTION('center_axis',(0.,0.,-1.));
#1317=DIRECTION('ref_axis',(0.,1.,0.));
#1318=DIRECTION('',(1.,0.,0.));
#1319=DIRECTION('center_axis',(0.,0.,1.));
#1320=DIRECTION('ref_axis',(1.,0.,0.));
#1321=DIRECTION('center_axis',(0.,0.,1.));
#1322=DIRECTION('ref_axis',(1.,0.,0.));
#1323=DIRECTION('center_axis',(0.,0.,1.));
#1324=DIRECTION('ref_axis',(1.,0.,0.));
#1325=DIRECTION('center_axis',(0.,0.,1.));
#1326=DIRECTION('ref_axis',(1.,0.,0.));
#1327=DIRECTION('center_axis',(0.,0.,1.));
#1328=DIRECTION('ref_axis',(1.,0.,0.));
#1329=DIRECTION('center_axis',(0.,0.,1.));
#1330=DIRECTION('ref_axis',(1.,0.,0.));
#1331=DIRECTION('center_axis',(0.,0.,1.));
#1332=DIRECTION('ref_axis',(1.,0.,0.));
#1333=DIRECTION('center_axis',(0.,0.,1.));
#1334=DIRECTION('ref_axis',(1.,0.,0.));
#1335=DIRECTION('center_axis',(0.,0.,1.));
#1336=DIRECTION('ref_axis',(1.,0.,0.));
#1337=DIRECTION('center_axis',(0.,0.,1.));
#1338=DIRECTION('ref_axis',(1.,0.,0.));
#1339=DIRECTION('center_axis',(0.,0.,1.));
#1340=DIRECTION('ref_axis',(1.,0.,0.));
#1341=DIRECTION('center_axis',(0.,0.,1.));
#1342=DIRECTION('ref_axis',(1.,0.,0.));
#1343=DIRECTION('center_axis',(0.,0.,1.));
#1344=DIRECTION('ref_axis',(1.,0.,0.));
#1345=DIRECTION('center_axis',(0.,0.,1.));
#1346=DIRECTION('ref_axis',(1.,0.,0.));
#1347=DIRECTION('center_axis',(0.,0.,1.));
#1348=DIRECTION('ref_axis',(1.,0.,0.));
#1349=DIRECTION('center_axis',(0.,0.,1.));
#1350=DIRECTION('ref_axis',(0.,-1.,0.));
#1351=DIRECTION('',(1.,0.,0.));
#1352=DIRECTION('center_axis',(0.,0.,1.));
#1353=DIRECTION('ref_axis',(0.,-1.,0.));
#1354=DIRECTION('',(1.,0.,0.));
#1355=DIRECTION('center_axis',(0.,0.,1.));
#1356=DIRECTION('ref_axis',(1.,0.,0.));
#1357=DIRECTION('center_axis',(0.,0.,1.));
#1358=DIRECTION('ref_axis',(1.,0.,0.));
#1359=DIRECTION('center_axis',(0.,0.,1.));
#1360=DIRECTION('ref_axis',(7.83395396885859E-7,0.999999999999693,0.));
#1361=DIRECTION('',(1.,0.,0.));
#1362=DIRECTION('center_axis',(0.,0.,1.));
#1363=DIRECTION('ref_axis',(0.,1.,0.));
#1364=DIRECTION('',(1.,0.,0.));
#1365=DIRECTION('center_axis',(0.,0.,1.));
#1366=DIRECTION('ref_axis',(1.,0.,0.));
#1367=DIRECTION('center_axis',(0.,0.,-1.));
#1368=DIRECTION('ref_axis',(1.,0.,0.));
#1369=DIRECTION('',(0.,0.,1.));
#1370=DIRECTION('center_axis',(0.,0.,-1.));
#1371=DIRECTION('ref_axis',(1.,0.,0.));
#1372=DIRECTION('',(0.,0.,1.));
#1373=DIRECTION('center_axis',(0.,0.,-1.));
#1374=DIRECTION('ref_axis',(0.,-1.,0.));
#1375=DIRECTION('',(0.,0.,-1.));
#1376=DIRECTION('',(0.,0.,-1.));
#1377=DIRECTION('center_axis',(0.,0.,-1.));
#1378=DIRECTION('ref_axis',(0.,1.,0.));
#1379=DIRECTION('',(0.,0.,-1.));
#1380=DIRECTION('',(0.,0.,-1.));
#1381=DIRECTION('center_axis',(0.,0.,1.));
#1382=DIRECTION('ref_axis',(1.,0.,0.));
#1383=DIRECTION('center_axis',(0.,0.,-1.));
#1384=DIRECTION('ref_axis',(1.,0.,0.));
#1385=DIRECTION('',(0.,0.,-1.));
#1386=DIRECTION('center_axis',(0.,0.,1.));
#1387=DIRECTION('ref_axis',(1.,0.,0.));
#1388=DIRECTION('center_axis',(0.,0.,-1.));
#1389=DIRECTION('ref_axis',(1.,0.,0.));
#1390=DIRECTION('',(0.,0.,-1.));
#1391=DIRECTION('center_axis',(0.,0.,1.));
#1392=DIRECTION('ref_axis',(1.,0.,0.));
#1393=DIRECTION('center_axis',(0.,0.,-1.));
#1394=DIRECTION('ref_axis',(1.,0.,0.));
#1395=DIRECTION('',(0.,0.,-1.));
#1396=DIRECTION('center_axis',(0.,0.,1.));
#1397=DIRECTION('ref_axis',(1.,0.,0.));
#1398=DIRECTION('center_axis',(0.,0.,-1.));
#1399=DIRECTION('ref_axis',(1.,0.,0.));
#1400=DIRECTION('',(0.,0.,-1.));
#1401=DIRECTION('center_axis',(0.,0.,1.));
#1402=DIRECTION('ref_axis',(1.,0.,0.));
#1403=DIRECTION('center_axis',(0.,0.,-1.));
#1404=DIRECTION('ref_axis',(1.,0.,0.));
#1405=DIRECTION('',(0.,0.,-1.));
#1406=DIRECTION('center_axis',(0.,0.,1.));
#1407=DIRECTION('ref_axis',(1.,0.,0.));
#1408=DIRECTION('center_axis',(0.,0.,-1.));
#1409=DIRECTION('ref_axis',(1.,0.,0.));
#1410=DIRECTION('',(0.,0.,-1.));
#1411=DIRECTION('center_axis',(0.,0.,1.));
#1412=DIRECTION('ref_axis',(-0.999999999999685,-7.9320801798501E-7,0.));
#1413=DIRECTION('',(0.,0.,1.));
#1414=DIRECTION('center_axis',(0.,0.,1.));
#1415=DIRECTION('ref_axis',(7.83395396885859E-7,0.999999999999693,0.));
#1416=DIRECTION('',(0.,0.,1.));
#1417=DIRECTION('center_axis',(0.,1.,0.));
#1418=DIRECTION('ref_axis',(-1.,0.,0.));
#1419=DIRECTION('',(-1.,0.,0.));
#1420=DIRECTION('',(0.,0.,1.));
#1421=DIRECTION('center_axis',(0.,0.,1.));
#1422=DIRECTION('ref_axis',(0.,-1.,0.));
#1423=DIRECTION('center_axis',(0.,0.,1.));
#1424=DIRECTION('ref_axis',(0.,-1.,0.));
#1425=DIRECTION('',(0.,0.,1.));
#1426=DIRECTION('center_axis',(0.,-1.,0.));
#1427=DIRECTION('ref_axis',(1.,0.,0.));
#1428=DIRECTION('',(1.,0.,0.));
#1429=DIRECTION('center_axis',(0.,0.,1.));
#1430=DIRECTION('ref_axis',(1.,0.,0.));
#1431=DIRECTION('center_axis',(0.,0.,1.));
#1432=DIRECTION('ref_axis',(1.,0.,0.));
#1433=DIRECTION('center_axis',(0.,0.,-1.));
#1434=DIRECTION('ref_axis',(1.,0.,0.));
#1435=DIRECTION('',(0.,0.,-1.));
#1436=DIRECTION('center_axis',(0.,0.,1.));
#1437=DIRECTION('ref_axis',(1.,0.,0.));
#1438=DIRECTION('center_axis',(0.,0.,1.));
#1439=DIRECTION('ref_axis',(1.,0.,0.));
#1440=DIRECTION('center_axis',(0.,0.,1.));
#1441=DIRECTION('ref_axis',(1.,0.,0.));
#1442=DIRECTION('center_axis',(0.,0.,1.));
#1443=DIRECTION('ref_axis',(1.,0.,0.));
#1444=DIRECTION('center_axis',(0.,0.,-1.));
#1445=DIRECTION('ref_axis',(1.,0.,0.));
#1446=DIRECTION('',(0.,0.,-1.));
#1447=DIRECTION('center_axis',(0.,0.,1.));
#1448=DIRECTION('ref_axis',(1.,0.,0.));
#1449=DIRECTION('center_axis',(0.,0.,1.));
#1450=DIRECTION('ref_axis',(1.,0.,0.));
#1451=DIRECTION('center_axis',(0.,0.,1.));
#1452=DIRECTION('ref_axis',(1.,0.,0.));
#1453=DIRECTION('center_axis',(0.,0.,-1.));
#1454=DIRECTION('ref_axis',(1.,0.,0.));
#1455=DIRECTION('center_axis',(1.22464679914735E-16,-1.,0.));
#1456=DIRECTION('ref_axis',(-1.,-1.22464679914735E-16,0.));
#1457=DIRECTION('center_axis',(0.,0.,1.));
#1458=DIRECTION('ref_axis',(1.,0.,0.));
#1459=DIRECTION('center_axis',(0.,0.,1.));
#1460=DIRECTION('ref_axis',(1.,0.,0.));
#1461=DIRECTION('',(0.,0.,-1.));
#1462=DIRECTION('center_axis',(0.,0.,1.));
#1463=DIRECTION('ref_axis',(1.,0.,0.));
#1464=DIRECTION('center_axis',(0.,0.,1.));
#1465=DIRECTION('ref_axis',(1.,0.,0.));
#1466=DIRECTION('center_axis',(0.,0.,1.));
#1467=DIRECTION('ref_axis',(1.,0.,0.));
#1468=DIRECTION('center_axis',(0.,0.,-1.));
#1469=DIRECTION('ref_axis',(1.,0.,0.));
#1470=DIRECTION('center_axis',(1.22464679914735E-16,-1.,0.));
#1471=DIRECTION('ref_axis',(-1.,-1.22464679914735E-16,0.));
#1472=DIRECTION('center_axis',(0.,0.,1.));
#1473=DIRECTION('ref_axis',(1.,0.,0.));
#1474=DIRECTION('center_axis',(0.,0.,1.));
#1475=DIRECTION('ref_axis',(1.,0.,0.));
#1476=DIRECTION('',(0.,0.,-1.));
#1477=DIRECTION('center_axis',(0.,0.,1.));
#1478=DIRECTION('ref_axis',(1.,0.,0.));
#1479=DIRECTION('center_axis',(0.,0.,1.));
#1480=DIRECTION('ref_axis',(1.,0.,0.));
#1481=DIRECTION('center_axis',(0.,0.,1.));
#1482=DIRECTION('ref_axis',(1.,0.,0.));
#1483=DIRECTION('center_axis',(0.,0.,-1.));
#1484=DIRECTION('ref_axis',(1.,0.,0.));
#1485=DIRECTION('center_axis',(1.22464679914735E-16,-1.,0.));
#1486=DIRECTION('ref_axis',(-1.,-1.22464679914735E-16,0.));
#1487=DIRECTION('center_axis',(0.,0.,1.));
#1488=DIRECTION('ref_axis',(1.,0.,0.));
#1489=DIRECTION('center_axis',(0.,0.,1.));
#1490=DIRECTION('ref_axis',(1.,0.,0.));
#1491=DIRECTION('',(0.,0.,-1.));
#1492=DIRECTION('center_axis',(0.,0.,1.));
#1493=DIRECTION('ref_axis',(1.,0.,0.));
#1494=DIRECTION('center_axis',(0.,0.,1.));
#1495=DIRECTION('ref_axis',(1.,0.,0.));
#1496=DIRECTION('center_axis',(0.,0.,1.));
#1497=DIRECTION('ref_axis',(1.,0.,0.));
#1498=DIRECTION('center_axis',(0.,0.,-1.));
#1499=DIRECTION('ref_axis',(1.,0.,0.));
#1500=DIRECTION('center_axis',(1.22464679914735E-16,-1.,0.));
#1501=DIRECTION('ref_axis',(-1.,-1.22464679914735E-16,0.));
#1502=DIRECTION('center_axis',(0.,0.,1.));
#1503=DIRECTION('ref_axis',(1.,0.,0.));
#1504=DIRECTION('center_axis',(0.,0.,1.));
#1505=DIRECTION('ref_axis',(1.,0.,0.));
#1506=DIRECTION('',(0.,0.,-1.));
#1507=DIRECTION('center_axis',(0.,0.,1.));
#1508=DIRECTION('ref_axis',(1.,0.,0.));
#1509=DIRECTION('center_axis',(0.,0.,1.));
#1510=DIRECTION('ref_axis',(1.,0.,0.));
#1511=DIRECTION('center_axis',(0.,0.,1.));
#1512=DIRECTION('ref_axis',(1.,0.,0.));
#1513=DIRECTION('center_axis',(0.,0.,-1.));
#1514=DIRECTION('ref_axis',(1.,0.,0.));
#1515=DIRECTION('center_axis',(0.,0.,-1.));
#1516=DIRECTION('ref_axis',(1.,0.,0.));
#1517=DIRECTION('',(0.,0.,1.));
#1518=DIRECTION('center_axis',(0.,0.,1.));
#1519=DIRECTION('ref_axis',(1.,0.,0.));
#1520=DIRECTION('center_axis',(0.,0.,-1.));
#1521=DIRECTION('ref_axis',(-1.,0.,0.));
#1522=DIRECTION('center_axis',(0.,0.,-1.));
#1523=DIRECTION('ref_axis',(-1.,0.,0.));
#1524=DIRECTION('center_axis',(0.,0.,-1.));
#1525=DIRECTION('ref_axis',(1.,0.,0.));
#1526=DIRECTION('center_axis',(0.,0.,-1.));
#1527=DIRECTION('ref_axis',(1.,0.,0.));
#1528=DIRECTION('',(0.,0.,1.));
#1529=DIRECTION('center_axis',(0.,0.,1.));
#1530=DIRECTION('ref_axis',(1.,0.,0.));
#1531=DIRECTION('center_axis',(0.,0.,-1.));
#1532=DIRECTION('ref_axis',(-1.,0.,0.));
#1533=DIRECTION('center_axis',(0.,0.,-1.));
#1534=DIRECTION('ref_axis',(-1.,0.,0.));
#1535=DIRECTION('center_axis',(0.,0.,-1.));
#1536=DIRECTION('ref_axis',(1.,0.,0.));
#1537=DIRECTION('center_axis',(0.,0.,-1.));
#1538=DIRECTION('ref_axis',(1.,0.,0.));
#1539=DIRECTION('',(0.,0.,1.));
#1540=DIRECTION('center_axis',(0.,0.,1.));
#1541=DIRECTION('ref_axis',(1.,0.,0.));
#1542=DIRECTION('center_axis',(0.,0.,-1.));
#1543=DIRECTION('ref_axis',(-1.,0.,0.));
#1544=DIRECTION('center_axis',(0.,0.,-1.));
#1545=DIRECTION('ref_axis',(-1.,0.,0.));
#1546=DIRECTION('center_axis',(0.,0.,-1.));
#1547=DIRECTION('ref_axis',(1.,0.,0.));
#1548=DIRECTION('center_axis',(0.,0.,-1.));
#1549=DIRECTION('ref_axis',(1.,0.,0.));
#1550=DIRECTION('',(0.,0.,1.));
#1551=DIRECTION('center_axis',(0.,0.,1.));
#1552=DIRECTION('ref_axis',(1.,0.,0.));
#1553=DIRECTION('center_axis',(0.,0.,-1.));
#1554=DIRECTION('ref_axis',(-1.,0.,0.));
#1555=DIRECTION('center_axis',(0.,0.,-1.));
#1556=DIRECTION('ref_axis',(-1.,0.,0.));
#1557=CARTESIAN_POINT('',(0.,0.,0.));
#1558=CARTESIAN_POINT('Origin',(6.27,2.,-1.00000000000001));
#1559=CARTESIAN_POINT('',(6.27,1.41421356237309,-1.00000000000001));
#1560=CARTESIAN_POINT('',(6.27,2.,-1.00000000000001));
#1561=CARTESIAN_POINT('',(6.27,1.,-1.00000000000001));
#1562=CARTESIAN_POINT('',(6.27,1.41421356237309,-2.00000000000003));
#1563=CARTESIAN_POINT('',(6.27,1.41421356237309,-1.00000000000001));
#1564=CARTESIAN_POINT('',(6.27,2.,-2.00000000000003));
#1565=CARTESIAN_POINT('',(6.27,1.,-2.00000000000003));
#1566=CARTESIAN_POINT('',(6.27,2.,-1.00000000000001));
#1567=CARTESIAN_POINT('Origin',(-6.26999838283427,1.41421299061763,-1.00000000000001));
#1568=CARTESIAN_POINT('',(-6.26999838283427,2.,-1.00000000000001));
#1569=CARTESIAN_POINT('',(-6.26999838283427,1.41421299061763,-1.00000000000001));
#1570=CARTESIAN_POINT('',(-6.26999838283427,0.707106495308808,-1.00000000000001));
#1571=CARTESIAN_POINT('',(-6.26999838283427,2.,-2.00000000000003));
#1572=CARTESIAN_POINT('',(-6.26999838283427,2.,-1.00000000000001));
#1573=CARTESIAN_POINT('',(-6.26999838283427,1.41421299061763,-2.00000000000003));
#1574=CARTESIAN_POINT('',(-6.26999838283427,0.707106495308808,-2.00000000000003));
#1575=CARTESIAN_POINT('',(-6.26999838283427,1.41421299061763,-1.00000000000001));
#1576=CARTESIAN_POINT('Origin',(6.27,1.41421356237309,-1.00000000000001));
#1577=CARTESIAN_POINT('',(3.1349999677598,1.41421341943421,-1.00000000000001));
#1578=CARTESIAN_POINT('',(3.13499996775964,1.41421341943421,-2.00000000000003));
#1579=CARTESIAN_POINT('Origin',(-3.07531777821168E-13,0.,-2.00000000000003));
#1580=CARTESIAN_POINT('',(-3.13499919141729,2.,-2.00000000000003));
#1581=CARTESIAN_POINT('Origin',(-6.26999838283426,-1.41421299061763,-1.00000000000001));
#1582=CARTESIAN_POINT('',(6.27,-1.41421356237309,-1.00000000000001));
#1583=CARTESIAN_POINT('',(-6.26999838283426,-1.41421299061763,-1.00000000000001));
#1584=CARTESIAN_POINT('',(-3.13499922365733,-1.41421313355647,-1.00000000000001));
#1585=CARTESIAN_POINT('',(6.27,-1.41421356237309,-2.00000000000003));
#1586=CARTESIAN_POINT('',(6.27,-1.41421356237309,-1.00000000000001));
#1587=CARTESIAN_POINT('',(-6.26999838283426,-1.41421299061763,-2.00000000000003));
#1588=CARTESIAN_POINT('',(-3.13499922365749,-1.41421313355647,-2.00000000000003));
#1589=CARTESIAN_POINT('',(-6.26999838283426,-1.41421299061763,-1.00000000000001));
#1590=CARTESIAN_POINT('Origin',(-6.26999838283426,-2.,-1.00000000000001));
#1591=CARTESIAN_POINT('',(-6.26999838283426,-2.,-1.00000000000001));
#1592=CARTESIAN_POINT('',(-6.26999838283426,-1.00000000000001,-1.00000000000001));
#1593=CARTESIAN_POINT('',(-6.26999838283426,-2.,-2.00000000000003));
#1594=CARTESIAN_POINT('',(-6.26999838283426,-1.00000000000001,-2.00000000000003));
#1595=CARTESIAN_POINT('',(-6.26999838283426,-2.,-1.00000000000001));
#1596=CARTESIAN_POINT('Origin',(6.27,-1.41421356237309,-1.00000000000001));
#1597=CARTESIAN_POINT('',(6.27,-2.,-1.00000000000001));
#1598=CARTESIAN_POINT('',(6.27,-0.707106781186548,-1.00000000000001));
#1599=CARTESIAN_POINT('',(6.27,-2.,-2.00000000000003));
#1600=CARTESIAN_POINT('',(6.27,-2.,-1.00000000000001));
#1601=CARTESIAN_POINT('',(6.27,-0.707106781186547,-2.00000000000003));
#1602=CARTESIAN_POINT('Origin',(-3.06421554796543E-13,0.,-2.00000000000003));
#1603=CARTESIAN_POINT('',(3.13499999999985,-2.,-2.00000000000003));
#1604=CARTESIAN_POINT('Origin',(6.77,0.,-1.00000000000001));
#1605=CARTESIAN_POINT('',(7.27,1.41421356237309,-1.00000000000001));
#1606=CARTESIAN_POINT('',(7.27,-1.41421356237309,-1.00000000000001));
#1607=CARTESIAN_POINT('Origin',(6.77,0.,-1.00000000000001));
#1608=CARTESIAN_POINT('',(7.27,1.41421356237309,-2.00000000000003));
#1609=CARTESIAN_POINT('',(7.27,1.41421356237309,-1.00000000000001));
#1610=CARTESIAN_POINT('',(7.27,-1.41421356237309,-2.00000000000003));
#1611=CARTESIAN_POINT('Origin',(6.77,0.,-2.00000000000003));
#1612=CARTESIAN_POINT('',(7.27,-1.41421356237309,-1.00000000000001));
#1613=CARTESIAN_POINT('Origin',(7.27,-1.93649167310371,-1.00000000000001));
#1614=CARTESIAN_POINT('',(7.27,-1.93649167310371,-1.00000000000001));
#1615=CARTESIAN_POINT('',(7.27,-0.968245836551855,-1.00000000000001));
#1616=CARTESIAN_POINT('',(7.27,-1.93649167310371,-2.00000000000003));
#1617=CARTESIAN_POINT('',(7.27,-0.968245836551854,-2.00000000000003));
#1618=CARTESIAN_POINT('',(7.27,-1.93649167310371,-1.00000000000001));
#1619=CARTESIAN_POINT('Origin',(6.77,0.,-1.00000000000001));
#1620=CARTESIAN_POINT('',(7.27,1.93649167310371,-1.00000000000001));
#1621=CARTESIAN_POINT('Origin',(6.77,0.,-1.00000000000001));
#1622=CARTESIAN_POINT('',(7.27,1.93649167310371,-2.00000000000003));
#1623=CARTESIAN_POINT('Origin',(6.77,0.,-2.00000000000003));
#1624=CARTESIAN_POINT('',(7.27,1.93649167310371,-1.00000000000001));
#1625=CARTESIAN_POINT('Origin',(7.27,1.41421356237309,-1.00000000000001));
#1626=CARTESIAN_POINT('',(7.27,0.707106781186547,-1.00000000000001));
#1627=CARTESIAN_POINT('',(7.27,0.707106781186547,-2.00000000000003));
#1628=CARTESIAN_POINT('Origin',(-3.06976666308856E-13,0.,-2.00000000000003));
#1629=CARTESIAN_POINT('Origin',(-6.77,-1.38777878078145E-16,-1.00000000000001));
#1630=CARTESIAN_POINT('',(-7.26999838283426,1.93649209065339,-1.00000000000001));
#1631=CARTESIAN_POINT('',(-7.26999838283427,-1.93649209065339,-1.00000000000001));
#1632=CARTESIAN_POINT('Origin',(-6.77,-1.38777878078145E-16,-1.00000000000001));
#1633=CARTESIAN_POINT('',(-7.26999838283426,1.93649209065339,-2.00000000000003));
#1634=CARTESIAN_POINT('',(-7.26999838283426,1.93649209065339,-1.00000000000001));
#1635=CARTESIAN_POINT('',(-7.26999838283427,-1.93649209065339,-2.00000000000003));
#1636=CARTESIAN_POINT('Origin',(-6.77,-1.38777878078145E-16,-2.00000000000003));
#1637=CARTESIAN_POINT('',(-7.26999838283427,-1.93649209065339,-1.00000000000001));
#1638=CARTESIAN_POINT('Origin',(-7.26999838283427,-1.41421413412648,-1.00000000000001));
#1639=CARTESIAN_POINT('',(-7.26999838283427,-1.41421413412648,-1.00000000000001));
#1640=CARTESIAN_POINT('',(-7.26999838283427,-0.707107067063242,-1.00000000000001));
#1641=CARTESIAN_POINT('',(-7.26999838283427,-1.41421413412648,-2.00000000000003));
#1642=CARTESIAN_POINT('',(-7.26999838283427,-0.707107067063242,-2.00000000000003));
#1643=CARTESIAN_POINT('',(-7.26999838283427,-1.41421413412648,-1.00000000000001));
#1644=CARTESIAN_POINT('Origin',(-6.77,0.,-1.00000000000001));
#1645=CARTESIAN_POINT('',(-7.26999838283426,1.41421413412648,-1.00000000000001));
#1646=CARTESIAN_POINT('Origin',(-6.77,0.,-1.00000000000001));
#1647=CARTESIAN_POINT('',(-7.26999838283426,1.41421413412648,-2.00000000000003));
#1648=CARTESIAN_POINT('Origin',(-6.77,0.,-2.00000000000003));
#1649=CARTESIAN_POINT('',(-7.26999838283426,1.41421413412648,-1.00000000000001));
#1650=CARTESIAN_POINT('Origin',(-7.26999838283426,1.93649209065339,-1.00000000000001));
#1651=CARTESIAN_POINT('',(-7.26999838283426,0.968246045326693,-1.00000000000001));
#1652=CARTESIAN_POINT('',(-7.26999838283426,0.968246045326693,-2.00000000000003));
#1653=CARTESIAN_POINT('Origin',(-3.06976666308856E-13,0.,-2.00000000000003));
#1654=CARTESIAN_POINT('Origin',(0.,-2.77555756156289E-16,-1.00000000000001));
#1655=CARTESIAN_POINT('',(9.67,2.,-1.00000000000001));
#1656=CARTESIAN_POINT('',(-9.67,2.,-1.00000000000001));
#1657=CARTESIAN_POINT('',(9.67,-2.,-1.00000000000001));
#1658=CARTESIAN_POINT('Origin',(9.67,0.,-1.00000000000001));
#1659=CARTESIAN_POINT('',(-9.67,-2.,-1.00000000000001));
#1660=CARTESIAN_POINT('',(-9.67,-2.,-1.00000000000001));
#1661=CARTESIAN_POINT('',(-9.67,-2.,-1.00000000000001));
#1662=CARTESIAN_POINT('',(-9.67,2.,-1.00000000000001));
#1663=CARTESIAN_POINT('Origin',(-9.67,0.,-1.00000000000001));
#1664=CARTESIAN_POINT('',(-9.67,2.,-1.00000000000001));
#1665=CARTESIAN_POINT('',(-10.97,-9.18485099360514E-17,-1.00000000000001));
#1666=CARTESIAN_POINT('Origin',(-10.22,0.,-1.00000000000001));
#1667=CARTESIAN_POINT('',(9.47,-9.18485099360514E-17,-1.00000000000001));
#1668=CARTESIAN_POINT('Origin',(10.22,0.,-1.00000000000001));
#1669=CARTESIAN_POINT('Origin',(0.,-2.77555756156289E-16,0.));
#1670=CARTESIAN_POINT('',(-8.27,-1.83697019872103E-16,0.));
#1671=CARTESIAN_POINT('Origin',(-6.77,0.,0.));
#1672=CARTESIAN_POINT('Origin',(0.,-2.77555756156289E-16,0.));
#1673=CARTESIAN_POINT('',(5.27,-1.83697019872103E-16,0.));
#1674=CARTESIAN_POINT('Origin',(6.77,0.,0.));
#1675=CARTESIAN_POINT('Origin',(0.,-2.77555756156289E-16,0.));
#1676=CARTESIAN_POINT('',(-2.025,1.76462762404936E-18,0.));
#1677=CARTESIAN_POINT('Origin',(-1.27,9.42254609596745E-17,0.));
#1678=CARTESIAN_POINT('Origin',(0.,-2.77555756156289E-16,0.));
#1679=CARTESIAN_POINT('',(-4.565,-1.11193197116595E-16,0.));
#1680=CARTESIAN_POINT('Origin',(-3.81,-1.87323637809701E-17,0.));
#1681=CARTESIAN_POINT('Origin',(0.,-2.77555756156289E-16,0.));
#1682=CARTESIAN_POINT('',(0.515,1.76462762404936E-18,0.));
#1683=CARTESIAN_POINT('Origin',(1.27,9.42254609596745E-17,0.));
#1684=CARTESIAN_POINT('Origin',(0.,-2.77555756156289E-16,0.));
#1685=CARTESIAN_POINT('',(3.055,-1.21342731770181E-16,0.));
#1686=CARTESIAN_POINT('Origin',(3.81,-2.8881898434556E-17,0.));
#1687=CARTESIAN_POINT('Origin',(0.,-2.77555756156289E-16,0.));
#1688=CARTESIAN_POINT('',(6.77,-2.,0.));
#1689=CARTESIAN_POINT('',(6.77,2.,0.));
#1690=CARTESIAN_POINT('Origin',(6.77,0.,0.));
#1691=CARTESIAN_POINT('',(9.67,-2.,0.));
#1692=CARTESIAN_POINT('',(-9.67,-2.,0.));
#1693=CARTESIAN_POINT('',(9.67,2.,0.));
#1694=CARTESIAN_POINT('Origin',(9.67,0.,0.));
#1695=CARTESIAN_POINT('',(-9.67,2.,0.));
#1696=CARTESIAN_POINT('',(9.47,-9.18485099360514E-17,0.));
#1697=CARTESIAN_POINT('Origin',(10.22,0.,0.));
#1698=CARTESIAN_POINT('Origin',(0.,-2.77555756156289E-16,0.));
#1699=CARTESIAN_POINT('',(-6.76999843320921,2.,0.));
#1700=CARTESIAN_POINT('',(-6.76999526037713,-1.999999999995,0.));
#1701=CARTESIAN_POINT('Origin',(-6.77,-1.38777878078145E-16,0.));
#1702=CARTESIAN_POINT('',(-9.67,2.,0.));
#1703=CARTESIAN_POINT('',(-9.67,2.,0.));
#1704=CARTESIAN_POINT('',(-9.67,-2.,0.));
#1705=CARTESIAN_POINT('Origin',(-9.67,0.,0.));
#1706=CARTESIAN_POINT('',(-9.67,-2.,0.));
#1707=CARTESIAN_POINT('',(-10.97,-9.18485099360514E-17,0.));
#1708=CARTESIAN_POINT('Origin',(-10.22,0.,0.));
#1709=CARTESIAN_POINT('Origin',(-10.22,0.,0.));
#1710=CARTESIAN_POINT('',(-10.97,9.18485099360514E-17,0.));
#1711=CARTESIAN_POINT('Origin',(10.22,0.,0.));
#1712=CARTESIAN_POINT('',(9.47,9.18485099360514E-17,0.));
#1713=CARTESIAN_POINT('Origin',(9.67,0.,0.));
#1714=CARTESIAN_POINT('',(9.67,-2.,0.));
#1715=CARTESIAN_POINT('',(9.67,2.,0.));
#1716=CARTESIAN_POINT('Origin',(-9.67,0.,0.));
#1717=CARTESIAN_POINT('',(-9.67,2.,0.));
#1718=CARTESIAN_POINT('',(-9.67,-2.,0.));
#1719=CARTESIAN_POINT('Origin',(3.81,-2.8881898434556E-17,0.));
#1720=CARTESIAN_POINT('',(3.055,0.,1.99999999999999));
#1721=CARTESIAN_POINT('Origin',(3.81,-2.8881898434556E-17,1.99999999999999));
#1722=CARTESIAN_POINT('',(3.055,-1.21342731770181E-16,0.));
#1723=CARTESIAN_POINT('Origin',(1.27,9.42254609596745E-17,0.));
#1724=CARTESIAN_POINT('',(0.515,0.,1.99999999999999));
#1725=CARTESIAN_POINT('Origin',(1.27,9.42254609596745E-17,1.99999999999999));
#1726=CARTESIAN_POINT('',(0.515,1.76462762404936E-18,0.));
#1727=CARTESIAN_POINT('Origin',(-3.81,-1.87323637809701E-17,0.));
#1728=CARTESIAN_POINT('',(-4.565,0.,1.99999999999999));
#1729=CARTESIAN_POINT('Origin',(-3.81,-1.87323637809701E-17,1.99999999999999));
#1730=CARTESIAN_POINT('',(-4.565,-1.11193197116595E-16,0.));
#1731=CARTESIAN_POINT('Origin',(-1.27,9.42254609596745E-17,0.));
#1732=CARTESIAN_POINT('',(-2.025,0.,1.99999999999999));
#1733=CARTESIAN_POINT('Origin',(-1.27,9.42254609596745E-17,1.99999999999999));
#1734=CARTESIAN_POINT('',(-2.025,1.76462762404936E-18,0.));
#1735=CARTESIAN_POINT('Origin',(6.77,0.,0.));
#1736=CARTESIAN_POINT('',(5.27,-2.77555756156289E-16,1.99999999999999));
#1737=CARTESIAN_POINT('Origin',(6.77,0.,1.99999999999999));
#1738=CARTESIAN_POINT('',(5.27,-1.83697019872103E-16,0.));
#1739=CARTESIAN_POINT('Origin',(-6.77,0.,0.));
#1740=CARTESIAN_POINT('',(-8.27,-2.77555756156289E-16,1.99999999999999));
#1741=CARTESIAN_POINT('Origin',(-6.77,0.,1.99999999999999));
#1742=CARTESIAN_POINT('',(-8.27,-1.83697019872103E-16,0.));
#1743=CARTESIAN_POINT('Origin',(-6.77,-1.38777878078145E-16,0.));
#1744=CARTESIAN_POINT('',(-6.76999526037713,-1.999999999995,1.99999999999999));
#1745=CARTESIAN_POINT('',(-6.76999526037713,-1.999999999995,0.));
#1746=CARTESIAN_POINT('',(-6.76999843320921,2.,1.99999999999999));
#1747=CARTESIAN_POINT('Origin',(-6.77,-1.38777878078145E-16,1.99999999999999));
#1748=CARTESIAN_POINT('',(-6.76999843320921,2.,0.));
#1749=CARTESIAN_POINT('Origin',(6.77,2.,0.));
#1750=CARTESIAN_POINT('',(6.77,2.,1.99999999999999));
#1751=CARTESIAN_POINT('',(-9.67,2.,1.99999999999999));
#1752=CARTESIAN_POINT('',(6.77,2.,0.));
#1753=CARTESIAN_POINT('Origin',(6.77,0.,0.));
#1754=CARTESIAN_POINT('',(6.77,-2.,1.99999999999999));
#1755=CARTESIAN_POINT('Origin',(6.77,0.,1.99999999999999));
#1756=CARTESIAN_POINT('',(6.77,-2.,0.));
#1757=CARTESIAN_POINT('Origin',(-6.76999526037713,-2.,0.));
#1758=CARTESIAN_POINT('',(-9.67,-2.,1.99999999999999));
#1759=CARTESIAN_POINT('Origin',(0.,-2.77555756156289E-16,1.99999999999999));
#1760=CARTESIAN_POINT('Origin',(-6.77,0.,0.));
#1761=CARTESIAN_POINT('',(-8.27,1.83697019872103E-16,1.99999999999999));
#1762=CARTESIAN_POINT('Origin',(-6.77,0.,1.99999999999999));
#1763=CARTESIAN_POINT('',(-8.27,-1.83697019872103E-16,0.));
#1764=CARTESIAN_POINT('',(-8.27,-1.83697019872103E-16,0.));
#1765=CARTESIAN_POINT('Origin',(-6.77,0.,0.));
#1766=CARTESIAN_POINT('Origin',(0.,-2.77555756156289E-16,0.));
#1767=CARTESIAN_POINT('Origin',(0.,0.,1.99999999999999));
#1768=CARTESIAN_POINT('Origin',(6.77,0.,0.));
#1769=CARTESIAN_POINT('',(5.27,1.83697019872103E-16,1.99999999999999));
#1770=CARTESIAN_POINT('Origin',(6.77,0.,1.99999999999999));
#1771=CARTESIAN_POINT('',(5.27,-1.83697019872103E-16,0.));
#1772=CARTESIAN_POINT('',(5.27,-1.83697019872103E-16,0.));
#1773=CARTESIAN_POINT('Origin',(6.77,0.,0.));
#1774=CARTESIAN_POINT('Origin',(0.,-2.77555756156289E-16,0.));
#1775=CARTESIAN_POINT('Origin',(0.,0.,1.99999999999999));
#1776=CARTESIAN_POINT('Ctrl Pts',(-2.025,9.42254609596745E-17,2.30000000000001));
#1777=CARTESIAN_POINT('Ctrl Pts',(-2.025,-0.755,2.30000000000001));
#1778=CARTESIAN_POINT('Ctrl Pts',(-1.27,-0.755,2.30000000000001));
#1779=CARTESIAN_POINT('Ctrl Pts',(-0.515,-0.755,2.30000000000001));
#1780=CARTESIAN_POINT('Ctrl Pts',(-0.515,9.42254609596745E-17,2.30000000000001));
#1781=CARTESIAN_POINT('Ctrl Pts',(-0.515,0.755,2.30000000000001));
#1782=CARTESIAN_POINT('Ctrl Pts',(-1.27,0.755,2.30000000000001));
#1783=CARTESIAN_POINT('Ctrl Pts',(-2.025,0.755,2.30000000000001));
#1784=CARTESIAN_POINT('Ctrl Pts',(-2.025,9.42254609596745E-17,2.30000000000001));
#1785=CARTESIAN_POINT('Ctrl Pts',(-2.025,9.42254609596745E-17,3.00000000000001));
#1786=CARTESIAN_POINT('Ctrl Pts',(-2.025,-0.755,3.00000000000001));
#1787=CARTESIAN_POINT('Ctrl Pts',(-1.27,-0.755,3.00000000000001));
#1788=CARTESIAN_POINT('Ctrl Pts',(-0.515,-0.755,3.00000000000001));
#1789=CARTESIAN_POINT('Ctrl Pts',(-0.515,9.42254609596745E-17,3.00000000000001));
#1790=CARTESIAN_POINT('Ctrl Pts',(-0.515,0.755,3.00000000000001));
#1791=CARTESIAN_POINT('Ctrl Pts',(-1.27,0.755,3.00000000000001));
#1792=CARTESIAN_POINT('Ctrl Pts',(-2.025,0.755,3.00000000000001));
#1793=CARTESIAN_POINT('Ctrl Pts',(-2.025,9.42254609596745E-17,3.00000000000001));
#1794=CARTESIAN_POINT('Ctrl Pts',(-1.325,9.42254609596745E-17,3.00000000000001));
#1795=CARTESIAN_POINT('Ctrl Pts',(-1.325,-0.0549999999999999,3.00000000000001));
#1796=CARTESIAN_POINT('Ctrl Pts',(-1.27,-0.055,3.00000000000001));
#1797=CARTESIAN_POINT('Ctrl Pts',(-1.215,-0.0549999999999999,3.00000000000001));
#1798=CARTESIAN_POINT('Ctrl Pts',(-1.215,9.42254609596745E-17,3.00000000000001));
#1799=CARTESIAN_POINT('Ctrl Pts',(-1.215,0.0550000000000001,3.00000000000001));
#1800=CARTESIAN_POINT('Ctrl Pts',(-1.27,0.0550000000000001,3.00000000000001));
#1801=CARTESIAN_POINT('Ctrl Pts',(-1.325,0.0550000000000001,3.00000000000001));
#1802=CARTESIAN_POINT('Ctrl Pts',(-1.325,9.42254609596745E-17,3.00000000000001));
#1803=CARTESIAN_POINT('',(-1.325,1.00961018354985E-16,3.00000000000001));
#1804=CARTESIAN_POINT('Origin',(-1.27,9.42254609596745E-17,3.00000000000001));
#1805=CARTESIAN_POINT('',(-2.025,1.76462762404936E-18,2.30000000000001));
#1806=CARTESIAN_POINT('Origin',(-1.325,8.74899035643641E-17,2.30000000000001));
#1807=CARTESIAN_POINT('Origin',(-1.27,9.42254609596745E-17,2.30000000000001));
#1808=CARTESIAN_POINT('Origin',(-1.27,9.42254609596745E-17,0.));
#1809=CARTESIAN_POINT('',(-2.025,1.76462762404936E-18,0.));
#1810=CARTESIAN_POINT('',(-2.025,1.76462762404936E-18,0.));
#1811=CARTESIAN_POINT('Origin',(-1.27,9.42254609596745E-17,0.));
#1812=CARTESIAN_POINT('Origin',(0.,-2.77555756156289E-16,3.00000000000001));
#1813=CARTESIAN_POINT('Origin',(0.,-2.77555756156289E-16,0.));
#1814=CARTESIAN_POINT('Ctrl Pts',(3.055,-2.8881898434556E-17,2.30000000000001));
#1815=CARTESIAN_POINT('Ctrl Pts',(3.055,-0.755,2.30000000000001));
#1816=CARTESIAN_POINT('Ctrl Pts',(3.81,-0.755,2.30000000000001));
#1817=CARTESIAN_POINT('Ctrl Pts',(4.565,-0.755,2.30000000000001));
#1818=CARTESIAN_POINT('Ctrl Pts',(4.565,-2.8881898434556E-17,2.30000000000001));
#1819=CARTESIAN_POINT('Ctrl Pts',(4.565,0.755,2.30000000000001));
#1820=CARTESIAN_POINT('Ctrl Pts',(3.81,0.755,2.30000000000001));
#1821=CARTESIAN_POINT('Ctrl Pts',(3.055,0.755,2.30000000000001));
#1822=CARTESIAN_POINT('Ctrl Pts',(3.055,-2.8881898434556E-17,2.30000000000001));
#1823=CARTESIAN_POINT('Ctrl Pts',(3.055,-2.8881898434556E-17,3.00000000000001));
#1824=CARTESIAN_POINT('Ctrl Pts',(3.055,-0.755,3.00000000000001));
#1825=CARTESIAN_POINT('Ctrl Pts',(3.81,-0.755,3.00000000000001));
#1826=CARTESIAN_POINT('Ctrl Pts',(4.565,-0.755,3.00000000000001));
#1827=CARTESIAN_POINT('Ctrl Pts',(4.565,-2.8881898434556E-17,3.00000000000001));
#1828=CARTESIAN_POINT('Ctrl Pts',(4.565,0.755,3.00000000000001));
#1829=CARTESIAN_POINT('Ctrl Pts',(3.81,0.755,3.00000000000001));
#1830=CARTESIAN_POINT('Ctrl Pts',(3.055,0.755,3.00000000000001));
#1831=CARTESIAN_POINT('Ctrl Pts',(3.055,-2.8881898434556E-17,3.00000000000001));
#1832=CARTESIAN_POINT('Ctrl Pts',(3.755,-2.8881898434556E-17,3.00000000000001));
#1833=CARTESIAN_POINT('Ctrl Pts',(3.755,-0.0550000000000001,3.00000000000001));
#1834=CARTESIAN_POINT('Ctrl Pts',(3.81,-0.0550000000000001,3.00000000000001));
#1835=CARTESIAN_POINT('Ctrl Pts',(3.865,-0.0550000000000001,3.00000000000001));
#1836=CARTESIAN_POINT('Ctrl Pts',(3.865,-2.8881898434556E-17,3.00000000000001));
#1837=CARTESIAN_POINT('Ctrl Pts',(3.865,0.055,3.00000000000001));
#1838=CARTESIAN_POINT('Ctrl Pts',(3.81,0.055,3.00000000000001));
#1839=CARTESIAN_POINT('Ctrl Pts',(3.755,0.055,3.00000000000001));
#1840=CARTESIAN_POINT('Ctrl Pts',(3.755,-2.8881898434556E-17,3.00000000000001));
#1841=CARTESIAN_POINT('',(3.755,-2.21463410392455E-17,3.00000000000001));
#1842=CARTESIAN_POINT('Origin',(3.81,-2.8881898434556E-17,3.00000000000001));
#1843=CARTESIAN_POINT('',(3.055,-1.21342731770181E-16,2.30000000000001));
#1844=CARTESIAN_POINT('Origin',(3.755,-3.56174558298664E-17,2.30000000000001));
#1845=CARTESIAN_POINT('Origin',(3.81,-2.8881898434556E-17,2.30000000000001));
#1846=CARTESIAN_POINT('Origin',(3.81,-2.8881898434556E-17,0.));
#1847=CARTESIAN_POINT('',(3.055,-1.21342731770181E-16,0.));
#1848=CARTESIAN_POINT('',(3.055,-1.21342731770181E-16,0.));
#1849=CARTESIAN_POINT('Origin',(3.81,-2.8881898434556E-17,0.));
#1850=CARTESIAN_POINT('Origin',(0.,-2.77555756156289E-16,3.00000000000001));
#1851=CARTESIAN_POINT('Origin',(0.,-2.77555756156289E-16,0.));
#1852=CARTESIAN_POINT('Ctrl Pts',(0.515,9.42254609596745E-17,2.30000000000001));
#1853=CARTESIAN_POINT('Ctrl Pts',(0.515,-0.755,2.30000000000001));
#1854=CARTESIAN_POINT('Ctrl Pts',(1.27,-0.755,2.30000000000001));
#1855=CARTESIAN_POINT('Ctrl Pts',(2.025,-0.755,2.30000000000001));
#1856=CARTESIAN_POINT('Ctrl Pts',(2.025,9.42254609596745E-17,2.30000000000001));
#1857=CARTESIAN_POINT('Ctrl Pts',(2.025,0.755,2.30000000000001));
#1858=CARTESIAN_POINT('Ctrl Pts',(1.27,0.755,2.30000000000001));
#1859=CARTESIAN_POINT('Ctrl Pts',(0.515,0.755,2.30000000000001));
#1860=CARTESIAN_POINT('Ctrl Pts',(0.515,9.42254609596745E-17,2.30000000000001));
#1861=CARTESIAN_POINT('Ctrl Pts',(0.515,9.42254609596745E-17,3.00000000000001));
#1862=CARTESIAN_POINT('Ctrl Pts',(0.515,-0.755,3.00000000000001));
#1863=CARTESIAN_POINT('Ctrl Pts',(1.27,-0.755,3.00000000000001));
#1864=CARTESIAN_POINT('Ctrl Pts',(2.025,-0.755,3.00000000000001));
#1865=CARTESIAN_POINT('Ctrl Pts',(2.025,9.42254609596745E-17,3.00000000000001));
#1866=CARTESIAN_POINT('Ctrl Pts',(2.025,0.755,3.00000000000001));
#1867=CARTESIAN_POINT('Ctrl Pts',(1.27,0.755,3.00000000000001));
#1868=CARTESIAN_POINT('Ctrl Pts',(0.515,0.755,3.00000000000001));
#1869=CARTESIAN_POINT('Ctrl Pts',(0.515,9.42254609596745E-17,3.00000000000001));
#1870=CARTESIAN_POINT('Ctrl Pts',(1.215,9.42254609596745E-17,3.00000000000001));
#1871=CARTESIAN_POINT('Ctrl Pts',(1.215,-0.0549999999999999,3.00000000000001));
#1872=CARTESIAN_POINT('Ctrl Pts',(1.27,-0.055,3.00000000000001));
#1873=CARTESIAN_POINT('Ctrl Pts',(1.325,-0.0549999999999999,3.00000000000001));
#1874=CARTESIAN_POINT('Ctrl Pts',(1.325,9.42254609596745E-17,3.00000000000001));
#1875=CARTESIAN_POINT('Ctrl Pts',(1.325,0.0550000000000001,3.00000000000001));
#1876=CARTESIAN_POINT('Ctrl Pts',(1.27,0.0550000000000001,3.00000000000001));
#1877=CARTESIAN_POINT('Ctrl Pts',(1.215,0.0550000000000001,3.00000000000001));
#1878=CARTESIAN_POINT('Ctrl Pts',(1.215,9.42254609596745E-17,3.00000000000001));
#1879=CARTESIAN_POINT('',(1.215,1.00961018354985E-16,3.00000000000001));
#1880=CARTESIAN_POINT('Origin',(1.27,9.42254609596745E-17,3.00000000000001));
#1881=CARTESIAN_POINT('',(0.515,1.76462762404936E-18,2.30000000000001));
#1882=CARTESIAN_POINT('Origin',(1.215,8.74899035643641E-17,2.30000000000001));
#1883=CARTESIAN_POINT('Origin',(1.27,9.42254609596745E-17,2.30000000000001));
#1884=CARTESIAN_POINT('Origin',(1.27,9.42254609596745E-17,0.));
#1885=CARTESIAN_POINT('',(0.515,1.76462762404936E-18,0.));
#1886=CARTESIAN_POINT('',(0.515,1.76462762404936E-18,0.));
#1887=CARTESIAN_POINT('Origin',(1.27,9.42254609596745E-17,0.));
#1888=CARTESIAN_POINT('Origin',(0.,-2.77555756156289E-16,3.00000000000001));
#1889=CARTESIAN_POINT('Origin',(0.,-2.77555756156289E-16,0.));
#1890=CARTESIAN_POINT('Ctrl Pts',(-4.565,-1.87323637809701E-17,2.30000000000001));
#1891=CARTESIAN_POINT('Ctrl Pts',(-4.565,-0.755,2.30000000000001));
#1892=CARTESIAN_POINT('Ctrl Pts',(-3.81,-0.755,2.30000000000001));
#1893=CARTESIAN_POINT('Ctrl Pts',(-3.055,-0.755,2.30000000000001));
#1894=CARTESIAN_POINT('Ctrl Pts',(-3.055,-1.87323637809701E-17,2.30000000000001));
#1895=CARTESIAN_POINT('Ctrl Pts',(-3.055,0.755,2.30000000000001));
#1896=CARTESIAN_POINT('Ctrl Pts',(-3.81,0.755,2.30000000000001));
#1897=CARTESIAN_POINT('Ctrl Pts',(-4.565,0.755,2.30000000000001));
#1898=CARTESIAN_POINT('Ctrl Pts',(-4.565,-1.87323637809701E-17,2.30000000000001));
#1899=CARTESIAN_POINT('Ctrl Pts',(-4.565,-1.87323637809701E-17,3.00000000000001));
#1900=CARTESIAN_POINT('Ctrl Pts',(-4.565,-0.755,3.00000000000001));
#1901=CARTESIAN_POINT('Ctrl Pts',(-3.81,-0.755,3.00000000000001));
#1902=CARTESIAN_POINT('Ctrl Pts',(-3.055,-0.755,3.00000000000001));
#1903=CARTESIAN_POINT('Ctrl Pts',(-3.055,-1.87323637809701E-17,3.00000000000001));
#1904=CARTESIAN_POINT('Ctrl Pts',(-3.055,0.755,3.00000000000001));
#1905=CARTESIAN_POINT('Ctrl Pts',(-3.81,0.755,3.00000000000001));
#1906=CARTESIAN_POINT('Ctrl Pts',(-4.565,0.755,3.00000000000001));
#1907=CARTESIAN_POINT('Ctrl Pts',(-4.565,-1.87323637809701E-17,3.00000000000001));
#1908=CARTESIAN_POINT('Ctrl Pts',(-3.865,-1.87323637809701E-17,3.00000000000001));
#1909=CARTESIAN_POINT('Ctrl Pts',(-3.865,-0.0550000000000001,3.00000000000001));
#1910=CARTESIAN_POINT('Ctrl Pts',(-3.81,-0.0550000000000001,3.00000000000001));
#1911=CARTESIAN_POINT('Ctrl Pts',(-3.755,-0.0550000000000001,3.00000000000001));
#1912=CARTESIAN_POINT('Ctrl Pts',(-3.755,-1.87323637809701E-17,3.00000000000001));
#1913=CARTESIAN_POINT('Ctrl Pts',(-3.755,0.055,3.00000000000001));
#1914=CARTESIAN_POINT('Ctrl Pts',(-3.81,0.055,3.00000000000001));
#1915=CARTESIAN_POINT('Ctrl Pts',(-3.865,0.055,3.00000000000001));
#1916=CARTESIAN_POINT('Ctrl Pts',(-3.865,-1.87323637809701E-17,3.00000000000001));
#1917=CARTESIAN_POINT('',(-3.865,-1.19968063856596E-17,3.00000000000001));
#1918=CARTESIAN_POINT('Origin',(-3.81,-1.87323637809701E-17,3.00000000000001));
#1919=CARTESIAN_POINT('',(-4.565,-1.11193197116595E-16,2.30000000000001));
#1920=CARTESIAN_POINT('Origin',(-3.865,-2.54679211762806E-17,2.30000000000001));
#1921=CARTESIAN_POINT('Origin',(-3.81,-1.87323637809701E-17,2.30000000000001));
#1922=CARTESIAN_POINT('Origin',(-3.81,-1.87323637809701E-17,0.));
#1923=CARTESIAN_POINT('',(-4.565,-1.11193197116595E-16,0.));
#1924=CARTESIAN_POINT('',(-4.565,-1.11193197116595E-16,0.));
#1925=CARTESIAN_POINT('Origin',(-3.81,-1.87323637809701E-17,0.));
#1926=CARTESIAN_POINT('Origin',(0.,-2.77555756156289E-16,3.00000000000001));
#1927=CARTESIAN_POINT('Origin',(0.,-2.77555756156289E-16,0.));
#1928=CARTESIAN_POINT('Origin',(-1.27,9.42254609596745E-17,-1.00000000000001));
#1929=CARTESIAN_POINT('',(-1.62,5.13628229895172E-17,-2.5));
#1930=CARTESIAN_POINT('Origin',(-1.27,9.42254609596745E-17,-2.5));
#1931=CARTESIAN_POINT('',(-1.62,5.13628229895172E-17,-1.00000000000001));
#1932=CARTESIAN_POINT('',(-1.62,1.37088098929832E-16,-1.00000000000001));
#1933=CARTESIAN_POINT('Origin',(-1.27,9.42254609596745E-17,-1.00000000000001));
#1934=CARTESIAN_POINT('Origin',(0.,6.93889390390723E-17,-1.00000000000001));
#1935=CARTESIAN_POINT('Origin',(0.,6.93889390390723E-17,-2.5));
#1936=CARTESIAN_POINT('Origin',(1.27,9.42254609596745E-17,-1.00000000000001));
#1937=CARTESIAN_POINT('',(0.92,5.13628229895172E-17,-2.5));
#1938=CARTESIAN_POINT('Origin',(1.27,9.42254609596745E-17,-2.5));
#1939=CARTESIAN_POINT('',(0.92,5.13628229895172E-17,-1.00000000000001));
#1940=CARTESIAN_POINT('',(0.92,1.37088098929832E-16,-1.00000000000001));
#1941=CARTESIAN_POINT('Origin',(1.27,9.42254609596745E-17,-1.00000000000001));
#1942=CARTESIAN_POINT('Origin',(0.,6.93889390390723E-17,-1.00000000000001));
#1943=CARTESIAN_POINT('Origin',(0.,6.93889390390723E-17,-2.5));
#1944=CARTESIAN_POINT('Origin',(-3.81,-1.87323637809701E-17,-1.00000000000001));
#1945=CARTESIAN_POINT('',(-4.16,-6.15950017511274E-17,-2.5));
#1946=CARTESIAN_POINT('Origin',(-3.81,-1.87323637809701E-17,-2.5));
#1947=CARTESIAN_POINT('',(-4.16,-6.15950017511274E-17,-1.00000000000001));
#1948=CARTESIAN_POINT('',(-4.16,2.41302741891872E-17,-1.00000000000001));
#1949=CARTESIAN_POINT('Origin',(-3.81,-1.87323637809701E-17,-1.00000000000001));
#1950=CARTESIAN_POINT('Origin',(0.,6.93889390390723E-17,-1.00000000000001));
#1951=CARTESIAN_POINT('Origin',(0.,6.93889390390723E-17,-2.5));
#1952=CARTESIAN_POINT('Origin',(3.81,-2.8881898434556E-17,-1.00000000000001));
#1953=CARTESIAN_POINT('',(3.46,-7.17445364047133E-17,-2.5));
#1954=CARTESIAN_POINT('Origin',(3.81,-2.8881898434556E-17,-2.5));
#1955=CARTESIAN_POINT('',(3.46,-7.17445364047133E-17,-1.00000000000001));
#1956=CARTESIAN_POINT('',(3.46,1.39807395356014E-17,-1.00000000000001));
#1957=CARTESIAN_POINT('Origin',(3.81,-2.8881898434556E-17,-1.00000000000001));
#1958=CARTESIAN_POINT('Origin',(0.,6.93889390390723E-17,-1.00000000000001));
#1959=CARTESIAN_POINT('Origin',(0.,6.93889390390723E-17,-2.5));
#1960=UNCERTAINTY_MEASURE_WITH_UNIT(LENGTH_MEASURE(0.01),#1964,
'DISTANCE_ACCURACY_VALUE',
'Maximum model space distance between geometric entities at asserted c
onnectivities');
#1961=UNCERTAINTY_MEASURE_WITH_UNIT(LENGTH_MEASURE(0.01),#1964,
'DISTANCE_ACCURACY_VALUE',
'Maximum model space distance between geometric entities at asserted c
onnectivities');
#1962=(
GEOMETRIC_REPRESENTATION_CONTEXT(3)
GLOBAL_UNCERTAINTY_ASSIGNED_CONTEXT((#1960))
GLOBAL_UNIT_ASSIGNED_CONTEXT((#1964,#1966,#1967))
REPRESENTATION_CONTEXT('','3D')
);
#1963=(
GEOMETRIC_REPRESENTATION_CONTEXT(3)
GLOBAL_UNCERTAINTY_ASSIGNED_CONTEXT((#1961))
GLOBAL_UNIT_ASSIGNED_CONTEXT((#1964,#1966,#1967))
REPRESENTATION_CONTEXT('','3D')
);
#1964=(
LENGTH_UNIT()
NAMED_UNIT(*)
SI_UNIT(.MILLI.,.METRE.)
);
#1965=(
LENGTH_UNIT()
NAMED_UNIT(*)
SI_UNIT($,.METRE.)
);
#1966=(
NAMED_UNIT(*)
PLANE_ANGLE_UNIT()
SI_UNIT($,.RADIAN.)
);
#1967=(
NAMED_UNIT(*)
SI_UNIT($,.STERADIAN.)
SOLID_ANGLE_UNIT()
);
#1968=SHAPE_DEFINITION_REPRESENTATION(#1969,#1970);
#1969=PRODUCT_DEFINITION_SHAPE('',$,#1972);
#1970=SHAPE_REPRESENTATION('',(#1084),#1962);
#1971=PRODUCT_DEFINITION_CONTEXT('part definition',#1976,'design');
#1972=PRODUCT_DEFINITION('Pogopin_1x4_2.54mm_male',
'Pogopin_1x4_2.54mm_male v1',#1973,#1971);
#1973=PRODUCT_DEFINITION_FORMATION('',$,#1978);
#1974=PRODUCT_RELATED_PRODUCT_CATEGORY('Pogopin_1x4_2.54mm_male v1',
'Pogopin_1x4_2.54mm_male v1',(#1978));
#1975=APPLICATION_PROTOCOL_DEFINITION('international standard',
'automotive_design',2009,#1976);
#1976=APPLICATION_CONTEXT(
'Core Data for Automotive Mechanical Design Process');
#1977=PRODUCT_CONTEXT('part definition',#1976,'mechanical');
#1978=PRODUCT('Pogopin_1x4_2.54mm_male','Pogopin_1x4_2.54mm_male v1',$,
(#1977));
#1979=PRESENTATION_STYLE_ASSIGNMENT((#1983));
#1980=PRESENTATION_STYLE_ASSIGNMENT((#1984));
#1981=PRESENTATION_STYLE_ASSIGNMENT((#1985));
#1982=PRESENTATION_STYLE_ASSIGNMENT((#1986));
#1983=SURFACE_STYLE_USAGE(.BOTH.,#1987);
#1984=SURFACE_STYLE_USAGE(.BOTH.,#1988);
#1985=SURFACE_STYLE_USAGE(.BOTH.,#1989);
#1986=SURFACE_STYLE_USAGE(.BOTH.,#1990);
#1987=SURFACE_SIDE_STYLE('',(#1991));
#1988=SURFACE_SIDE_STYLE('',(#1992));
#1989=SURFACE_SIDE_STYLE('',(#1993));
#1990=SURFACE_SIDE_STYLE('',(#1994));
#1991=SURFACE_STYLE_FILL_AREA(#1995);
#1992=SURFACE_STYLE_FILL_AREA(#1996);
#1993=SURFACE_STYLE_FILL_AREA(#1997);
#1994=SURFACE_STYLE_FILL_AREA(#1998);
#1995=FILL_AREA_STYLE('\X2\92FC\X0\ - \X2\30B530C630F3\X0\',(#1999));
#1996=FILL_AREA_STYLE(
'\X2\30CA30A430ED30F3\X0\ 12 (Formlabs Fuse 1 3D \X2\30D730EA30F330BF4F7F7528\X0\)',
(#2000));
#1997=FILL_AREA_STYLE('\X2\92FC\X0\ - \X2\7C973044\X0\',(#2001));
#1998=FILL_AREA_STYLE('\X2\771F936E\X0\ - \X2\3064308451FA3057\X0\',(#2002));
#1999=FILL_AREA_STYLE_COLOUR('\X2\92FC\X0\ - \X2\30B530C630F3\X0\',#2003);
#2000=FILL_AREA_STYLE_COLOUR(
'\X2\30CA30A430ED30F3\X0\ 12 (Formlabs Fuse 1 3D \X2\30D730EA30F330BF4F7F7528\X0\)',
#2004);
#2001=FILL_AREA_STYLE_COLOUR('\X2\92FC\X0\ - \X2\7C973044\X0\',#2005);
#2002=FILL_AREA_STYLE_COLOUR('\X2\771F936E\X0\ - \X2\3064308451FA3057\X0\',
#2006);
#2003=COLOUR_RGB('\X2\92FC\X0\ - \X2\30B530C630F3\X0\',0.627450980392157,
0.627450980392157,0.627450980392157);
#2004=COLOUR_RGB(
'\X2\30CA30A430ED30F3\X0\ 12 (Formlabs Fuse 1 3D \X2\30D730EA30F330BF4F7F7528\X0\)',
0.247058823529412,0.247058823529412,0.247058823529412);
#2005=COLOUR_RGB('\X2\92FC\X0\ - \X2\7C973044\X0\',0.627450980392157,0.627450980392157,
0.627450980392157);
#2006=COLOUR_RGB('\X2\771F936E\X0\ - \X2\3064308451FA3057\X0\',0.952941176470588,
0.796078431372549,0.486274509803922);
ENDSEC;
END-ISO-10303-21;
